# MagicaVoxel @ ephtracy

# material
mtllib Elec.mtl
usemtl palette

# normals
vn -1 0 0
vn 1 0 0
vn 0 0 1
vn 0 0 -1
vn 0 -1 0
vn 0 1 0

# texcoords
vt 0.384766 0.5
vt 0.388672 0.5

# verts
v -11.5 0 1.5
v -11.5 0 -1.5
v -11.5 1 0.5
v -11.5 1 -0.5
v -11.5 2 0.5
v -11.5 2 -0.5
v -11.5 3 1.5
v -11.5 3 -1.5
v -10.5 1 7.5
v -10.5 1 1.5
v -10.5 1 -1.5
v -10.5 1 -7.5
v -10.5 2 7.5
v -10.5 2 1.5
v -10.5 2 -1.5
v -10.5 2 -7.5
v -8.5 0 8.5
v -8.5 0 5.5
v -8.5 0 -5.5
v -8.5 0 -8.5
v -8.5 1 7.5
v -8.5 1 6.5
v -8.5 1 -6.5
v -8.5 1 -7.5
v -8.5 2 7.5
v -8.5 2 6.5
v -8.5 2 -6.5
v -8.5 2 -7.5
v -8.5 3 8.5
v -8.5 3 5.5
v -8.5 3 -5.5
v -8.5 3 -8.5
v -7.5 1 10.5
v -7.5 1 8.5
v -7.5 1 -8.5
v -7.5 1 -10.5
v -7.5 2 10.5
v -7.5 2 8.5
v -7.5 2 -8.5
v -7.5 2 -10.5
v -1.5 0 11.5
v -1.5 0 9.5
v -1.5 0 6.5
v -1.5 0 -6.5
v -1.5 0 -9.5
v -1.5 0 -11.5
v -1.5 1 10.5
v -1.5 1 9.5
v -1.5 1 -9.5
v -1.5 1 -10.5
v -1.5 2 10.5
v -1.5 2 9.5
v -1.5 2 -9.5
v -1.5 2 -10.5
v -1.5 3 11.5
v -1.5 3 9.5
v -1.5 3 6.5
v -1.5 3 -6.5
v -1.5 3 -9.5
v -1.5 3 -11.5
v 5.5 0 8.5
v 5.5 0 5.5
v 5.5 0 -5.5
v 5.5 0 -8.5
v 5.5 3 8.5
v 5.5 3 5.5
v 5.5 3 -5.5
v 5.5 3 -8.5
v 6.5 0 1.5
v 6.5 0 -1.5
v 6.5 1 9.5
v 6.5 1 8.5
v 6.5 1 -8.5
v 6.5 1 -9.5
v 6.5 2 9.5
v 6.5 2 8.5
v 6.5 2 -8.5
v 6.5 2 -9.5
v 6.5 3 1.5
v 6.5 3 -1.5
v 9.5 1 6.5
v 9.5 1 1.5
v 9.5 1 -1.5
v 9.5 1 -6.5
v 9.5 2 6.5
v 9.5 2 1.5
v 9.5 2 -1.5
v 9.5 2 -6.5
v -9.5 1 6.5
v -9.5 1 1.5
v -9.5 1 -1.5
v -9.5 1 -6.5
v -9.5 2 6.5
v -9.5 2 1.5
v -9.5 2 -1.5
v -9.5 2 -6.5
v -6.5 0 1.5
v -6.5 0 -1.5
v -6.5 1 9.5
v -6.5 1 8.5
v -6.5 1 -8.5
v -6.5 1 -9.5
v -6.5 2 9.5
v -6.5 2 8.5
v -6.5 2 -8.5
v -6.5 2 -9.5
v -6.5 3 1.5
v -6.5 3 -1.5
v -5.5 0 8.5
v -5.5 0 5.5
v -5.5 0 -5.5
v -5.5 0 -8.5
v -5.5 3 8.5
v -5.5 3 5.5
v -5.5 3 -5.5
v -5.5 3 -8.5
v 1.5 0 11.5
v 1.5 0 9.5
v 1.5 0 6.5
v 1.5 0 -6.5
v 1.5 0 -9.5
v 1.5 0 -11.5
v 1.5 1 10.5
v 1.5 1 9.5
v 1.5 1 -9.5
v 1.5 1 -10.5
v 1.5 2 10.5
v 1.5 2 9.5
v 1.5 2 -9.5
v 1.5 2 -10.5
v 1.5 3 11.5
v 1.5 3 9.5
v 1.5 3 6.5
v 1.5 3 -6.5
v 1.5 3 -9.5
v 1.5 3 -11.5
v 7.5 1 10.5
v 7.5 1 8.5
v 7.5 1 -8.5
v 7.5 1 -10.5
v 7.5 2 10.5
v 7.5 2 8.5
v 7.5 2 -8.5
v 7.5 2 -10.5
v 8.5 0 8.5
v 8.5 0 5.5
v 8.5 0 -5.5
v 8.5 0 -8.5
v 8.5 1 7.5
v 8.5 1 6.5
v 8.5 1 -6.5
v 8.5 1 -7.5
v 8.5 2 7.5
v 8.5 2 6.5
v 8.5 2 -6.5
v 8.5 2 -7.5
v 8.5 3 8.5
v 8.5 3 5.5
v 8.5 3 -5.5
v 8.5 3 -8.5
v 10.5 1 7.5
v 10.5 1 1.5
v 10.5 1 -1.5
v 10.5 1 -7.5
v 10.5 2 7.5
v 10.5 2 1.5
v 10.5 2 -1.5
v 10.5 2 -7.5
v 11.5 0 1.5
v 11.5 0 -1.5
v 11.5 1 0.5
v 11.5 1 -0.5
v 11.5 2 0.5
v 11.5 2 -0.5
v 11.5 3 1.5
v 11.5 3 -1.5
v -1.5 0 11.5
v -1.5 3 11.5
v -0.5 1 11.5
v -0.5 2 11.5
v 0.5 1 11.5
v 0.5 2 11.5
v 1.5 0 11.5
v 1.5 3 11.5
v -7.5 1 10.5
v -7.5 2 10.5
v -1.5 1 10.5
v -1.5 2 10.5
v 1.5 1 10.5
v 1.5 2 10.5
v 7.5 1 10.5
v 7.5 2 10.5
v -8.5 0 8.5
v -8.5 3 8.5
v -7.5 1 8.5
v -7.5 2 8.5
v -6.5 1 8.5
v -6.5 2 8.5
v -5.5 0 8.5
v -5.5 3 8.5
v 5.5 0 8.5
v 5.5 3 8.5
v 6.5 1 8.5
v 6.5 2 8.5
v 7.5 1 8.5
v 7.5 2 8.5
v 8.5 0 8.5
v 8.5 3 8.5
v -10.5 1 7.5
v -10.5 2 7.5
v -8.5 1 7.5
v -8.5 2 7.5
v 8.5 1 7.5
v 8.5 2 7.5
v 10.5 1 7.5
v 10.5 2 7.5
v -11.5 0 1.5
v -11.5 3 1.5
v -10.5 1 1.5
v -10.5 2 1.5
v -9.5 0 1.5
v -9.5 1 1.5
v -9.5 2 1.5
v -9.5 3 1.5
v -7.5 0 1.5
v -7.5 3 1.5
v -6.5 0 1.5
v -6.5 3 1.5
v 6.5 0 1.5
v 6.5 3 1.5
v 7.5 0 1.5
v 7.5 3 1.5
v 9.5 0 1.5
v 9.5 1 1.5
v 9.5 2 1.5
v 9.5 3 1.5
v 10.5 1 1.5
v 10.5 2 1.5
v 11.5 0 1.5
v 11.5 3 1.5
v -8.5 0 -5.5
v -8.5 3 -5.5
v -5.5 0 -5.5
v -5.5 3 -5.5
v 5.5 0 -5.5
v 5.5 3 -5.5
v 8.5 0 -5.5
v 8.5 3 -5.5
v -9.5 1 -6.5
v -9.5 2 -6.5
v -8.5 1 -6.5
v -8.5 2 -6.5
v -1.5 0 -6.5
v -1.5 3 -6.5
v 1.5 0 -6.5
v 1.5 3 -6.5
v 8.5 1 -6.5
v 8.5 2 -6.5
v 9.5 1 -6.5
v 9.5 2 -6.5
v -6.5 1 -9.5
v -6.5 2 -9.5
v -1.5 1 -9.5
v -1.5 2 -9.5
v 1.5 1 -9.5
v 1.5 2 -9.5
v 6.5 1 -9.5
v 6.5 2 -9.5
v -6.5 1 9.5
v -6.5 2 9.5
v -1.5 1 9.5
v -1.5 2 9.5
v 1.5 1 9.5
v 1.5 2 9.5
v 6.5 1 9.5
v 6.5 2 9.5
v -9.5 1 6.5
v -9.5 2 6.5
v -8.5 1 6.5
v -8.5 2 6.5
v -1.5 0 6.5
v -1.5 3 6.5
v 1.5 0 6.5
v 1.5 3 6.5
v 8.5 1 6.5
v 8.5 2 6.5
v 9.5 1 6.5
v 9.5 2 6.5
v -8.5 0 5.5
v -8.5 3 5.5
v -5.5 0 5.5
v -5.5 3 5.5
v 5.5 0 5.5
v 5.5 3 5.5
v 8.5 0 5.5
v 8.5 3 5.5
v -11.5 0 -1.5
v -11.5 3 -1.5
v -10.5 1 -1.5
v -10.5 2 -1.5
v -9.5 0 -1.5
v -9.5 1 -1.5
v -9.5 2 -1.5
v -9.5 3 -1.5
v -7.5 0 -1.5
v -7.5 3 -1.5
v -6.5 0 -1.5
v -6.5 3 -1.5
v 6.5 0 -1.5
v 6.5 3 -1.5
v 7.5 0 -1.5
v 7.5 3 -1.5
v 9.5 0 -1.5
v 9.5 1 -1.5
v 9.5 2 -1.5
v 9.5 3 -1.5
v 10.5 1 -1.5
v 10.5 2 -1.5
v 11.5 0 -1.5
v 11.5 3 -1.5
v -10.5 1 -7.5
v -10.5 2 -7.5
v -8.5 1 -7.5
v -8.5 2 -7.5
v 8.5 1 -7.5
v 8.5 2 -7.5
v 10.5 1 -7.5
v 10.5 2 -7.5
v -8.5 0 -8.5
v -8.5 3 -8.5
v -7.5 1 -8.5
v -7.5 2 -8.5
v -6.5 1 -8.5
v -6.5 2 -8.5
v -5.5 0 -8.5
v -5.5 3 -8.5
v 5.5 0 -8.5
v 5.5 3 -8.5
v 6.5 1 -8.5
v 6.5 2 -8.5
v 7.5 1 -8.5
v 7.5 2 -8.5
v 8.5 0 -8.5
v 8.5 3 -8.5
v -7.5 1 -10.5
v -7.5 2 -10.5
v -1.5 1 -10.5
v -1.5 2 -10.5
v 1.5 1 -10.5
v 1.5 2 -10.5
v 7.5 1 -10.5
v 7.5 2 -10.5
v -1.5 0 -11.5
v -1.5 3 -11.5
v -0.5 1 -11.5
v -0.5 2 -11.5
v 0.5 1 -11.5
v 0.5 2 -11.5
v 1.5 0 -11.5
v 1.5 3 -11.5
v -1.5 0 11.5
v 1.5 0 11.5
v -1.5 0 9.5
v 1.5 0 9.5
v -8.5 0 8.5
v -5.5 0 8.5
v 5.5 0 8.5
v 8.5 0 8.5
v -7.5 0 7.5
v -6.5 0 7.5
v 6.5 0 7.5
v 7.5 0 7.5
v -7.5 0 6.5
v -6.5 0 6.5
v -1.5 0 6.5
v 1.5 0 6.5
v 6.5 0 6.5
v 7.5 0 6.5
v -8.5 0 5.5
v -5.5 0 5.5
v 5.5 0 5.5
v 8.5 0 5.5
v -11.5 0 1.5
v -9.5 0 1.5
v -7.5 0 1.5
v -6.5 0 1.5
v 6.5 0 1.5
v 7.5 0 1.5
v 9.5 0 1.5
v 11.5 0 1.5
v -11.5 0 -1.5
v -9.5 0 -1.5
v -7.5 0 -1.5
v -6.5 0 -1.5
v 6.5 0 -1.5
v 7.5 0 -1.5
v 9.5 0 -1.5
v 11.5 0 -1.5
v -8.5 0 -5.5
v -5.5 0 -5.5
v 5.5 0 -5.5
v 8.5 0 -5.5
v -7.5 0 -6.5
v -6.5 0 -6.5
v -1.5 0 -6.5
v 1.5 0 -6.5
v 6.5 0 -6.5
v 7.5 0 -6.5
v -7.5 0 -7.5
v -6.5 0 -7.5
v 6.5 0 -7.5
v 7.5 0 -7.5
v -8.5 0 -8.5
v -5.5 0 -8.5
v 5.5 0 -8.5
v 8.5 0 -8.5
v -1.5 0 -9.5
v 1.5 0 -9.5
v -1.5 0 -11.5
v 1.5 0 -11.5
v -7.5 1 10.5
v -1.5 1 10.5
v 1.5 1 10.5
v 7.5 1 10.5
v -6.5 1 9.5
v -1.5 1 9.5
v 1.5 1 9.5
v 6.5 1 9.5
v -7.5 1 8.5
v -6.5 1 8.5
v 6.5 1 8.5
v 7.5 1 8.5
v -10.5 1 7.5
v -8.5 1 7.5
v 8.5 1 7.5
v 10.5 1 7.5
v -9.5 1 6.5
v -8.5 1 6.5
v 8.5 1 6.5
v 9.5 1 6.5
v -10.5 1 1.5
v -9.5 1 1.5
v 9.5 1 1.5
v 10.5 1 1.5
v -10.5 1 -1.5
v -9.5 1 -1.5
v 9.5 1 -1.5
v 10.5 1 -1.5
v -9.5 1 -6.5
v -8.5 1 -6.5
v 8.5 1 -6.5
v 9.5 1 -6.5
v -10.5 1 -7.5
v -8.5 1 -7.5
v 8.5 1 -7.5
v 10.5 1 -7.5
v -7.5 1 -8.5
v -6.5 1 -8.5
v 6.5 1 -8.5
v 7.5 1 -8.5
v -6.5 1 -9.5
v -1.5 1 -9.5
v 1.5 1 -9.5
v 6.5 1 -9.5
v -7.5 1 -10.5
v -1.5 1 -10.5
v 1.5 1 -10.5
v 7.5 1 -10.5
v -7.5 2 10.5
v -1.5 2 10.5
v 1.5 2 10.5
v 7.5 2 10.5
v -6.5 2 9.5
v -1.5 2 9.5
v 1.5 2 9.5
v 6.5 2 9.5
v -7.5 2 8.5
v -6.5 2 8.5
v 6.5 2 8.5
v 7.5 2 8.5
v -10.5 2 7.5
v -8.5 2 7.5
v 8.5 2 7.5
v 10.5 2 7.5
v -9.5 2 6.5
v -8.5 2 6.5
v 8.5 2 6.5
v 9.5 2 6.5
v -10.5 2 1.5
v -9.5 2 1.5
v 9.5 2 1.5
v 10.5 2 1.5
v -10.5 2 -1.5
v -9.5 2 -1.5
v 9.5 2 -1.5
v 10.5 2 -1.5
v -9.5 2 -6.5
v -8.5 2 -6.5
v 8.5 2 -6.5
v 9.5 2 -6.5
v -10.5 2 -7.5
v -8.5 2 -7.5
v 8.5 2 -7.5
v 10.5 2 -7.5
v -7.5 2 -8.5
v -6.5 2 -8.5
v 6.5 2 -8.5
v 7.5 2 -8.5
v -6.5 2 -9.5
v -1.5 2 -9.5
v 1.5 2 -9.5
v 6.5 2 -9.5
v -7.5 2 -10.5
v -1.5 2 -10.5
v 1.5 2 -10.5
v 7.5 2 -10.5
v -1.5 3 11.5
v 1.5 3 11.5
v -1.5 3 9.5
v 1.5 3 9.5
v -8.5 3 8.5
v -5.5 3 8.5
v 5.5 3 8.5
v 8.5 3 8.5
v -7.5 3 7.5
v -6.5 3 7.5
v 6.5 3 7.5
v 7.5 3 7.5
v -7.5 3 6.5
v -6.5 3 6.5
v -1.5 3 6.5
v 1.5 3 6.5
v 6.5 3 6.5
v 7.5 3 6.5
v -8.5 3 5.5
v -5.5 3 5.5
v 5.5 3 5.5
v 8.5 3 5.5
v -11.5 3 1.5
v -9.5 3 1.5
v -7.5 3 1.5
v -6.5 3 1.5
v 6.5 3 1.5
v 7.5 3 1.5
v 9.5 3 1.5
v 11.5 3 1.5
v -11.5 3 -1.5
v -9.5 3 -1.5
v -7.5 3 -1.5
v -6.5 3 -1.5
v 6.5 3 -1.5
v 7.5 3 -1.5
v 9.5 3 -1.5
v 11.5 3 -1.5
v -8.5 3 -5.5
v -5.5 3 -5.5
v 5.5 3 -5.5
v 8.5 3 -5.5
v -7.5 3 -6.5
v -6.5 3 -6.5
v -1.5 3 -6.5
v 1.5 3 -6.5
v 6.5 3 -6.5
v 7.5 3 -6.5
v -7.5 3 -7.5
v -6.5 3 -7.5
v 6.5 3 -7.5
v 7.5 3 -7.5
v -8.5 3 -8.5
v -5.5 3 -8.5
v 5.5 3 -8.5
v 8.5 3 -8.5
v -1.5 3 -9.5
v 1.5 3 -9.5
v -1.5 3 -11.5
v 1.5 3 -11.5

# faces
f 3/2/1 2/2/1 1/2/1
f 4/2/1 2/2/1 3/2/1
f 5/2/1 3/2/1 1/2/1
f 5/1/1 4/1/1 3/1/1
f 6/2/1 2/2/1 4/2/1
f 6/1/1 4/1/1 5/1/1
f 7/2/1 5/2/1 1/2/1
f 7/2/1 6/2/1 5/2/1
f 8/2/1 2/2/1 6/2/1
f 8/2/1 6/2/1 7/2/1
f 13/1/1 10/1/1 9/1/1
f 14/1/1 10/1/1 13/1/1
f 15/1/1 12/1/1 11/1/1
f 16/1/1 12/1/1 15/1/1
f 21/2/1 18/2/1 17/2/1
f 22/2/1 18/2/1 21/2/1
f 23/2/1 20/2/1 19/2/1
f 24/2/1 20/2/1 23/2/1
f 25/2/1 21/2/1 17/2/1
f 26/2/1 18/2/1 22/2/1
f 27/2/1 23/2/1 19/2/1
f 28/2/1 20/2/1 24/2/1
f 29/2/1 25/2/1 17/2/1
f 29/2/1 26/2/1 25/2/1
f 30/2/1 18/2/1 26/2/1
f 30/2/1 26/2/1 29/2/1
f 31/2/1 28/2/1 27/2/1
f 31/2/1 27/2/1 19/2/1
f 32/2/1 20/2/1 28/2/1
f 32/2/1 28/2/1 31/2/1
f 37/1/1 34/1/1 33/1/1
f 38/1/1 34/1/1 37/1/1
f 39/1/1 36/1/1 35/1/1
f 40/1/1 36/1/1 39/1/1
f 47/2/1 42/2/1 41/2/1
f 48/1/1 43/1/1 42/1/1
f 48/2/1 42/2/1 47/2/1
f 49/2/1 46/2/1 45/2/1
f 49/1/1 45/1/1 44/1/1
f 50/2/1 46/2/1 49/2/1
f 51/2/1 47/2/1 41/2/1
f 52/1/1 43/1/1 48/1/1
f 53/1/1 49/1/1 44/1/1
f 54/2/1 46/2/1 50/2/1
f 55/2/1 51/2/1 41/2/1
f 55/2/1 52/2/1 51/2/1
f 56/1/1 43/1/1 52/1/1
f 56/2/1 52/2/1 55/2/1
f 57/1/1 43/1/1 56/1/1
f 58/1/1 53/1/1 44/1/1
f 59/2/1 54/2/1 53/2/1
f 59/1/1 53/1/1 58/1/1
f 60/2/1 46/2/1 54/2/1
f 60/2/1 54/2/1 59/2/1
f 65/2/1 62/2/1 61/2/1
f 66/2/1 62/2/1 65/2/1
f 67/2/1 64/2/1 63/2/1
f 68/2/1 64/2/1 67/2/1
f 75/1/1 72/1/1 71/1/1
f 76/1/1 72/1/1 75/1/1
f 77/1/1 74/1/1 73/1/1
f 78/1/1 74/1/1 77/1/1
f 79/2/1 70/2/1 69/2/1
f 80/2/1 70/2/1 79/2/1
f 85/1/1 82/1/1 81/1/1
f 86/1/1 82/1/1 85/1/1
f 87/1/1 84/1/1 83/1/1
f 88/1/1 84/1/1 87/1/1
f 89/1/2 90/1/2 93/1/2
f 93/1/2 90/1/2 94/1/2
f 91/1/2 92/1/2 95/1/2
f 95/1/2 92/1/2 96/1/2
f 99/1/2 100/1/2 103/1/2
f 103/1/2 100/1/2 104/1/2
f 101/1/2 102/1/2 105/1/2
f 105/1/2 102/1/2 106/1/2
f 97/2/2 98/2/2 107/2/2
f 107/2/2 98/2/2 108/2/2
f 109/2/2 110/2/2 113/2/2
f 113/2/2 110/2/2 114/2/2
f 111/2/2 112/2/2 115/2/2
f 115/2/2 112/2/2 116/2/2
f 117/2/2 118/2/2 123/2/2
f 118/1/2 119/1/2 124/1/2
f 123/2/2 118/2/2 124/2/2
f 121/2/2 122/2/2 125/2/2
f 120/1/2 121/1/2 125/1/2
f 125/2/2 122/2/2 126/2/2
f 117/2/2 123/2/2 127/2/2
f 124/1/2 119/1/2 128/1/2
f 120/1/2 125/1/2 129/1/2
f 126/2/2 122/2/2 130/2/2
f 117/2/2 127/2/2 131/2/2
f 127/2/2 128/2/2 131/2/2
f 128/1/2 119/1/2 132/1/2
f 131/2/2 128/2/2 132/2/2
f 132/1/2 119/1/2 133/1/2
f 120/1/2 129/1/2 134/1/2
f 129/2/2 130/2/2 135/2/2
f 134/1/2 129/1/2 135/1/2
f 130/2/2 122/2/2 136/2/2
f 135/2/2 130/2/2 136/2/2
f 137/1/2 138/1/2 141/1/2
f 141/1/2 138/1/2 142/1/2
f 139/1/2 140/1/2 143/1/2
f 143/1/2 140/1/2 144/1/2
f 145/2/2 146/2/2 149/2/2
f 149/2/2 146/2/2 150/2/2
f 147/2/2 148/2/2 151/2/2
f 151/2/2 148/2/2 152/2/2
f 145/2/2 149/2/2 153/2/2
f 150/2/2 146/2/2 154/2/2
f 147/2/2 151/2/2 155/2/2
f 152/2/2 148/2/2 156/2/2
f 145/2/2 153/2/2 157/2/2
f 153/2/2 154/2/2 157/2/2
f 154/2/2 146/2/2 158/2/2
f 157/2/2 154/2/2 158/2/2
f 155/2/2 156/2/2 159/2/2
f 147/2/2 155/2/2 159/2/2
f 156/2/2 148/2/2 160/2/2
f 159/2/2 156/2/2 160/2/2
f 161/1/2 162/1/2 165/1/2
f 165/1/2 162/1/2 166/1/2
f 163/1/2 164/1/2 167/1/2
f 167/1/2 164/1/2 168/1/2
f 169/2/2 170/2/2 171/2/2
f 171/2/2 170/2/2 172/2/2
f 169/2/2 171/2/2 173/2/2
f 171/1/2 172/1/2 173/1/2
f 172/2/2 170/2/2 174/2/2
f 173/1/2 172/1/2 174/1/2
f 169/2/2 173/2/2 175/2/2
f 173/2/2 174/2/2 175/2/2
f 174/2/2 170/2/2 176/2/2
f 175/2/2 174/2/2 176/2/2
f 179/2/3 178/2/3 177/2/3
f 180/2/3 178/2/3 179/2/3
f 181/2/3 179/2/3 177/2/3
f 181/1/3 180/1/3 179/1/3
f 182/2/3 178/2/3 180/2/3
f 182/1/3 180/1/3 181/1/3
f 183/2/3 181/2/3 177/2/3
f 183/2/3 182/2/3 181/2/3
f 184/2/3 178/2/3 182/2/3
f 184/2/3 182/2/3 183/2/3
f 187/1/3 186/1/3 185/1/3
f 188/1/3 186/1/3 187/1/3
f 191/1/3 190/1/3 189/1/3
f 192/1/3 190/1/3 191/1/3
f 195/2/3 194/2/3 193/2/3
f 196/2/3 194/2/3 195/2/3
f 197/2/3 195/2/3 193/2/3
f 198/2/3 194/2/3 196/2/3
f 199/2/3 197/2/3 193/2/3
f 199/2/3 198/2/3 197/2/3
f 200/2/3 194/2/3 198/2/3
f 200/2/3 198/2/3 199/2/3
f 203/2/3 202/2/3 201/2/3
f 204/2/3 202/2/3 203/2/3
f 205/2/3 203/2/3 201/2/3
f 206/2/3 202/2/3 204/2/3
f 207/2/3 205/2/3 201/2/3
f 207/2/3 206/2/3 205/2/3
f 208/2/3 202/2/3 206/2/3
f 208/2/3 206/2/3 207/2/3
f 211/1/3 210/1/3 209/1/3
f 212/1/3 210/1/3 211/1/3
f 215/1/3 214/1/3 213/1/3
f 216/1/3 214/1/3 215/1/3
f 219/2/3 218/2/3 217/2/3
f 220/2/3 218/2/3 219/2/3
f 221/2/3 219/2/3 217/2/3
f 222/2/3 219/2/3 221/2/3
f 223/2/3 218/2/3 220/2/3
f 224/2/3 218/2/3 223/2/3
f 225/1/3 222/1/3 221/1/3
f 225/1/3 223/1/3 222/1/3
f 225/1/3 224/1/3 223/1/3
f 226/1/3 224/1/3 225/1/3
f 227/2/3 226/2/3 225/2/3
f 228/2/3 226/2/3 227/2/3
f 231/2/3 230/2/3 229/2/3
f 232/2/3 230/2/3 231/2/3
f 233/1/3 232/1/3 231/1/3
f 234/1/3 232/1/3 233/1/3
f 235/1/3 232/1/3 234/1/3
f 236/1/3 232/1/3 235/1/3
f 237/2/3 234/2/3 233/2/3
f 238/2/3 236/2/3 235/2/3
f 239/2/3 237/2/3 233/2/3
f 239/2/3 238/2/3 237/2/3
f 240/2/3 236/2/3 238/2/3
f 240/2/3 238/2/3 239/2/3
f 243/2/3 242/2/3 241/2/3
f 244/2/3 242/2/3 243/2/3
f 247/2/3 246/2/3 245/2/3
f 248/2/3 246/2/3 247/2/3
f 251/1/3 250/1/3 249/1/3
f 252/1/3 250/1/3 251/1/3
f 255/1/3 254/1/3 253/1/3
f 256/1/3 254/1/3 255/1/3
f 259/1/3 258/1/3 257/1/3
f 260/1/3 258/1/3 259/1/3
f 263/1/3 262/1/3 261/1/3
f 264/1/3 262/1/3 263/1/3
f 267/1/3 266/1/3 265/1/3
f 268/1/3 266/1/3 267/1/3
f 269/1/4 270/1/4 271/1/4
f 271/1/4 270/1/4 272/1/4
f 273/1/4 274/1/4 275/1/4
f 275/1/4 274/1/4 276/1/4
f 277/1/4 278/1/4 279/1/4
f 279/1/4 278/1/4 280/1/4
f 281/1/4 282/1/4 283/1/4
f 283/1/4 282/1/4 284/1/4
f 285/1/4 286/1/4 287/1/4
f 287/1/4 286/1/4 288/1/4
f 289/2/4 290/2/4 291/2/4
f 291/2/4 290/2/4 292/2/4
f 293/2/4 294/2/4 295/2/4
f 295/2/4 294/2/4 296/2/4
f 297/2/4 298/2/4 299/2/4
f 299/2/4 298/2/4 300/2/4
f 297/2/4 299/2/4 301/2/4
f 301/2/4 299/2/4 302/2/4
f 300/2/4 298/2/4 303/2/4
f 303/2/4 298/2/4 304/2/4
f 301/1/4 302/1/4 305/1/4
f 302/1/4 303/1/4 305/1/4
f 303/1/4 304/1/4 305/1/4
f 305/1/4 304/1/4 306/1/4
f 305/2/4 306/2/4 307/2/4
f 307/2/4 306/2/4 308/2/4
f 309/2/4 310/2/4 311/2/4
f 311/2/4 310/2/4 312/2/4
f 311/1/4 312/1/4 313/1/4
f 313/1/4 312/1/4 314/1/4
f 314/1/4 312/1/4 315/1/4
f 315/1/4 312/1/4 316/1/4
f 313/2/4 314/2/4 317/2/4
f 315/2/4 316/2/4 318/2/4
f 313/2/4 317/2/4 319/2/4
f 317/2/4 318/2/4 319/2/4
f 318/2/4 316/2/4 320/2/4
f 319/2/4 318/2/4 320/2/4
f 321/1/4 322/1/4 323/1/4
f 323/1/4 322/1/4 324/1/4
f 325/1/4 326/1/4 327/1/4
f 327/1/4 326/1/4 328/1/4
f 329/2/4 330/2/4 331/2/4
f 331/2/4 330/2/4 332/2/4
f 329/2/4 331/2/4 333/2/4
f 332/2/4 330/2/4 334/2/4
f 329/2/4 333/2/4 335/2/4
f 333/2/4 334/2/4 335/2/4
f 334/2/4 330/2/4 336/2/4
f 335/2/4 334/2/4 336/2/4
f 337/2/4 338/2/4 339/2/4
f 339/2/4 338/2/4 340/2/4
f 337/2/4 339/2/4 341/2/4
f 340/2/4 338/2/4 342/2/4
f 337/2/4 341/2/4 343/2/4
f 341/2/4 342/2/4 343/2/4
f 342/2/4 338/2/4 344/2/4
f 343/2/4 342/2/4 344/2/4
f 345/1/4 346/1/4 347/1/4
f 347/1/4 346/1/4 348/1/4
f 349/1/4 350/1/4 351/1/4
f 351/1/4 350/1/4 352/1/4
f 353/2/4 354/2/4 355/2/4
f 355/2/4 354/2/4 356/2/4
f 353/2/4 355/2/4 357/2/4
f 355/1/4 356/1/4 357/1/4
f 356/2/4 354/2/4 358/2/4
f 357/1/4 356/1/4 358/1/4
f 353/2/4 357/2/4 359/2/4
f 357/2/4 358/2/4 359/2/4
f 358/2/4 354/2/4 360/2/4
f 359/2/4 358/2/4 360/2/4
f 363/2/5 362/2/5 361/2/5
f 364/2/5 362/2/5 363/2/5
f 369/2/5 366/2/5 365/2/5
f 370/2/5 366/2/5 369/2/5
f 371/2/5 368/2/5 367/2/5
f 372/2/5 368/2/5 371/2/5
f 373/2/5 369/2/5 365/2/5
f 373/1/5 370/1/5 369/1/5
f 374/2/5 366/2/5 370/2/5
f 374/1/5 370/1/5 373/1/5
f 375/1/5 364/1/5 363/1/5
f 376/1/5 364/1/5 375/1/5
f 377/1/5 372/1/5 371/1/5
f 377/2/5 371/2/5 367/2/5
f 378/2/5 368/2/5 372/2/5
f 378/1/5 372/1/5 377/1/5
f 379/2/5 373/2/5 365/2/5
f 379/2/5 374/2/5 373/2/5
f 380/2/5 366/2/5 374/2/5
f 380/2/5 374/2/5 379/2/5
f 381/2/5 377/2/5 367/2/5
f 381/2/5 378/2/5 377/2/5
f 382/2/5 368/2/5 378/2/5
f 382/2/5 378/2/5 381/2/5
f 391/2/5 384/2/5 383/2/5
f 392/1/5 385/1/5 384/1/5
f 392/2/5 384/2/5 391/2/5
f 393/2/5 386/2/5 385/2/5
f 393/1/5 385/1/5 392/1/5
f 394/2/5 386/2/5 393/2/5
f 395/2/5 388/2/5 387/2/5
f 396/1/5 389/1/5 388/1/5
f 396/2/5 388/2/5 395/2/5
f 397/2/5 390/2/5 389/2/5
f 397/1/5 389/1/5 396/1/5
f 398/2/5 390/2/5 397/2/5
f 403/2/5 400/2/5 399/2/5
f 404/2/5 400/2/5 403/2/5
f 407/2/5 402/2/5 401/2/5
f 408/2/5 402/2/5 407/2/5
f 409/2/5 403/2/5 399/2/5
f 409/1/5 404/1/5 403/1/5
f 410/2/5 400/2/5 404/2/5
f 410/1/5 404/1/5 409/1/5
f 411/1/5 408/1/5 407/1/5
f 411/2/5 407/2/5 401/2/5
f 412/2/5 402/2/5 408/2/5
f 412/1/5 408/1/5 411/1/5
f 413/2/5 409/2/5 399/2/5
f 413/2/5 410/2/5 409/2/5
f 414/2/5 400/2/5 410/2/5
f 414/2/5 410/2/5 413/2/5
f 415/2/5 411/2/5 401/2/5
f 415/2/5 412/2/5 411/2/5
f 416/2/5 402/2/5 412/2/5
f 416/2/5 412/2/5 415/2/5
f 417/1/5 406/1/5 405/1/5
f 418/1/5 406/1/5 417/1/5
f 419/2/5 418/2/5 417/2/5
f 420/2/5 418/2/5 419/2/5
f 425/1/5 422/1/5 421/1/5
f 426/1/5 422/1/5 425/1/5
f 427/1/5 424/1/5 423/1/5
f 428/1/5 424/1/5 427/1/5
f 429/1/5 425/1/5 421/1/5
f 430/1/5 425/1/5 429/1/5
f 431/1/5 424/1/5 428/1/5
f 432/1/5 424/1/5 431/1/5
f 437/1/5 434/1/5 433/1/5
f 438/1/5 434/1/5 437/1/5
f 439/1/5 436/1/5 435/1/5
f 440/1/5 436/1/5 439/1/5
f 441/1/5 437/1/5 433/1/5
f 442/1/5 437/1/5 441/1/5
f 443/1/5 436/1/5 440/1/5
f 444/1/5 436/1/5 443/1/5
f 449/1/5 446/1/5 445/1/5
f 452/1/5 448/1/5 447/1/5
f 453/1/5 450/1/5 449/1/5
f 453/1/5 449/1/5 445/1/5
f 454/1/5 450/1/5 453/1/5
f 455/1/5 452/1/5 451/1/5
f 456/1/5 448/1/5 452/1/5
f 456/1/5 452/1/5 455/1/5
f 461/1/5 458/1/5 457/1/5
f 464/1/5 460/1/5 459/1/5
f 465/1/5 462/1/5 461/1/5
f 465/1/5 461/1/5 457/1/5
f 466/1/5 462/1/5 465/1/5
f 467/1/5 464/1/5 463/1/5
f 468/1/5 460/1/5 464/1/5
f 468/1/5 464/1/5 467/1/5
f 469/1/6 470/1/6 473/1/6
f 473/1/6 470/1/6 474/1/6
f 471/1/6 472/1/6 475/1/6
f 475/1/6 472/1/6 476/1/6
f 469/1/6 473/1/6 477/1/6
f 477/1/6 473/1/6 478/1/6
f 476/1/6 472/1/6 479/1/6
f 479/1/6 472/1/6 480/1/6
f 481/1/6 482/1/6 485/1/6
f 485/1/6 482/1/6 486/1/6
f 483/1/6 484/1/6 487/1/6
f 487/1/6 484/1/6 488/1/6
f 481/1/6 485/1/6 489/1/6
f 489/1/6 485/1/6 490/1/6
f 488/1/6 484/1/6 491/1/6
f 491/1/6 484/1/6 492/1/6
f 493/1/6 494/1/6 497/1/6
f 495/1/6 496/1/6 500/1/6
f 497/1/6 498/1/6 501/1/6
f 493/1/6 497/1/6 501/1/6
f 501/1/6 498/1/6 502/1/6
f 499/1/6 500/1/6 503/1/6
f 500/1/6 496/1/6 504/1/6
f 503/1/6 500/1/6 504/1/6
f 505/1/6 506/1/6 509/1/6
f 507/1/6 508/1/6 512/1/6
f 509/1/6 510/1/6 513/1/6
f 505/1/6 509/1/6 513/1/6
f 513/1/6 510/1/6 514/1/6
f 511/1/6 512/1/6 515/1/6
f 512/1/6 508/1/6 516/1/6
f 515/1/6 512/1/6 516/1/6
f 517/2/6 518/2/6 519/2/6
f 519/2/6 518/2/6 520/2/6
f 521/2/6 522/2/6 525/2/6
f 525/2/6 522/2/6 526/2/6
f 523/2/6 524/2/6 527/2/6
f 527/2/6 524/2/6 528/2/6
f 521/2/6 525/2/6 529/2/6
f 525/1/6 526/1/6 529/1/6
f 526/2/6 522/2/6 530/2/6
f 529/1/6 526/1/6 530/1/6
f 519/1/6 520/1/6 531/1/6
f 531/1/6 520/1/6 532/1/6
f 527/1/6 528/1/6 533/1/6
f 523/2/6 527/2/6 533/2/6
f 528/2/6 524/2/6 534/2/6
f 533/1/6 528/1/6 534/1/6
f 521/2/6 529/2/6 535/2/6
f 529/2/6 530/2/6 535/2/6
f 530/2/6 522/2/6 536/2/6
f 535/2/6 530/2/6 536/2/6
f 523/2/6 533/2/6 537/2/6
f 533/2/6 534/2/6 537/2/6
f 534/2/6 524/2/6 538/2/6
f 537/2/6 534/2/6 538/2/6
f 539/2/6 540/2/6 547/2/6
f 540/1/6 541/1/6 548/1/6
f 547/2/6 540/2/6 548/2/6
f 541/2/6 542/2/6 549/2/6
f 548/1/6 541/1/6 549/1/6
f 549/2/6 542/2/6 550/2/6
f 543/2/6 544/2/6 551/2/6
f 544/1/6 545/1/6 552/1/6
f 551/2/6 544/2/6 552/2/6
f 545/2/6 546/2/6 553/2/6
f 552/1/6 545/1/6 553/1/6
f 553/2/6 546/2/6 554/2/6
f 555/2/6 556/2/6 559/2/6
f 559/2/6 556/2/6 560/2/6
f 557/2/6 558/2/6 563/2/6
f 563/2/6 558/2/6 564/2/6
f 555/2/6 559/2/6 565/2/6
f 559/1/6 560/1/6 565/1/6
f 560/2/6 556/2/6 566/2/6
f 565/1/6 560/1/6 566/1/6
f 563/1/6 564/1/6 567/1/6
f 557/2/6 563/2/6 567/2/6
f 564/2/6 558/2/6 568/2/6
f 567/1/6 564/1/6 568/1/6
f 555/2/6 565/2/6 569/2/6
f 565/2/6 566/2/6 569/2/6
f 566/2/6 556/2/6 570/2/6
f 569/2/6 566/2/6 570/2/6
f 557/2/6 567/2/6 571/2/6
f 567/2/6 568/2/6 571/2/6
f 568/2/6 558/2/6 572/2/6
f 571/2/6 568/2/6 572/2/6
f 561/1/6 562/1/6 573/1/6
f 573/1/6 562/1/6 574/1/6
f 573/2/6 574/2/6 575/2/6
f 575/2/6 574/2/6 576/2/6
