# MagicaVoxel @ ephtracy

# material
mtllib Leg.mtl
usemtl palette

# normals
vn -1 0 0
vn 1 0 0
vn 0 0 1
vn 0 0 -1
vn 0 -1 0
vn 0 1 0

# texcoords
vt 0.294922 0.5
vt 0.302734 0.5
vt 0.544922 0.5

# verts
v -1.5 8 1.5
v -1.5 8 -0.5
v -1.5 10 1.5
v -1.5 10 -0.5
v -0.5 0 0.5
v -0.5 0 -1.5
v -0.5 1 0.5
v -0.5 1 -1.5
v -0.5 8 0.5
v -0.5 8 -0.5
v -0.5 9 -0.5
v -0.5 9 -1.5
v 0.5 8 1.5
v 0.5 8 0.5
v 0.5 9 0.5
v 0.5 9 -0.5
v 0.5 10 1.5
v 0.5 10 -0.5
v 1.5 0 0.5
v 1.5 0 -1.5
v 1.5 1 0.5
v 1.5 1 -0.5
v 1.5 1 -1.5
v 1.5 9 0.5
v 1.5 9 -0.5
v 1.5 9 -1.5
v -1.5 8 1.5
v -1.5 10 1.5
v 0.5 8 1.5
v 0.5 10 1.5
v -0.5 0 0.5
v -0.5 1 0.5
v -0.5 8 0.5
v 0.5 8 0.5
v 0.5 9 0.5
v 1.5 0 0.5
v 1.5 1 0.5
v 1.5 9 0.5
v -1.5 8 -0.5
v -1.5 10 -0.5
v -0.5 8 -0.5
v -0.5 9 -0.5
v 0.5 9 -0.5
v 0.5 10 -0.5
v -0.5 0 -1.5
v -0.5 1 -1.5
v -0.5 9 -1.5
v 0.5 1 -1.5
v 0.5 9 -1.5
v 1.5 0 -1.5
v 1.5 1 -1.5
v 1.5 9 -1.5
v -0.5 0 0.5
v 1.5 0 0.5
v -0.5 0 -1.5
v 1.5 0 -1.5
v -1.5 8 1.5
v 0.5 8 1.5
v -0.5 8 0.5
v 0.5 8 0.5
v -1.5 8 -0.5
v -0.5 8 -0.5
v 0.5 9 0.5
v 1.5 9 0.5
v -0.5 9 -0.5
v 0.5 9 -0.5
v 1.5 9 -0.5
v -0.5 9 -1.5
v 0.5 9 -1.5
v 1.5 9 -1.5
v -1.5 10 1.5
v 0.5 10 1.5
v -1.5 10 -0.5
v 0.5 10 -0.5

# faces
f 3/3/1 2/3/1 1/3/1
f 4/3/1 2/3/1 3/3/1
f 7/3/1 6/3/1 5/3/1
f 8/3/1 6/3/1 7/3/1
f 9/1/1 8/1/1 7/1/1
f 10/1/1 8/1/1 9/1/1
f 11/1/1 8/1/1 10/1/1
f 12/1/1 8/1/1 11/1/1
f 13/3/2 14/3/2 15/3/2
f 13/3/2 15/3/2 17/3/2
f 15/3/2 16/3/2 17/3/2
f 17/3/2 16/3/2 18/3/2
f 19/3/2 20/3/2 21/3/2
f 21/3/2 20/3/2 22/3/2
f 22/3/2 20/3/2 23/3/2
f 21/1/2 22/1/2 24/1/2
f 22/2/2 23/2/2 25/2/2
f 24/1/2 22/1/2 25/1/2
f 25/2/2 23/2/2 26/2/2
f 29/3/3 28/3/3 27/3/3
f 30/3/3 28/3/3 29/3/3
f 34/1/3 33/1/3 32/1/3
f 36/3/3 32/3/3 31/3/3
f 37/1/3 35/1/3 34/1/3
f 37/3/3 32/3/3 36/3/3
f 37/1/3 34/1/3 32/1/3
f 38/1/3 35/1/3 37/1/3
f 39/3/4 40/3/4 41/3/4
f 41/3/4 40/3/4 42/3/4
f 42/3/4 40/3/4 43/3/4
f 43/3/4 40/3/4 44/3/4
f 45/3/4 46/3/4 48/3/4
f 46/1/4 47/1/4 48/1/4
f 48/1/4 47/1/4 49/1/4
f 45/3/4 48/3/4 50/3/4
f 48/2/4 49/2/4 51/2/4
f 50/3/4 48/3/4 51/3/4
f 51/2/4 49/2/4 52/2/4
f 55/3/5 54/3/5 53/3/5
f 56/3/5 54/3/5 55/3/5
f 59/3/5 58/3/5 57/3/5
f 60/3/5 58/3/5 59/3/5
f 61/3/5 59/3/5 57/3/5
f 62/3/5 59/3/5 61/3/5
f 63/1/6 64/1/6 66/1/6
f 66/1/6 64/1/6 67/1/6
f 65/1/6 66/1/6 68/1/6
f 66/2/6 67/2/6 69/2/6
f 68/1/6 66/1/6 69/1/6
f 69/2/6 67/2/6 70/2/6
f 71/3/6 72/3/6 73/3/6
f 73/3/6 72/3/6 74/3/6
