# MagicaVoxel @ ephtracy

# material
mtllib Turret.mtl
usemtl palette

# normals
vn -1 0 0
vn 1 0 0
vn 0 0 1
vn 0 0 -1
vn 0 -1 0
vn 0 1 0

# texcoords
vt 0.294922 0.5
vt 0.302734 0.5
vt 0.462891 0.5
vt 0.544922 0.5

# verts
v -3.5 11 3.5
v -3.5 11 -3.5
v -3.5 12 3.5
v -3.5 12 -3.5
v -2.5 1 2.5
v -2.5 1 -2.5
v -2.5 2 2.5
v -2.5 2 -2.5
v -2.5 3 2.5
v -2.5 3 -2.5
v -2.5 4 2.5
v -2.5 4 -2.5
v -2.5 6 2.5
v -2.5 6 -2.5
v -2.5 7 2.5
v -2.5 7 -2.5
v -2.5 8 2.5
v -2.5 8 1.5
v -2.5 9 2.5
v -2.5 9 1.5
v -2.5 10 2.5
v -2.5 10 -2.5
v -2.5 11 2.5
v -2.5 11 -2.5
v -2.5 12 2.5
v -2.5 12 -2.5
v -2.5 13 3.5
v -2.5 13 2.5
v -2.5 13 -2.5
v -2.5 14 3.5
v -2.5 14 2.5
v -1.5 0 1.5
v -1.5 0 -1.5
v -1.5 1 1.5
v -1.5 1 -1.5
v -1.5 12 3.5
v -1.5 12 2.5
v -1.5 13 3.5
v -1.5 13 2.5
v 0.5 11 3.5
v 0.5 11 2.5
v 0.5 12 2.5
v 0.5 13 2.5
v 0.5 14 3.5
v 0.5 14 2.5
v -0.5 11 3.5
v -0.5 11 2.5
v -0.5 12 2.5
v -0.5 13 2.5
v -0.5 14 3.5
v -0.5 14 2.5
v 1.5 0 1.5
v 1.5 0 -1.5
v 1.5 1 1.5
v 1.5 1 -1.5
v 1.5 12 3.5
v 1.5 12 2.5
v 1.5 13 3.5
v 1.5 13 2.5
v 2.5 1 2.5
v 2.5 1 -2.5
v 2.5 2 2.5
v 2.5 2 -2.5
v 2.5 3 2.5
v 2.5 3 -2.5
v 2.5 4 2.5
v 2.5 4 -2.5
v 2.5 6 2.5
v 2.5 6 -2.5
v 2.5 7 2.5
v 2.5 7 -2.5
v 2.5 8 2.5
v 2.5 8 1.5
v 2.5 9 2.5
v 2.5 9 1.5
v 2.5 10 2.5
v 2.5 10 -2.5
v 2.5 11 2.5
v 2.5 11 -2.5
v 2.5 12 2.5
v 2.5 12 -2.5
v 2.5 13 3.5
v 2.5 13 2.5
v 2.5 13 -2.5
v 2.5 14 3.5
v 2.5 14 2.5
v 3.5 11 3.5
v 3.5 11 -3.5
v 3.5 12 3.5
v 3.5 12 -3.5
v -3.5 11 3.5
v -3.5 12 3.5
v -2.5 13 3.5
v -2.5 14 3.5
v -1.5 12 3.5
v -1.5 13 3.5
v -0.5 11 3.5
v -0.5 14 3.5
v 0.5 11 3.5
v 0.5 14 3.5
v 1.5 12 3.5
v 1.5 13 3.5
v 2.5 13 3.5
v 2.5 14 3.5
v 3.5 11 3.5
v 3.5 12 3.5
v -2.5 1 2.5
v -2.5 2 2.5
v -2.5 3 2.5
v -2.5 4 2.5
v -2.5 6 2.5
v -2.5 7 2.5
v -2.5 8 2.5
v -2.5 9 2.5
v -2.5 10 2.5
v -2.5 11 2.5
v -2.5 12 2.5
v -2.5 13 2.5
v -1.5 8 2.5
v -1.5 9 2.5
v -1.5 12 2.5
v -1.5 13 2.5
v -0.5 11 2.5
v -0.5 12 2.5
v -0.5 13 2.5
v 0.5 11 2.5
v 0.5 12 2.5
v 0.5 13 2.5
v 1.5 8 2.5
v 1.5 9 2.5
v 1.5 12 2.5
v 1.5 13 2.5
v 2.5 1 2.5
v 2.5 2 2.5
v 2.5 3 2.5
v 2.5 4 2.5
v 2.5 6 2.5
v 2.5 7 2.5
v 2.5 8 2.5
v 2.5 9 2.5
v 2.5 10 2.5
v 2.5 11 2.5
v 2.5 12 2.5
v 2.5 13 2.5
v -1.5 0 1.5
v -1.5 1 1.5
v 1.5 0 1.5
v 1.5 1 1.5
v -2.5 13 2.5
v -2.5 14 2.5
v -0.5 13 2.5
v -0.5 14 2.5
v 0.5 13 2.5
v 0.5 14 2.5
v 2.5 13 2.5
v 2.5 14 2.5
v -1.5 0 -1.5
v -1.5 1 -1.5
v 1.5 0 -1.5
v 1.5 1 -1.5
v -2.5 1 -2.5
v -2.5 2 -2.5
v -2.5 3 -2.5
v -2.5 4 -2.5
v -2.5 6 -2.5
v -2.5 7 -2.5
v -2.5 10 -2.5
v -2.5 11 -2.5
v -2.5 12 -2.5
v -2.5 13 -2.5
v 2.5 1 -2.5
v 2.5 2 -2.5
v 2.5 3 -2.5
v 2.5 4 -2.5
v 2.5 6 -2.5
v 2.5 7 -2.5
v 2.5 10 -2.5
v 2.5 11 -2.5
v 2.5 12 -2.5
v 2.5 13 -2.5
v -3.5 11 -3.5
v -3.5 12 -3.5
v 3.5 11 -3.5
v 3.5 12 -3.5
v -1.5 0 1.5
v 1.5 0 1.5
v -1.5 0 -1.5
v 1.5 0 -1.5
v -2.5 1 2.5
v 2.5 1 2.5
v -1.5 1 1.5
v 1.5 1 1.5
v -1.5 1 -1.5
v 1.5 1 -1.5
v -2.5 1 -2.5
v 2.5 1 -2.5
v -3.5 11 3.5
v -0.5 11 3.5
v 0.5 11 3.5
v 3.5 11 3.5
v -2.5 11 2.5
v -0.5 11 2.5
v 0.5 11 2.5
v 2.5 11 2.5
v -2.5 11 -2.5
v 2.5 11 -2.5
v -3.5 11 -3.5
v 3.5 11 -3.5
v -2.5 13 3.5
v -1.5 13 3.5
v 1.5 13 3.5
v 2.5 13 3.5
v -2.5 13 2.5
v -1.5 13 2.5
v 1.5 13 2.5
v 2.5 13 2.5
v -3.5 12 3.5
v -1.5 12 3.5
v 1.5 12 3.5
v 3.5 12 3.5
v -2.5 12 2.5
v -1.5 12 2.5
v 1.5 12 2.5
v 2.5 12 2.5
v -2.5 12 -2.5
v 2.5 12 -2.5
v -3.5 12 -3.5
v 3.5 12 -3.5
v -2.5 13 2.5
v -0.5 13 2.5
v 0.5 13 2.5
v 2.5 13 2.5
v -2.5 13 -2.5
v 2.5 13 -2.5
v -2.5 14 3.5
v -0.5 14 3.5
v 0.5 14 3.5
v 2.5 14 3.5
v -2.5 14 2.5
v -0.5 14 2.5
v 0.5 14 2.5
v 2.5 14 2.5

# faces
f 3/4/1 2/4/1 1/4/1
f 4/4/1 2/4/1 3/4/1
f 7/1/1 6/1/1 5/1/1
f 8/1/1 6/1/1 7/1/1
f 9/2/1 8/2/1 7/2/1
f 10/2/1 8/2/1 9/2/1
f 11/1/1 10/1/1 9/1/1
f 12/1/1 10/1/1 11/1/1
f 13/2/1 12/2/1 11/2/1
f 14/2/1 12/2/1 13/2/1
f 15/1/1 14/1/1 13/1/1
f 16/1/1 14/1/1 15/1/1
f 17/4/1 16/4/1 15/4/1
f 18/4/1 16/4/1 17/4/1
f 19/3/1 18/3/1 17/3/1
f 20/4/1 16/4/1 18/4/1
f 20/3/1 18/3/1 19/3/1
f 21/4/1 20/4/1 19/4/1
f 22/4/1 16/4/1 20/4/1
f 22/4/1 20/4/1 21/4/1
f 23/1/1 22/1/1 21/1/1
f 24/1/1 22/1/1 23/1/1
f 28/1/1 26/1/1 25/1/1
f 29/1/1 26/1/1 28/1/1
f 30/4/1 28/4/1 27/4/1
f 31/4/1 28/4/1 30/4/1
f 34/4/1 33/4/1 32/4/1
f 35/4/1 33/4/1 34/4/1
f 38/4/1 37/4/1 36/4/1
f 39/4/1 37/4/1 38/4/1
f 42/4/1 41/4/1 40/4/1
f 43/4/1 42/4/1 40/4/1
f 44/4/1 43/4/1 40/4/1
f 45/4/1 43/4/1 44/4/1
f 46/4/2 47/4/2 48/4/2
f 46/4/2 48/4/2 49/4/2
f 46/4/2 49/4/2 50/4/2
f 50/4/2 49/4/2 51/4/2
f 52/4/2 53/4/2 54/4/2
f 54/4/2 53/4/2 55/4/2
f 56/4/2 57/4/2 58/4/2
f 58/4/2 57/4/2 59/4/2
f 60/1/2 61/1/2 62/1/2
f 62/1/2 61/1/2 63/1/2
f 62/2/2 63/2/2 64/2/2
f 64/2/2 63/2/2 65/2/2
f 64/1/2 65/1/2 66/1/2
f 66/1/2 65/1/2 67/1/2
f 66/2/2 67/2/2 68/2/2
f 68/2/2 67/2/2 69/2/2
f 68/1/2 69/1/2 70/1/2
f 70/1/2 69/1/2 71/1/2
f 70/4/2 71/4/2 72/4/2
f 72/4/2 71/4/2 73/4/2
f 72/3/2 73/3/2 74/3/2
f 73/4/2 71/4/2 75/4/2
f 74/3/2 73/3/2 75/3/2
f 74/4/2 75/4/2 76/4/2
f 75/4/2 71/4/2 77/4/2
f 76/4/2 75/4/2 77/4/2
f 76/1/2 77/1/2 78/1/2
f 78/1/2 77/1/2 79/1/2
f 80/1/2 81/1/2 83/1/2
f 83/1/2 81/1/2 84/1/2
f 82/4/2 83/4/2 85/4/2
f 85/4/2 83/4/2 86/4/2
f 87/4/2 88/4/2 89/4/2
f 89/4/2 88/4/2 90/4/2
f 95/4/3 92/4/3 91/4/3
f 96/4/3 94/4/3 93/4/3
f 97/4/3 95/4/3 91/4/3
f 97/4/3 96/4/3 95/4/3
f 98/4/3 94/4/3 96/4/3
f 98/4/3 96/4/3 97/4/3
f 101/4/3 100/4/3 99/4/3
f 102/4/3 100/4/3 101/4/3
f 103/4/3 100/4/3 102/4/3
f 104/4/3 100/4/3 103/4/3
f 105/4/3 101/4/3 99/4/3
f 106/4/3 101/4/3 105/4/3
f 119/4/3 113/4/3 112/4/3
f 119/3/3 114/3/3 113/3/3
f 120/4/3 115/4/3 114/4/3
f 120/3/3 114/3/3 119/3/3
f 121/1/3 118/1/3 117/1/3
f 122/1/3 118/1/3 121/1/3
f 123/1/3 116/1/3 115/1/3
f 126/1/3 123/1/3 115/1/3
f 126/2/3 124/2/3 123/2/3
f 127/1/3 125/1/3 124/1/3
f 127/2/3 124/2/3 126/2/3
f 128/1/3 125/1/3 127/1/3
f 129/4/3 119/4/3 112/4/3
f 129/4/3 120/4/3 119/4/3
f 130/4/3 115/4/3 120/4/3
f 130/4/3 120/4/3 129/4/3
f 133/1/3 108/1/3 107/1/3
f 134/2/3 109/2/3 108/2/3
f 134/1/3 108/1/3 133/1/3
f 135/1/3 110/1/3 109/1/3
f 135/2/3 109/2/3 134/2/3
f 136/2/3 111/2/3 110/2/3
f 136/1/3 110/1/3 135/1/3
f 137/1/3 112/1/3 111/1/3
f 137/2/3 111/2/3 136/2/3
f 138/4/3 129/4/3 112/4/3
f 138/1/3 112/1/3 137/1/3
f 139/3/3 130/3/3 129/3/3
f 139/4/3 129/4/3 138/4/3
f 140/4/3 115/4/3 130/4/3
f 140/3/3 130/3/3 139/3/3
f 141/1/3 126/1/3 115/1/3
f 141/4/3 115/4/3 140/4/3
f 142/1/3 126/1/3 141/1/3
f 143/1/3 132/1/3 131/1/3
f 144/1/3 132/1/3 143/1/3
f 147/4/3 146/4/3 145/4/3
f 148/4/3 146/4/3 147/4/3
f 149/4/4 150/4/4 151/4/4
f 151/4/4 150/4/4 152/4/4
f 153/4/4 154/4/4 155/4/4
f 155/4/4 154/4/4 156/4/4
f 157/4/4 158/4/4 159/4/4
f 159/4/4 158/4/4 160/4/4
f 161/1/4 162/1/4 171/1/4
f 162/2/4 163/2/4 172/2/4
f 171/1/4 162/1/4 172/1/4
f 163/1/4 164/1/4 173/1/4
f 172/2/4 163/2/4 173/2/4
f 164/2/4 165/2/4 174/2/4
f 173/1/4 164/1/4 174/1/4
f 165/1/4 166/1/4 175/1/4
f 174/2/4 165/2/4 175/2/4
f 166/4/4 167/4/4 176/4/4
f 175/1/4 166/1/4 176/1/4
f 167/1/4 168/1/4 177/1/4
f 176/4/4 167/4/4 177/4/4
f 177/1/4 168/1/4 178/1/4
f 169/1/4 170/1/4 179/1/4
f 179/1/4 170/1/4 180/1/4
f 181/4/4 182/4/4 183/4/4
f 183/4/4 182/4/4 184/4/4
f 187/4/5 186/4/5 185/4/5
f 188/4/5 186/4/5 187/4/5
f 191/1/5 190/1/5 189/1/5
f 192/1/5 190/1/5 191/1/5
f 193/1/5 191/1/5 189/1/5
f 194/1/5 190/1/5 192/1/5
f 195/1/5 193/1/5 189/1/5
f 195/1/5 194/1/5 193/1/5
f 196/1/5 190/1/5 194/1/5
f 196/1/5 194/1/5 195/1/5
f 201/4/5 198/4/5 197/4/5
f 202/4/5 198/4/5 201/4/5
f 203/4/5 200/4/5 199/4/5
f 204/4/5 200/4/5 203/4/5
f 205/4/5 201/4/5 197/4/5
f 206/4/5 200/4/5 204/4/5
f 207/4/5 205/4/5 197/4/5
f 207/4/5 206/4/5 205/4/5
f 208/4/5 200/4/5 206/4/5
f 208/4/5 206/4/5 207/4/5
f 213/4/5 210/4/5 209/4/5
f 214/4/5 210/4/5 213/4/5
f 215/4/5 212/4/5 211/4/5
f 216/4/5 212/4/5 215/4/5
f 217/4/6 218/4/6 221/4/6
f 221/4/6 218/4/6 222/4/6
f 219/4/6 220/4/6 223/4/6
f 223/4/6 220/4/6 224/4/6
f 217/4/6 221/4/6 225/4/6
f 224/4/6 220/4/6 226/4/6
f 217/4/6 225/4/6 227/4/6
f 225/4/6 226/4/6 227/4/6
f 226/4/6 220/4/6 228/4/6
f 227/4/6 226/4/6 228/4/6
f 229/1/6 230/1/6 233/1/6
f 231/1/6 232/1/6 233/1/6
f 230/1/6 231/1/6 233/1/6
f 233/1/6 232/1/6 234/1/6
f 235/4/6 236/4/6 239/4/6
f 239/4/6 236/4/6 240/4/6
f 237/4/6 238/4/6 241/4/6
f 241/4/6 238/4/6 242/4/6
