# MagicaVoxel @ ephtracy

# material
mtllib Turret.mtl
usemtl palette

# normals
vn -1 0 0
vn 1 0 0
vn 0 0 1
vn 0 0 -1
vn 0 -1 0
vn 0 1 0

# texcoords
vt 0.294922 0.5
vt 0.302734 0.5
vt 0.544922 0.5

# verts
v -3.5 1 1.5
v -3.5 1 -1.5
v -3.5 2 -1.5
v -3.5 2 -4.5
v -3.5 5 -2.5
v -3.5 5 -4.5
v -3.5 5 -6.5
v -3.5 7 1.5
v -3.5 7 -2.5
v -3.5 7 -6.5
v -2.5 1 5.5
v -2.5 1 1.5
v -2.5 4 5.5
v -2.5 4 1.5
v -1.5 0 3.5
v -1.5 0 0.5
v -1.5 1 6.5
v -1.5 1 5.5
v -1.5 1 3.5
v -1.5 1 1.5
v -1.5 1 0.5
v -1.5 4 6.5
v -1.5 4 5.5
v 1.5 2 -3.5
v 1.5 2 -4.5
v 1.5 7 -3.5
v 1.5 7 -4.5
v 2.5 5 -4.5
v 2.5 5 -6.5
v 2.5 7 -4.5
v 2.5 7 -6.5
v -2.5 5 -4.5
v -2.5 5 -6.5
v -2.5 7 -4.5
v -2.5 7 -6.5
v -1.5 2 -3.5
v -1.5 2 -4.5
v -1.5 7 -3.5
v -1.5 7 -4.5
v 1.5 0 3.5
v 1.5 0 0.5
v 1.5 1 6.5
v 1.5 1 5.5
v 1.5 1 3.5
v 1.5 1 1.5
v 1.5 1 0.5
v 1.5 4 6.5
v 1.5 4 5.5
v 2.5 1 5.5
v 2.5 1 1.5
v 2.5 4 5.5
v 2.5 4 1.5
v 3.5 1 1.5
v 3.5 1 -1.5
v 3.5 2 -1.5
v 3.5 2 -4.5
v 3.5 5 -2.5
v 3.5 5 -4.5
v 3.5 5 -6.5
v 3.5 7 1.5
v 3.5 7 -2.5
v 3.5 7 -6.5
v -1.5 1 6.5
v -1.5 4 6.5
v 1.5 1 6.5
v 1.5 4 6.5
v -2.5 1 5.5
v -2.5 4 5.5
v -1.5 1 5.5
v -1.5 4 5.5
v 1.5 1 5.5
v 1.5 4 5.5
v 2.5 1 5.5
v 2.5 4 5.5
v -1.5 0 3.5
v -1.5 1 3.5
v 1.5 0 3.5
v 1.5 1 3.5
v -3.5 1 1.5
v -3.5 7 1.5
v -2.5 1 1.5
v -2.5 4 1.5
v -1.5 4 1.5
v -0.5 4 1.5
v -0.5 7 1.5
v 0.5 4 1.5
v 0.5 7 1.5
v 1.5 4 1.5
v 2.5 1 1.5
v 2.5 4 1.5
v 3.5 1 1.5
v 3.5 7 1.5
v -1.5 0 0.5
v -1.5 1 0.5
v 1.5 0 0.5
v 1.5 1 0.5
v -3.5 1 -1.5
v -3.5 2 -1.5
v 3.5 1 -1.5
v 3.5 2 -1.5
v -1.5 2 -3.5
v -1.5 7 -3.5
v 1.5 2 -3.5
v 1.5 7 -3.5
v -3.5 2 -4.5
v -3.5 5 -4.5
v -2.5 5 -4.5
v -2.5 7 -4.5
v -1.5 2 -4.5
v -1.5 7 -4.5
v 1.5 2 -4.5
v 1.5 7 -4.5
v 2.5 5 -4.5
v 2.5 7 -4.5
v 3.5 2 -4.5
v 3.5 5 -4.5
v -3.5 5 -6.5
v -3.5 7 -6.5
v -2.5 5 -6.5
v -2.5 7 -6.5
v 2.5 5 -6.5
v 2.5 7 -6.5
v 3.5 5 -6.5
v 3.5 7 -6.5
v -1.5 0 3.5
v 1.5 0 3.5
v -1.5 0 0.5
v 1.5 0 0.5
v -1.5 1 6.5
v 1.5 1 6.5
v -2.5 1 5.5
v -1.5 1 5.5
v 1.5 1 5.5
v 2.5 1 5.5
v -1.5 1 3.5
v 1.5 1 3.5
v -3.5 1 1.5
v -2.5 1 1.5
v -1.5 1 1.5
v 1.5 1 1.5
v 2.5 1 1.5
v 3.5 1 1.5
v -1.5 1 0.5
v 1.5 1 0.5
v -3.5 1 -1.5
v 3.5 1 -1.5
v -3.5 2 -1.5
v 3.5 2 -1.5
v -1.5 2 -2.5
v 1.5 2 -2.5
v -1.5 2 -3.5
v 1.5 2 -3.5
v -3.5 2 -4.5
v -1.5 2 -4.5
v 1.5 2 -4.5
v 3.5 2 -4.5
v -3.5 5 -4.5
v -2.5 5 -4.5
v 2.5 5 -4.5
v 3.5 5 -4.5
v -3.5 5 -6.5
v -2.5 5 -6.5
v 2.5 5 -6.5
v 3.5 5 -6.5
v -1.5 4 6.5
v 1.5 4 6.5
v -2.5 4 5.5
v -1.5 4 5.5
v 1.5 4 5.5
v 2.5 4 5.5
v -2.5 4 1.5
v -1.5 4 1.5
v -0.5 4 1.5
v 0.5 4 1.5
v 1.5 4 1.5
v 2.5 4 1.5
v -3.5 7 1.5
v -0.5 7 1.5
v 0.5 7 1.5
v 3.5 7 1.5
v -1.5 7 -1.5
v -0.5 7 -1.5
v 0.5 7 -1.5
v 1.5 7 -1.5
v -3.5 7 -2.5
v -2.5 7 -2.5
v 2.5 7 -2.5
v 3.5 7 -2.5
v -1.5 7 -3.5
v 1.5 7 -3.5
v -2.5 7 -4.5
v -1.5 7 -4.5
v 1.5 7 -4.5
v 2.5 7 -4.5
v -3.5 7 -6.5
v -2.5 7 -6.5
v 2.5 7 -6.5
v 3.5 7 -6.5

# faces
f 3/1/1 2/1/1 1/1/1
f 5/1/1 4/1/1 3/1/1
f 6/1/1 4/1/1 5/1/1
f 8/1/1 3/1/1 1/1/1
f 8/1/1 5/1/1 3/1/1
f 9/2/1 7/2/1 6/2/1
f 9/1/1 5/1/1 8/1/1
f 9/2/1 6/2/1 5/2/1
f 10/2/1 7/2/1 9/2/1
f 13/2/1 12/2/1 11/2/1
f 14/2/1 12/2/1 13/2/1
f 19/3/1 16/3/1 15/3/1
f 20/3/1 16/3/1 19/3/1
f 21/3/1 16/3/1 20/3/1
f 22/3/1 18/3/1 17/3/1
f 23/3/1 18/3/1 22/3/1
f 26/1/1 25/1/1 24/1/1
f 27/1/1 25/1/1 26/1/1
f 30/2/1 29/2/1 28/2/1
f 31/2/1 29/2/1 30/2/1
f 32/2/2 33/2/2 34/2/2
f 34/2/2 33/2/2 35/2/2
f 36/1/2 37/1/2 38/1/2
f 38/1/2 37/1/2 39/1/2
f 40/3/2 41/3/2 44/3/2
f 44/3/2 41/3/2 45/3/2
f 45/3/2 41/3/2 46/3/2
f 42/3/2 43/3/2 47/3/2
f 47/3/2 43/3/2 48/3/2
f 49/2/2 50/2/2 51/2/2
f 51/2/2 50/2/2 52/2/2
f 53/1/2 54/1/2 55/1/2
f 55/1/2 56/1/2 57/1/2
f 57/1/2 56/1/2 58/1/2
f 53/1/2 55/1/2 60/1/2
f 55/1/2 57/1/2 60/1/2
f 58/2/2 59/2/2 61/2/2
f 60/1/2 57/1/2 61/1/2
f 57/2/2 58/2/2 61/2/2
f 61/2/2 59/2/2 62/2/2
f 65/3/3 64/3/3 63/3/3
f 66/3/3 64/3/3 65/3/3
f 69/2/3 68/2/3 67/2/3
f 70/2/3 68/2/3 69/2/3
f 73/2/3 72/2/3 71/2/3
f 74/2/3 72/2/3 73/2/3
f 77/3/3 76/3/3 75/3/3
f 78/3/3 76/3/3 77/3/3
f 81/1/3 80/1/3 79/1/3
f 82/1/3 80/1/3 81/1/3
f 83/1/3 80/1/3 82/1/3
f 84/1/3 80/1/3 83/1/3
f 85/1/3 80/1/3 84/1/3
f 86/3/3 85/3/3 84/3/3
f 87/3/3 85/3/3 86/3/3
f 88/1/3 87/1/3 86/1/3
f 90/1/3 87/1/3 88/1/3
f 91/1/3 90/1/3 89/1/3
f 92/1/3 87/1/3 90/1/3
f 92/1/3 90/1/3 91/1/3
f 93/3/4 94/3/4 95/3/4
f 95/3/4 94/3/4 96/3/4
f 97/1/4 98/1/4 99/1/4
f 99/1/4 98/1/4 100/1/4
f 101/3/4 102/3/4 103/3/4
f 103/3/4 102/3/4 104/3/4
f 105/1/4 106/1/4 107/1/4
f 105/1/4 107/1/4 109/1/4
f 107/1/4 108/1/4 109/1/4
f 109/1/4 108/1/4 110/1/4
f 111/1/4 112/1/4 113/1/4
f 113/1/4 112/1/4 114/1/4
f 111/1/4 113/1/4 115/1/4
f 115/1/4 113/1/4 116/1/4
f 117/2/4 118/2/4 119/2/4
f 119/2/4 118/2/4 120/2/4
f 121/2/4 122/2/4 123/2/4
f 123/2/4 122/2/4 124/2/4
f 127/3/5 126/3/5 125/3/5
f 128/3/5 126/3/5 127/3/5
f 132/3/5 130/3/5 129/3/5
f 133/3/5 130/3/5 132/3/5
f 135/2/5 132/2/5 131/2/5
f 135/1/5 133/1/5 132/1/5
f 136/2/5 134/2/5 133/2/5
f 136/1/5 133/1/5 135/1/5
f 138/2/5 135/2/5 131/2/5
f 139/2/5 135/2/5 138/2/5
f 140/2/5 134/2/5 136/2/5
f 141/2/5 134/2/5 140/2/5
f 143/1/5 139/1/5 138/1/5
f 143/1/5 138/1/5 137/1/5
f 144/1/5 142/1/5 141/1/5
f 144/1/5 141/1/5 140/1/5
f 145/1/5 143/1/5 137/1/5
f 145/1/5 144/1/5 143/1/5
f 146/1/5 142/1/5 144/1/5
f 146/1/5 144/1/5 145/1/5
f 149/1/5 148/1/5 147/1/5
f 150/1/5 148/1/5 149/1/5
f 151/1/5 149/1/5 147/1/5
f 151/3/5 150/3/5 149/3/5
f 152/1/5 148/1/5 150/1/5
f 152/3/5 150/3/5 151/3/5
f 153/1/5 151/1/5 147/1/5
f 154/1/5 151/1/5 153/1/5
f 155/1/5 148/1/5 152/1/5
f 156/1/5 148/1/5 155/1/5
f 161/2/5 158/2/5 157/2/5
f 162/2/5 158/2/5 161/2/5
f 163/2/5 160/2/5 159/2/5
f 164/2/5 160/2/5 163/2/5
f 165/3/6 166/3/6 168/3/6
f 168/3/6 166/3/6 169/3/6
f 167/2/6 168/2/6 171/2/6
f 168/3/6 169/3/6 172/3/6
f 171/2/6 168/2/6 172/2/6
f 172/3/6 169/3/6 173/3/6
f 173/3/6 169/3/6 174/3/6
f 169/2/6 170/2/6 175/2/6
f 174/3/6 169/3/6 175/3/6
f 175/2/6 170/2/6 176/2/6
f 177/1/6 178/1/6 181/1/6
f 178/3/6 179/3/6 182/3/6
f 181/1/6 178/1/6 182/1/6
f 179/1/6 180/1/6 183/1/6
f 182/3/6 179/3/6 183/3/6
f 183/1/6 180/1/6 184/1/6
f 177/1/6 181/1/6 185/1/6
f 185/1/6 181/1/6 186/1/6
f 184/1/6 180/1/6 187/1/6
f 187/1/6 180/1/6 188/1/6
f 181/3/6 182/3/6 189/3/6
f 186/1/6 181/1/6 189/1/6
f 182/3/6 183/3/6 189/3/6
f 183/3/6 184/3/6 189/3/6
f 184/1/6 187/1/6 190/1/6
f 189/3/6 184/3/6 190/3/6
f 186/1/6 189/1/6 191/1/6
f 185/2/6 186/2/6 191/2/6
f 191/1/6 189/1/6 192/1/6
f 190/1/6 187/1/6 193/1/6
f 187/2/6 188/2/6 194/2/6
f 193/1/6 187/1/6 194/1/6
f 185/2/6 191/2/6 195/2/6
f 195/2/6 191/2/6 196/2/6
f 194/2/6 188/2/6 197/2/6
f 197/2/6 188/2/6 198/2/6
