# MagicaVoxel @ ephtracy

# material
mtllib Base.mtl
usemtl palette

# normals
vn -1 0 0
vn 1 0 0
vn 0 0 1
vn 0 0 -1
vn 0 -1 0
vn 0 1 0

# texcoords
vt 0.294922 0.5
vt 0.302734 0.5
vt 0.544922 0.5
vt 0.634766 0.5

# verts
v -10.5 5 2.5
v -10.5 5 -2.5
v -10.5 6 2.5
v -10.5 6 -2.5
v -10.5 11 2.5
v -10.5 11 -2.5
v -10.5 12 2.5
v -10.5 12 -2.5
v -4.5 0 1.5
v -4.5 0 0.5
v -4.5 0 -0.5
v -4.5 0 -1.5
v -4.5 1 4.5
v -4.5 1 2.5
v -4.5 1 -2.5
v -4.5 1 -4.5
v -4.5 3 4.5
v -4.5 3 2.5
v -4.5 3 -2.5
v -4.5 3 -4.5
v -4.5 5 1.5
v -4.5 5 0.5
v -4.5 5 -0.5
v -4.5 5 -1.5
v -4.5 6 1.5
v -4.5 6 0.5
v -4.5 6 -0.5
v -4.5 6 -1.5
v -4.5 9 4.5
v -4.5 9 1.5
v -4.5 9 -1.5
v -4.5 9 -4.5
v -4.5 10 4.5
v -4.5 10 1.5
v -4.5 10 -1.5
v -4.5 10 -4.5
v -4.5 11 1.5
v -4.5 11 0.5
v -4.5 11 -0.5
v -4.5 11 -1.5
v -3.5 1 2.5
v -3.5 1 1.5
v -3.5 1 -1.5
v -3.5 1 -2.5
v -3.5 3 2.5
v -3.5 3 1.5
v -3.5 3 -1.5
v -3.5 3 -2.5
v -3.5 3 -3.5
v -3.5 4 2.5
v -3.5 4 1.5
v -3.5 4 -1.5
v -3.5 4 -3.5
v -3.5 5 2.5
v -3.5 5 1.5
v -3.5 5 -1.5
v -3.5 5 -3.5
v -3.5 6 2.5
v -3.5 6 1.5
v -3.5 6 -1.5
v -3.5 6 -3.5
v -3.5 7 2.5
v -3.5 7 1.5
v -3.5 7 -1.5
v -3.5 7 -3.5
v -1.5 0 -1.5
v -1.5 0 -4.5
v -1.5 1 -1.5
v -1.5 1 -3.5
v -1.5 3 -3.5
v -1.5 4 -3.5
v -1.5 5 -3.5
v -1.5 6 -3.5
v -1.5 7 -3.5
v -1.5 9 -3.5
v -1.5 9 -4.5
v 2.5 1 4.5
v 2.5 1 3.5
v 2.5 1 -3.5
v 2.5 1 -4.5
v 2.5 3 4.5
v 2.5 3 3.5
v 2.5 3 -3.5
v 2.5 3 -4.5
v 3.5 7 1.5
v 3.5 7 0.5
v 3.5 7 -0.5
v 3.5 7 -1.5
v 3.5 9 3.5
v 3.5 9 1.5
v 3.5 9 -1.5
v 3.5 9 -3.5
v 3.5 10 3.5
v 3.5 10 1.5
v 3.5 10 -1.5
v 3.5 10 -3.5
v 3.5 12 1.5
v 3.5 12 0.5
v 3.5 12 -0.5
v 3.5 12 -1.5
v 5.5 5 2.5
v 5.5 5 1.5
v 5.5 5 -1.5
v 5.5 5 -2.5
v 5.5 6 2.5
v 5.5 6 1.5
v 5.5 6 -1.5
v 5.5 6 -2.5
v 5.5 11 2.5
v 5.5 11 1.5
v 5.5 11 -1.5
v 5.5 11 -2.5
v 5.5 12 2.5
v 5.5 12 1.5
v 5.5 12 -1.5
v 5.5 12 -2.5
v -5.5 5 2.5
v -5.5 5 1.5
v -5.5 5 -1.5
v -5.5 5 -2.5
v -5.5 6 2.5
v -5.5 6 1.5
v -5.5 6 -1.5
v -5.5 6 -2.5
v -5.5 11 2.5
v -5.5 11 1.5
v -5.5 11 -1.5
v -5.5 11 -2.5
v -5.5 12 2.5
v -5.5 12 1.5
v -5.5 12 -1.5
v -5.5 12 -2.5
v -3.5 7 1.5
v -3.5 7 0.5
v -3.5 7 -0.5
v -3.5 7 -1.5
v -3.5 9 3.5
v -3.5 9 1.5
v -3.5 9 -1.5
v -3.5 9 -3.5
v -3.5 10 3.5
v -3.5 10 1.5
v -3.5 10 -1.5
v -3.5 10 -3.5
v -3.5 12 1.5
v -3.5 12 0.5
v -3.5 12 -0.5
v -3.5 12 -1.5
v -2.5 1 4.5
v -2.5 1 3.5
v -2.5 1 -3.5
v -2.5 1 -4.5
v -2.5 3 4.5
v -2.5 3 3.5
v -2.5 3 -3.5
v -2.5 3 -4.5
v 1.5 0 -1.5
v 1.5 0 -4.5
v 1.5 1 -1.5
v 1.5 1 -3.5
v 1.5 3 -3.5
v 1.5 4 -3.5
v 1.5 5 -3.5
v 1.5 6 -3.5
v 1.5 7 -3.5
v 1.5 9 -3.5
v 1.5 9 -4.5
v 3.5 1 2.5
v 3.5 1 1.5
v 3.5 1 -1.5
v 3.5 1 -2.5
v 3.5 3 2.5
v 3.5 3 1.5
v 3.5 3 -1.5
v 3.5 3 -2.5
v 3.5 3 -3.5
v 3.5 4 2.5
v 3.5 4 1.5
v 3.5 4 -1.5
v 3.5 4 -3.5
v 3.5 5 2.5
v 3.5 5 1.5
v 3.5 5 -1.5
v 3.5 5 -3.5
v 3.5 6 2.5
v 3.5 6 1.5
v 3.5 6 -1.5
v 3.5 6 -3.5
v 3.5 7 2.5
v 3.5 7 1.5
v 3.5 7 -1.5
v 3.5 7 -3.5
v 4.5 0 1.5
v 4.5 0 0.5
v 4.5 0 -0.5
v 4.5 0 -1.5
v 4.5 1 4.5
v 4.5 1 2.5
v 4.5 1 -2.5
v 4.5 1 -4.5
v 4.5 3 4.5
v 4.5 3 2.5
v 4.5 3 -2.5
v 4.5 3 -4.5
v 4.5 5 1.5
v 4.5 5 0.5
v 4.5 5 -0.5
v 4.5 5 -1.5
v 4.5 6 1.5
v 4.5 6 0.5
v 4.5 6 -0.5
v 4.5 6 -1.5
v 4.5 9 4.5
v 4.5 9 1.5
v 4.5 9 -1.5
v 4.5 9 -4.5
v 4.5 10 4.5
v 4.5 10 1.5
v 4.5 10 -1.5
v 4.5 10 -4.5
v 4.5 11 1.5
v 4.5 11 0.5
v 4.5 11 -0.5
v 4.5 11 -1.5
v 10.5 5 2.5
v 10.5 5 -2.5
v 10.5 6 2.5
v 10.5 6 -2.5
v 10.5 11 2.5
v 10.5 11 -2.5
v 10.5 12 2.5
v 10.5 12 -2.5
v -4.5 1 4.5
v -4.5 3 4.5
v -4.5 9 4.5
v -4.5 10 4.5
v -2.5 1 4.5
v -2.5 3 4.5
v 2.5 1 4.5
v 2.5 3 4.5
v 4.5 1 4.5
v 4.5 3 4.5
v 4.5 9 4.5
v 4.5 10 4.5
v -2.5 1 3.5
v -2.5 3 3.5
v 2.5 1 3.5
v 2.5 3 3.5
v -10.5 5 2.5
v -10.5 6 2.5
v -10.5 11 2.5
v -10.5 12 2.5
v -5.5 5 2.5
v -5.5 6 2.5
v -5.5 11 2.5
v -5.5 12 2.5
v -3.5 3 2.5
v -3.5 4 2.5
v -3.5 5 2.5
v -3.5 6 2.5
v -3.5 7 2.5
v 3.5 3 2.5
v 3.5 4 2.5
v 3.5 5 2.5
v 3.5 6 2.5
v 3.5 7 2.5
v 5.5 5 2.5
v 5.5 6 2.5
v 5.5 11 2.5
v 5.5 12 2.5
v 10.5 5 2.5
v 10.5 6 2.5
v 10.5 11 2.5
v 10.5 12 2.5
v -5.5 5 1.5
v -5.5 6 1.5
v -5.5 11 1.5
v -5.5 12 1.5
v -4.5 0 1.5
v -4.5 5 1.5
v -4.5 6 1.5
v -4.5 9 1.5
v -4.5 10 1.5
v -4.5 11 1.5
v -3.5 1 1.5
v -3.5 3 1.5
v -3.5 4 1.5
v -3.5 5 1.5
v -3.5 6 1.5
v -3.5 7 1.5
v -3.5 9 1.5
v -3.5 10 1.5
v -3.5 12 1.5
v 3.5 1 1.5
v 3.5 3 1.5
v 3.5 4 1.5
v 3.5 5 1.5
v 3.5 6 1.5
v 3.5 7 1.5
v 3.5 9 1.5
v 3.5 10 1.5
v 3.5 12 1.5
v 4.5 0 1.5
v 4.5 5 1.5
v 4.5 6 1.5
v 4.5 9 1.5
v 4.5 10 1.5
v 4.5 11 1.5
v 5.5 5 1.5
v 5.5 6 1.5
v 5.5 11 1.5
v 5.5 12 1.5
v -4.5 1 -2.5
v -4.5 3 -2.5
v -3.5 1 -2.5
v -3.5 3 -2.5
v 3.5 1 -2.5
v 3.5 3 -2.5
v 4.5 1 -2.5
v 4.5 3 -2.5
v -3.5 9 -3.5
v -3.5 10 -3.5
v -1.5 7 -3.5
v -1.5 9 -3.5
v -0.5 7 -3.5
v -0.5 9 -3.5
v 0.5 7 -3.5
v 0.5 9 -3.5
v 1.5 7 -3.5
v 1.5 9 -3.5
v 3.5 9 -3.5
v 3.5 10 -3.5
v -3.5 9 3.5
v -3.5 10 3.5
v 3.5 9 3.5
v 3.5 10 3.5
v -4.5 1 2.5
v -4.5 3 2.5
v -3.5 1 2.5
v -3.5 3 2.5
v 3.5 1 2.5
v 3.5 3 2.5
v 4.5 1 2.5
v 4.5 3 2.5
v -5.5 5 -1.5
v -5.5 6 -1.5
v -5.5 11 -1.5
v -5.5 12 -1.5
v -4.5 0 -1.5
v -4.5 5 -1.5
v -4.5 6 -1.5
v -4.5 9 -1.5
v -4.5 10 -1.5
v -4.5 11 -1.5
v -3.5 1 -1.5
v -3.5 3 -1.5
v -3.5 4 -1.5
v -3.5 5 -1.5
v -3.5 6 -1.5
v -3.5 7 -1.5
v -3.5 9 -1.5
v -3.5 10 -1.5
v -3.5 12 -1.5
v -1.5 0 -1.5
v -1.5 1 -1.5
v 1.5 0 -1.5
v 1.5 1 -1.5
v 3.5 1 -1.5
v 3.5 3 -1.5
v 3.5 4 -1.5
v 3.5 5 -1.5
v 3.5 6 -1.5
v 3.5 7 -1.5
v 3.5 9 -1.5
v 3.5 10 -1.5
v 3.5 12 -1.5
v 4.5 0 -1.5
v 4.5 5 -1.5
v 4.5 6 -1.5
v 4.5 9 -1.5
v 4.5 10 -1.5
v 4.5 11 -1.5
v 5.5 5 -1.5
v 5.5 6 -1.5
v 5.5 11 -1.5
v 5.5 12 -1.5
v -10.5 5 -2.5
v -10.5 6 -2.5
v -10.5 11 -2.5
v -10.5 12 -2.5
v -5.5 5 -2.5
v -5.5 6 -2.5
v -5.5 11 -2.5
v -5.5 12 -2.5
v 5.5 5 -2.5
v 5.5 6 -2.5
v 5.5 11 -2.5
v 5.5 12 -2.5
v 10.5 5 -2.5
v 10.5 6 -2.5
v 10.5 11 -2.5
v 10.5 12 -2.5
v -3.5 3 -3.5
v -3.5 4 -3.5
v -3.5 5 -3.5
v -3.5 6 -3.5
v -3.5 7 -3.5
v -2.5 1 -3.5
v -2.5 3 -3.5
v -1.5 1 -3.5
v -1.5 3 -3.5
v -1.5 4 -3.5
v -1.5 5 -3.5
v -1.5 6 -3.5
v -1.5 7 -3.5
v 1.5 1 -3.5
v 1.5 3 -3.5
v 1.5 4 -3.5
v 1.5 5 -3.5
v 1.5 6 -3.5
v 1.5 7 -3.5
v 2.5 1 -3.5
v 2.5 3 -3.5
v 3.5 3 -3.5
v 3.5 4 -3.5
v 3.5 5 -3.5
v 3.5 6 -3.5
v 3.5 7 -3.5
v -4.5 1 -4.5
v -4.5 3 -4.5
v -4.5 9 -4.5
v -4.5 10 -4.5
v -2.5 1 -4.5
v -2.5 3 -4.5
v -1.5 0 -4.5
v -1.5 9 -4.5
v -0.5 0 -4.5
v -0.5 9 -4.5
v 0.5 0 -4.5
v 0.5 9 -4.5
v 1.5 0 -4.5
v 1.5 9 -4.5
v 2.5 1 -4.5
v 2.5 3 -4.5
v 4.5 1 -4.5
v 4.5 3 -4.5
v 4.5 9 -4.5
v 4.5 10 -4.5
v -4.5 0 1.5
v 4.5 0 1.5
v -4.5 0 0.5
v 4.5 0 0.5
v -4.5 0 -0.5
v -0.5 0 -0.5
v 0.5 0 -0.5
v 4.5 0 -0.5
v -4.5 0 -1.5
v -1.5 0 -1.5
v 1.5 0 -1.5
v 4.5 0 -1.5
v -1.5 0 -4.5
v -0.5 0 -4.5
v 0.5 0 -4.5
v 1.5 0 -4.5
v -4.5 1 4.5
v -2.5 1 4.5
v 2.5 1 4.5
v 4.5 1 4.5
v -2.5 1 3.5
v 2.5 1 3.5
v -4.5 1 2.5
v -3.5 1 2.5
v 3.5 1 2.5
v 4.5 1 2.5
v -3.5 1 1.5
v 3.5 1 1.5
v -3.5 1 -1.5
v -1.5 1 -1.5
v 1.5 1 -1.5
v 3.5 1 -1.5
v -4.5 1 -2.5
v -3.5 1 -2.5
v 3.5 1 -2.5
v 4.5 1 -2.5
v -2.5 1 -3.5
v -1.5 1 -3.5
v 1.5 1 -3.5
v 2.5 1 -3.5
v -4.5 1 -4.5
v -2.5 1 -4.5
v 2.5 1 -4.5
v 4.5 1 -4.5
v -10.5 5 2.5
v -5.5 5 2.5
v 5.5 5 2.5
v 10.5 5 2.5
v -9.5 5 1.5
v -6.5 5 1.5
v -5.5 5 1.5
v -4.5 5 1.5
v 4.5 5 1.5
v 5.5 5 1.5
v 6.5 5 1.5
v 9.5 5 1.5
v -6.5 5 0.5
v -4.5 5 0.5
v 4.5 5 0.5
v 6.5 5 0.5
v -6.5 5 -0.5
v -4.5 5 -0.5
v 4.5 5 -0.5
v 6.5 5 -0.5
v -9.5 5 -1.5
v -6.5 5 -1.5
v -5.5 5 -1.5
v -4.5 5 -1.5
v 4.5 5 -1.5
v 5.5 5 -1.5
v 6.5 5 -1.5
v 9.5 5 -1.5
v -10.5 5 -2.5
v -5.5 5 -2.5
v 5.5 5 -2.5
v 10.5 5 -2.5
v -4.5 9 4.5
v 4.5 9 4.5
v -3.5 9 3.5
v 3.5 9 3.5
v -4.5 9 1.5
v -3.5 9 1.5
v 3.5 9 1.5
v 4.5 9 1.5
v -4.5 9 -1.5
v -3.5 9 -1.5
v 3.5 9 -1.5
v 4.5 9 -1.5
v -3.5 9 -3.5
v -1.5 9 -3.5
v 1.5 9 -3.5
v 3.5 9 -3.5
v -4.5 9 -4.5
v -1.5 9 -4.5
v 1.5 9 -4.5
v 4.5 9 -4.5
v -10.5 11 2.5
v -5.5 11 2.5
v 5.5 11 2.5
v 10.5 11 2.5
v -9.5 11 1.5
v -6.5 11 1.5
v -5.5 11 1.5
v -4.5 11 1.5
v 4.5 11 1.5
v 5.5 11 1.5
v 6.5 11 1.5
v 9.5 11 1.5
v -6.5 11 0.5
v -4.5 11 0.5
v 4.5 11 0.5
v 6.5 11 0.5
v -6.5 11 -0.5
v -4.5 11 -0.5
v 4.5 11 -0.5
v 6.5 11 -0.5
v -9.5 11 -1.5
v -6.5 11 -1.5
v -5.5 11 -1.5
v -4.5 11 -1.5
v 4.5 11 -1.5
v 5.5 11 -1.5
v 6.5 11 -1.5
v 9.5 11 -1.5
v -10.5 11 -2.5
v -5.5 11 -2.5
v 5.5 11 -2.5
v 10.5 11 -2.5
v -4.5 3 4.5
v -2.5 3 4.5
v 2.5 3 4.5
v 4.5 3 4.5
v -2.5 3 3.5
v 2.5 3 3.5
v -4.5 3 2.5
v -3.5 3 2.5
v 3.5 3 2.5
v 4.5 3 2.5
v -4.5 3 -2.5
v -3.5 3 -2.5
v 3.5 3 -2.5
v 4.5 3 -2.5
v -3.5 3 -3.5
v -2.5 3 -3.5
v 2.5 3 -3.5
v 3.5 3 -3.5
v -4.5 3 -4.5
v -2.5 3 -4.5
v 2.5 3 -4.5
v 4.5 3 -4.5
v -10.5 6 2.5
v -5.5 6 2.5
v 5.5 6 2.5
v 10.5 6 2.5
v -9.5 6 1.5
v -6.5 6 1.5
v -5.5 6 1.5
v -4.5 6 1.5
v 4.5 6 1.5
v 5.5 6 1.5
v 6.5 6 1.5
v 9.5 6 1.5
v -6.5 6 0.5
v -4.5 6 0.5
v 4.5 6 0.5
v 6.5 6 0.5
v -6.5 6 -0.5
v -4.5 6 -0.5
v 4.5 6 -0.5
v 6.5 6 -0.5
v -9.5 6 -1.5
v -6.5 6 -1.5
v -5.5 6 -1.5
v -4.5 6 -1.5
v 4.5 6 -1.5
v 5.5 6 -1.5
v 6.5 6 -1.5
v 9.5 6 -1.5
v -10.5 6 -2.5
v -5.5 6 -2.5
v 5.5 6 -2.5
v 10.5 6 -2.5
v -3.5 7 2.5
v 3.5 7 2.5
v -3.5 7 1.5
v 3.5 7 1.5
v -3.5 7 0.5
v 3.5 7 0.5
v -3.5 7 -0.5
v 3.5 7 -0.5
v -3.5 7 -1.5
v 3.5 7 -1.5
v -3.5 7 -3.5
v -1.5 7 -3.5
v -0.5 7 -3.5
v 0.5 7 -3.5
v 1.5 7 -3.5
v 3.5 7 -3.5
v -4.5 10 4.5
v 4.5 10 4.5
v -3.5 10 3.5
v 3.5 10 3.5
v -4.5 10 1.5
v -3.5 10 1.5
v 3.5 10 1.5
v 4.5 10 1.5
v -4.5 10 -1.5
v -3.5 10 -1.5
v 3.5 10 -1.5
v 4.5 10 -1.5
v -3.5 10 -3.5
v 3.5 10 -3.5
v -4.5 10 -4.5
v 4.5 10 -4.5
v -10.5 12 2.5
v -5.5 12 2.5
v 5.5 12 2.5
v 10.5 12 2.5
v -9.5 12 1.5
v -6.5 12 1.5
v -5.5 12 1.5
v -3.5 12 1.5
v 3.5 12 1.5
v 5.5 12 1.5
v 6.5 12 1.5
v 9.5 12 1.5
v -6.5 12 0.5
v -3.5 12 0.5
v 3.5 12 0.5
v 6.5 12 0.5
v -6.5 12 -0.5
v -3.5 12 -0.5
v 3.5 12 -0.5
v 6.5 12 -0.5
v -9.5 12 -1.5
v -6.5 12 -1.5
v -5.5 12 -1.5
v -3.5 12 -1.5
v 3.5 12 -1.5
v 5.5 12 -1.5
v 6.5 12 -1.5
v 9.5 12 -1.5
v -10.5 12 -2.5
v -5.5 12 -2.5
v 5.5 12 -2.5
v 10.5 12 -2.5

# faces
f 3/3/1 2/3/1 1/3/1
f 4/3/1 2/3/1 3/3/1
f 7/3/1 6/3/1 5/3/1
f 8/3/1 6/3/1 7/3/1
f 17/1/1 14/1/1 13/1/1
f 18/1/1 14/1/1 17/1/1
f 19/1/1 16/1/1 15/1/1
f 20/1/1 16/1/1 19/1/1
f 21/3/1 10/3/1 9/3/1
f 22/4/1 11/4/1 10/4/1
f 22/3/1 10/3/1 21/3/1
f 23/3/1 12/3/1 11/3/1
f 23/4/1 11/4/1 22/4/1
f 24/3/1 12/3/1 23/3/1
f 30/3/1 26/3/1 25/3/1
f 31/3/1 28/3/1 27/3/1
f 33/3/1 30/3/1 29/3/1
f 34/3/1 26/3/1 30/3/1
f 34/3/1 30/3/1 33/3/1
f 35/3/1 31/3/1 27/3/1
f 35/3/1 32/3/1 31/3/1
f 36/3/1 32/3/1 35/3/1
f 37/3/1 26/3/1 34/3/1
f 38/4/1 27/4/1 26/4/1
f 38/3/1 26/3/1 37/3/1
f 39/3/1 35/3/1 27/3/1
f 39/4/1 27/4/1 38/4/1
f 40/3/1 35/3/1 39/3/1
f 45/1/1 42/1/1 41/1/1
f 46/1/1 42/1/1 45/1/1
f 47/1/1 44/1/1 43/1/1
f 48/1/1 44/1/1 47/1/1
f 50/2/1 46/2/1 45/2/1
f 51/2/1 46/2/1 50/2/1
f 52/2/1 49/2/1 48/2/1
f 52/2/1 48/2/1 47/2/1
f 53/2/1 49/2/1 52/2/1
f 54/1/1 51/1/1 50/1/1
f 55/1/1 51/1/1 54/1/1
f 56/1/1 53/1/1 52/1/1
f 57/1/1 53/1/1 56/1/1
f 58/2/1 55/2/1 54/2/1
f 59/2/1 55/2/1 58/2/1
f 60/2/1 57/2/1 56/2/1
f 61/2/1 57/2/1 60/2/1
f 62/1/1 59/1/1 58/1/1
f 63/1/1 59/1/1 62/1/1
f 64/1/1 61/1/1 60/1/1
f 65/1/1 61/1/1 64/1/1
f 68/3/1 67/3/1 66/3/1
f 69/3/1 67/3/1 68/3/1
f 70/3/1 67/3/1 69/3/1
f 71/3/1 67/3/1 70/3/1
f 72/3/1 67/3/1 71/3/1
f 73/3/1 67/3/1 72/3/1
f 74/3/1 67/3/1 73/3/1
f 75/3/1 67/3/1 74/3/1
f 76/3/1 67/3/1 75/3/1
f 81/1/1 78/1/1 77/1/1
f 82/1/1 78/1/1 81/1/1
f 83/1/1 80/1/1 79/1/1
f 84/1/1 80/1/1 83/1/1
f 90/3/1 86/3/1 85/3/1
f 91/3/1 88/3/1 87/3/1
f 93/3/1 90/3/1 89/3/1
f 94/3/1 86/3/1 90/3/1
f 94/3/1 90/3/1 93/3/1
f 95/3/1 92/3/1 91/3/1
f 95/3/1 91/3/1 87/3/1
f 96/3/1 92/3/1 95/3/1
f 97/3/1 86/3/1 94/3/1
f 98/4/1 87/4/1 86/4/1
f 98/3/1 86/3/1 97/3/1
f 99/3/1 95/3/1 87/3/1
f 99/4/1 87/4/1 98/4/1
f 100/3/1 95/3/1 99/3/1
f 105/3/1 102/3/1 101/3/1
f 106/3/1 102/3/1 105/3/1
f 107/3/1 104/3/1 103/3/1
f 108/3/1 104/3/1 107/3/1
f 113/3/1 110/3/1 109/3/1
f 114/3/1 110/3/1 113/3/1
f 115/3/1 112/3/1 111/3/1
f 116/3/1 112/3/1 115/3/1
f 117/3/2 118/3/2 121/3/2
f 121/3/2 118/3/2 122/3/2
f 119/3/2 120/3/2 123/3/2
f 123/3/2 120/3/2 124/3/2
f 125/3/2 126/3/2 129/3/2
f 129/3/2 126/3/2 130/3/2
f 127/3/2 128/3/2 131/3/2
f 131/3/2 128/3/2 132/3/2
f 133/3/2 134/3/2 138/3/2
f 135/3/2 136/3/2 139/3/2
f 137/3/2 138/3/2 141/3/2
f 138/3/2 134/3/2 142/3/2
f 141/3/2 138/3/2 142/3/2
f 139/3/2 140/3/2 143/3/2
f 135/3/2 139/3/2 143/3/2
f 143/3/2 140/3/2 144/3/2
f 142/3/2 134/3/2 145/3/2
f 134/4/2 135/4/2 146/4/2
f 145/3/2 134/3/2 146/3/2
f 135/3/2 143/3/2 147/3/2
f 146/4/2 135/4/2 147/4/2
f 147/3/2 143/3/2 148/3/2
f 149/1/2 150/1/2 153/1/2
f 153/1/2 150/1/2 154/1/2
f 151/1/2 152/1/2 155/1/2
f 155/1/2 152/1/2 156/1/2
f 157/3/2 158/3/2 159/3/2
f 159/3/2 158/3/2 160/3/2
f 160/3/2 158/3/2 161/3/2
f 161/3/2 158/3/2 162/3/2
f 162/3/2 158/3/2 163/3/2
f 163/3/2 158/3/2 164/3/2
f 164/3/2 158/3/2 165/3/2
f 165/3/2 158/3/2 166/3/2
f 166/3/2 158/3/2 167/3/2
f 168/1/2 169/1/2 172/1/2
f 172/1/2 169/1/2 173/1/2
f 170/1/2 171/1/2 174/1/2
f 174/1/2 171/1/2 175/1/2
f 172/2/2 173/2/2 177/2/2
f 177/2/2 173/2/2 178/2/2
f 175/2/2 176/2/2 179/2/2
f 174/2/2 175/2/2 179/2/2
f 179/2/2 176/2/2 180/2/2
f 177/1/2 178/1/2 181/1/2
f 181/1/2 178/1/2 182/1/2
f 179/1/2 180/1/2 183/1/2
f 183/1/2 180/1/2 184/1/2
f 181/2/2 182/2/2 185/2/2
f 185/2/2 182/2/2 186/2/2
f 183/2/2 184/2/2 187/2/2
f 187/2/2 184/2/2 188/2/2
f 185/1/2 186/1/2 189/1/2
f 189/1/2 186/1/2 190/1/2
f 187/1/2 188/1/2 191/1/2
f 191/1/2 188/1/2 192/1/2
f 197/1/2 198/1/2 201/1/2
f 201/1/2 198/1/2 202/1/2
f 199/1/2 200/1/2 203/1/2
f 203/1/2 200/1/2 204/1/2
f 193/3/2 194/3/2 205/3/2
f 194/4/2 195/4/2 206/4/2
f 205/3/2 194/3/2 206/3/2
f 195/3/2 196/3/2 207/3/2
f 206/4/2 195/4/2 207/4/2
f 207/3/2 196/3/2 208/3/2
f 209/3/2 210/3/2 214/3/2
f 211/3/2 212/3/2 215/3/2
f 213/3/2 214/3/2 217/3/2
f 214/3/2 210/3/2 218/3/2
f 217/3/2 214/3/2 218/3/2
f 211/3/2 215/3/2 219/3/2
f 215/3/2 216/3/2 219/3/2
f 219/3/2 216/3/2 220/3/2
f 218/3/2 210/3/2 221/3/2
f 210/4/2 211/4/2 222/4/2
f 221/3/2 210/3/2 222/3/2
f 211/3/2 219/3/2 223/3/2
f 222/4/2 211/4/2 223/4/2
f 223/3/2 219/3/2 224/3/2
f 225/3/2 226/3/2 227/3/2
f 227/3/2 226/3/2 228/3/2
f 229/3/2 230/3/2 231/3/2
f 231/3/2 230/3/2 232/3/2
f 237/1/3 234/1/3 233/1/3
f 238/1/3 234/1/3 237/1/3
f 241/1/3 240/1/3 239/1/3
f 242/1/3 240/1/3 241/1/3
f 243/3/3 236/3/3 235/3/3
f 244/3/3 236/3/3 243/3/3
f 247/1/3 246/1/3 245/1/3
f 248/1/3 246/1/3 247/1/3
f 253/3/3 250/3/3 249/3/3
f 254/3/3 250/3/3 253/3/3
f 255/3/3 252/3/3 251/3/3
f 256/3/3 252/3/3 255/3/3
f 262/2/3 258/2/3 257/2/3
f 263/1/3 259/1/3 258/1/3
f 263/2/3 258/2/3 262/2/3
f 264/2/3 260/2/3 259/2/3
f 264/1/3 259/1/3 263/1/3
f 265/1/3 261/1/3 260/1/3
f 265/2/3 260/2/3 264/2/3
f 266/1/3 261/1/3 265/1/3
f 271/3/3 268/3/3 267/3/3
f 272/3/3 268/3/3 271/3/3
f 273/3/3 270/3/3 269/3/3
f 274/3/3 270/3/3 273/3/3
f 280/3/3 276/3/3 275/3/3
f 281/3/3 276/3/3 280/3/3
f 284/3/3 278/3/3 277/3/3
f 285/3/3 282/3/3 281/3/3
f 285/3/3 280/3/3 279/3/3
f 285/3/3 281/3/3 280/3/3
f 286/3/3 282/3/3 285/3/3
f 287/3/3 282/3/3 286/3/3
f 288/3/3 282/3/3 287/3/3
f 289/3/3 282/3/3 288/3/3
f 290/3/3 282/3/3 289/3/3
f 291/3/3 282/3/3 290/3/3
f 292/3/3 284/3/3 283/3/3
f 293/3/3 278/3/3 284/3/3
f 293/3/3 284/3/3 292/3/3
f 294/3/3 285/3/3 279/3/3
f 303/3/3 294/3/3 279/3/3
f 303/3/3 295/3/3 294/3/3
f 303/3/3 300/3/3 299/3/3
f 303/3/3 299/3/3 298/3/3
f 303/3/3 298/3/3 297/3/3
f 303/3/3 297/3/3 296/3/3
f 303/3/3 296/3/3 295/3/3
f 304/3/3 300/3/3 303/3/3
f 305/3/3 300/3/3 304/3/3
f 306/3/3 300/3/3 305/3/3
f 307/3/3 302/3/3 301/3/3
f 308/3/3 302/3/3 307/3/3
f 309/3/3 305/3/3 304/3/3
f 310/3/3 305/3/3 309/3/3
f 311/3/3 302/3/3 308/3/3
f 312/3/3 302/3/3 311/3/3
f 315/1/3 314/1/3 313/1/3
f 316/1/3 314/1/3 315/1/3
f 319/1/3 318/1/3 317/1/3
f 320/1/3 318/1/3 319/1/3
f 324/3/3 322/3/3 321/3/3
f 325/3/3 324/3/3 323/3/3
f 326/3/3 322/3/3 324/3/3
f 326/3/3 324/3/3 325/3/3
f 327/4/3 326/4/3 325/4/3
f 328/3/3 322/3/3 326/3/3
f 328/4/3 326/4/3 327/4/3
f 329/3/3 328/3/3 327/3/3
f 330/3/3 322/3/3 328/3/3
f 330/3/3 328/3/3 329/3/3
f 331/3/3 322/3/3 330/3/3
f 332/3/3 322/3/3 331/3/3
f 333/3/4 334/3/4 335/3/4
f 335/3/4 334/3/4 336/3/4
f 337/1/4 338/1/4 339/1/4
f 339/1/4 338/1/4 340/1/4
f 341/1/4 342/1/4 343/1/4
f 343/1/4 342/1/4 344/1/4
f 345/3/4 346/3/4 350/3/4
f 350/3/4 346/3/4 351/3/4
f 347/3/4 348/3/4 354/3/4
f 351/3/4 352/3/4 355/3/4
f 349/3/4 350/3/4 355/3/4
f 350/3/4 351/3/4 355/3/4
f 355/3/4 352/3/4 356/3/4
f 356/3/4 352/3/4 357/3/4
f 357/3/4 352/3/4 358/3/4
f 358/3/4 352/3/4 359/3/4
f 359/3/4 352/3/4 360/3/4
f 360/3/4 352/3/4 361/3/4
f 353/3/4 354/3/4 362/3/4
f 354/3/4 348/3/4 363/3/4
f 362/3/4 354/3/4 363/3/4
f 349/3/4 355/3/4 364/3/4
f 364/3/4 355/3/4 365/3/4
f 366/3/4 367/3/4 368/3/4
f 366/3/4 368/3/4 377/3/4
f 368/3/4 369/3/4 377/3/4
f 373/3/4 374/3/4 377/3/4
f 372/3/4 373/3/4 377/3/4
f 371/3/4 372/3/4 377/3/4
f 370/3/4 371/3/4 377/3/4
f 369/3/4 370/3/4 377/3/4
f 377/3/4 374/3/4 378/3/4
f 378/3/4 374/3/4 379/3/4
f 379/3/4 374/3/4 380/3/4
f 375/3/4 376/3/4 381/3/4
f 381/3/4 376/3/4 382/3/4
f 378/3/4 379/3/4 383/3/4
f 383/3/4 379/3/4 384/3/4
f 382/3/4 376/3/4 385/3/4
f 385/3/4 376/3/4 386/3/4
f 387/3/4 388/3/4 391/3/4
f 391/3/4 388/3/4 392/3/4
f 389/3/4 390/3/4 393/3/4
f 393/3/4 390/3/4 394/3/4
f 395/3/4 396/3/4 399/3/4
f 399/3/4 396/3/4 400/3/4
f 397/3/4 398/3/4 401/3/4
f 401/3/4 398/3/4 402/3/4
f 403/2/4 404/2/4 409/2/4
f 408/1/4 409/1/4 410/1/4
f 409/2/4 404/2/4 411/2/4
f 410/1/4 409/1/4 411/1/4
f 404/1/4 405/1/4 412/1/4
f 411/2/4 404/2/4 412/2/4
f 405/2/4 406/2/4 413/2/4
f 412/1/4 405/1/4 413/1/4
f 406/1/4 407/1/4 414/1/4
f 413/2/4 406/2/4 414/2/4
f 414/1/4 407/1/4 415/1/4
f 416/1/4 417/1/4 422/1/4
f 417/2/4 418/2/4 423/2/4
f 422/1/4 417/1/4 423/1/4
f 423/2/4 418/2/4 424/2/4
f 418/1/4 419/1/4 425/1/4
f 424/2/4 418/2/4 425/2/4
f 419/2/4 420/2/4 426/2/4
f 425/1/4 419/1/4 426/1/4
f 420/1/4 421/1/4 427/1/4
f 426/2/4 420/2/4 427/2/4
f 427/1/4 421/1/4 428/1/4
f 429/1/4 430/1/4 433/1/4
f 433/1/4 430/1/4 434/1/4
f 431/3/4 432/3/4 436/3/4
f 435/3/4 436/3/4 437/3/4
f 436/3/4 432/3/4 438/3/4
f 437/3/4 436/3/4 438/3/4
f 437/4/4 438/4/4 439/4/4
f 438/3/4 432/3/4 440/3/4
f 439/4/4 438/4/4 440/4/4
f 439/3/4 440/3/4 441/3/4
f 440/3/4 432/3/4 442/3/4
f 441/3/4 440/3/4 442/3/4
f 443/1/4 444/1/4 445/1/4
f 445/1/4 444/1/4 446/1/4
f 442/3/4 432/3/4 447/3/4
f 447/3/4 432/3/4 448/3/4
f 451/3/5 450/3/5 449/3/5
f 452/3/5 450/3/5 451/3/5
f 453/4/5 452/4/5 451/4/5
f 454/4/5 452/4/5 453/4/5
f 455/4/5 452/4/5 454/4/5
f 456/4/5 452/4/5 455/4/5
f 457/3/5 454/3/5 453/3/5
f 458/3/5 454/3/5 457/3/5
f 459/3/5 456/3/5 455/3/5
f 460/3/5 456/3/5 459/3/5
f 461/3/5 454/3/5 458/3/5
f 462/4/5 455/4/5 454/4/5
f 462/3/5 454/3/5 461/3/5
f 463/3/5 459/3/5 455/3/5
f 463/4/5 455/4/5 462/4/5
f 464/3/5 459/3/5 463/3/5
f 469/1/5 466/1/5 465/1/5
f 470/1/5 468/1/5 467/1/5
f 471/1/5 469/1/5 465/1/5
f 471/1/5 470/1/5 469/1/5
f 472/1/5 470/1/5 471/1/5
f 473/1/5 468/1/5 470/1/5
f 473/1/5 470/1/5 472/1/5
f 474/1/5 468/1/5 473/1/5
f 475/1/5 473/1/5 472/1/5
f 476/1/5 473/1/5 475/1/5
f 482/1/5 478/1/5 477/1/5
f 483/1/5 480/1/5 479/1/5
f 485/1/5 482/1/5 481/1/5
f 485/1/5 478/1/5 482/1/5
f 486/1/5 478/1/5 485/1/5
f 487/1/5 483/1/5 479/1/5
f 487/1/5 484/1/5 483/1/5
f 488/1/5 484/1/5 487/1/5
f 489/1/5 485/1/5 481/1/5
f 490/1/5 485/1/5 489/1/5
f 491/1/5 484/1/5 488/1/5
f 492/1/5 484/1/5 491/1/5
f 497/3/5 494/3/5 493/3/5
f 498/3/5 494/3/5 497/3/5
f 499/3/5 494/3/5 498/3/5
f 502/3/5 496/3/5 495/3/5
f 503/3/5 496/3/5 502/3/5
f 504/3/5 496/3/5 503/3/5
f 505/3/5 500/3/5 499/3/5
f 505/4/5 498/4/5 497/4/5
f 505/3/5 499/3/5 498/3/5
f 506/3/5 500/3/5 505/3/5
f 507/3/5 503/3/5 502/3/5
f 507/3/5 502/3/5 501/3/5
f 508/4/5 504/4/5 503/4/5
f 508/3/5 503/3/5 507/3/5
f 509/4/5 506/4/5 505/4/5
f 509/4/5 505/4/5 497/4/5
f 510/4/5 506/4/5 509/4/5
f 511/4/5 508/4/5 507/4/5
f 512/4/5 504/4/5 508/4/5
f 512/4/5 508/4/5 511/4/5
f 513/3/5 497/3/5 493/3/5
f 513/4/5 509/4/5 497/4/5
f 514/3/5 510/3/5 509/3/5
f 514/4/5 509/4/5 513/4/5
f 515/3/5 510/3/5 514/3/5
f 516/3/5 510/3/5 515/3/5
f 517/3/5 512/3/5 511/3/5
f 518/3/5 512/3/5 517/3/5
f 519/4/5 504/4/5 512/4/5
f 519/3/5 512/3/5 518/3/5
f 520/3/5 496/3/5 504/3/5
f 520/4/5 504/4/5 519/4/5
f 521/3/5 513/3/5 493/3/5
f 521/3/5 514/3/5 513/3/5
f 521/3/5 515/3/5 514/3/5
f 522/3/5 515/3/5 521/3/5
f 523/3/5 519/3/5 518/3/5
f 523/3/5 520/3/5 519/3/5
f 524/3/5 496/3/5 520/3/5
f 524/3/5 520/3/5 523/3/5
f 527/3/5 526/3/5 525/3/5
f 528/3/5 526/3/5 527/3/5
f 529/3/5 527/3/5 525/3/5
f 530/3/5 527/3/5 529/3/5
f 531/3/5 526/3/5 528/3/5
f 532/3/5 526/3/5 531/3/5
f 537/3/5 534/3/5 533/3/5
f 540/3/5 536/3/5 535/3/5
f 541/3/5 538/3/5 537/3/5
f 541/3/5 537/3/5 533/3/5
f 542/3/5 538/3/5 541/3/5
f 543/3/5 540/3/5 539/3/5
f 544/3/5 536/3/5 540/3/5
f 544/3/5 540/3/5 543/3/5
f 549/3/5 546/3/5 545/3/5
f 550/3/5 546/3/5 549/3/5
f 551/3/5 546/3/5 550/3/5
f 554/3/5 548/3/5 547/3/5
f 555/3/5 548/3/5 554/3/5
f 556/3/5 548/3/5 555/3/5
f 557/3/5 552/3/5 551/3/5
f 557/4/5 550/4/5 549/4/5
f 557/3/5 551/3/5 550/3/5
f 558/3/5 552/3/5 557/3/5
f 559/3/5 555/3/5 554/3/5
f 559/3/5 554/3/5 553/3/5
f 560/4/5 556/4/5 555/4/5
f 560/3/5 555/3/5 559/3/5
f 561/4/5 558/4/5 557/4/5
f 561/4/5 557/4/5 549/4/5
f 562/4/5 558/4/5 561/4/5
f 563/4/5 560/4/5 559/4/5
f 564/4/5 556/4/5 560/4/5
f 564/4/5 560/4/5 563/4/5
f 565/3/5 549/3/5 545/3/5
f 565/4/5 561/4/5 549/4/5
f 566/3/5 562/3/5 561/3/5
f 566/4/5 561/4/5 565/4/5
f 567/3/5 562/3/5 566/3/5
f 568/3/5 562/3/5 567/3/5
f 569/3/5 564/3/5 563/3/5
f 570/3/5 564/3/5 569/3/5
f 571/4/5 556/4/5 564/4/5
f 571/3/5 564/3/5 570/3/5
f 572/3/5 548/3/5 556/3/5
f 572/4/5 556/4/5 571/4/5
f 573/3/5 565/3/5 545/3/5
f 573/3/5 566/3/5 565/3/5
f 573/3/5 567/3/5 566/3/5
f 574/3/5 567/3/5 573/3/5
f 575/3/5 571/3/5 570/3/5
f 575/3/5 572/3/5 571/3/5
f 576/3/5 548/3/5 572/3/5
f 576/3/5 572/3/5 575/3/5
f 577/1/6 578/1/6 581/1/6
f 579/1/6 580/1/6 582/1/6
f 577/1/6 581/1/6 583/1/6
f 581/1/6 582/1/6 583/1/6
f 583/1/6 582/1/6 584/1/6
f 582/1/6 580/1/6 585/1/6
f 584/1/6 582/1/6 585/1/6
f 585/1/6 580/1/6 586/1/6
f 587/1/6 588/1/6 591/1/6
f 589/1/6 590/1/6 594/1/6
f 591/1/6 592/1/6 595/1/6
f 587/1/6 591/1/6 595/1/6
f 595/1/6 592/1/6 596/1/6
f 593/1/6 594/1/6 597/1/6
f 594/1/6 590/1/6 598/1/6
f 597/1/6 594/1/6 598/1/6
f 599/3/6 600/3/6 603/3/6
f 603/3/6 600/3/6 604/3/6
f 604/3/6 600/3/6 605/3/6
f 601/3/6 602/3/6 608/3/6
f 608/3/6 602/3/6 609/3/6
f 609/3/6 602/3/6 610/3/6
f 605/3/6 606/3/6 611/3/6
f 603/4/6 604/4/6 611/4/6
f 604/3/6 605/3/6 611/3/6
f 611/3/6 606/3/6 612/3/6
f 608/3/6 609/3/6 613/3/6
f 607/3/6 608/3/6 613/3/6
f 609/4/6 610/4/6 614/4/6
f 613/3/6 609/3/6 614/3/6
f 611/4/6 612/4/6 615/4/6
f 603/4/6 611/4/6 615/4/6
f 615/4/6 612/4/6 616/4/6
f 613/4/6 614/4/6 617/4/6
f 614/4/6 610/4/6 618/4/6
f 617/4/6 614/4/6 618/4/6
f 599/3/6 603/3/6 619/3/6
f 603/4/6 615/4/6 619/4/6
f 615/3/6 616/3/6 620/3/6
f 619/4/6 615/4/6 620/4/6
f 620/3/6 616/3/6 621/3/6
f 621/3/6 616/3/6 622/3/6
f 617/3/6 618/3/6 623/3/6
f 623/3/6 618/3/6 624/3/6
f 618/4/6 610/4/6 625/4/6
f 624/3/6 618/3/6 625/3/6
f 610/3/6 602/3/6 626/3/6
f 625/4/6 610/4/6 626/4/6
f 599/3/6 619/3/6 627/3/6
f 619/3/6 620/3/6 627/3/6
f 620/3/6 621/3/6 627/3/6
f 627/3/6 621/3/6 628/3/6
f 624/3/6 625/3/6 629/3/6
f 625/3/6 626/3/6 629/3/6
f 626/3/6 602/3/6 630/3/6
f 629/3/6 626/3/6 630/3/6
f 631/1/6 632/1/6 633/1/6
f 633/1/6 632/1/6 634/1/6
f 633/1/6 634/1/6 635/1/6
f 635/1/6 634/1/6 636/1/6
f 635/1/6 636/1/6 637/1/6
f 637/1/6 636/1/6 638/1/6
f 637/1/6 638/1/6 639/1/6
f 639/1/6 638/1/6 640/1/6
f 639/1/6 640/1/6 641/1/6
f 641/1/6 640/1/6 642/1/6
f 642/1/6 640/1/6 643/1/6
f 643/1/6 640/1/6 644/1/6
f 644/1/6 640/1/6 645/1/6
f 645/1/6 640/1/6 646/1/6
f 647/3/6 648/3/6 649/3/6
f 649/3/6 648/3/6 650/3/6
f 647/3/6 649/3/6 651/3/6
f 651/3/6 649/3/6 652/3/6
f 650/3/6 648/3/6 653/3/6
f 653/3/6 648/3/6 654/3/6
f 655/3/6 656/3/6 659/3/6
f 657/3/6 658/3/6 660/3/6
f 655/3/6 659/3/6 661/3/6
f 659/3/6 660/3/6 661/3/6
f 660/3/6 658/3/6 662/3/6
f 661/3/6 660/3/6 662/3/6
f 663/3/6 664/3/6 667/3/6
f 667/3/6 664/3/6 668/3/6
f 668/3/6 664/3/6 669/3/6
f 665/3/6 666/3/6 672/3/6
f 672/3/6 666/3/6 673/3/6
f 673/3/6 666/3/6 674/3/6
f 669/3/6 670/3/6 675/3/6
f 667/4/6 668/4/6 675/4/6
f 668/3/6 669/3/6 675/3/6
f 675/3/6 670/3/6 676/3/6
f 672/3/6 673/3/6 677/3/6
f 671/3/6 672/3/6 677/3/6
f 673/4/6 674/4/6 678/4/6
f 677/3/6 673/3/6 678/3/6
f 675/4/6 676/4/6 679/4/6
f 667/4/6 675/4/6 679/4/6
f 679/4/6 676/4/6 680/4/6
f 677/4/6 678/4/6 681/4/6
f 678/4/6 674/4/6 682/4/6
f 681/4/6 678/4/6 682/4/6
f 663/3/6 667/3/6 683/3/6
f 667/4/6 679/4/6 683/4/6
f 679/3/6 680/3/6 684/3/6
f 683/4/6 679/4/6 684/4/6
f 684/3/6 680/3/6 685/3/6
f 685/3/6 680/3/6 686/3/6
f 681/3/6 682/3/6 687/3/6
f 687/3/6 682/3/6 688/3/6
f 682/4/6 674/4/6 689/4/6
f 688/3/6 682/3/6 689/3/6
f 674/3/6 666/3/6 690/3/6
f 689/4/6 674/4/6 690/4/6
f 663/3/6 683/3/6 691/3/6
f 683/3/6 684/3/6 691/3/6
f 684/3/6 685/3/6 691/3/6
f 691/3/6 685/3/6 692/3/6
f 688/3/6 689/3/6 693/3/6
f 689/3/6 690/3/6 693/3/6
f 690/3/6 666/3/6 694/3/6
f 693/3/6 690/3/6 694/3/6
