# MagicaVoxel @ ephtracy

# material
mtllib Cannon_0.mtl
usemtl palette

# normals
vn -1 0 0
vn 1 0 0
vn 0 0 1
vn 0 0 -1
vn 0 -1 0
vn 0 1 0

# texcoords
vt 0.447266 0.5
vt 0.451172 0.5
vt 0.537109 0.5

# verts
v -2.5 1 6
v -2.5 1 5
v -2.5 1 -5
v -2.5 1 -6
v -2.5 5 6
v -2.5 5 5
v -2.5 5 -5
v -2.5 5 -6
v -1.5 0 6
v -1.5 0 5
v -1.5 0 -4
v -1.5 0 -6
v -1.5 1 6
v -1.5 1 5
v -1.5 1 -4
v -1.5 1 -5
v -1.5 1 -6
v -1.5 5 6
v -1.5 5 5
v -1.5 5 4
v -1.5 5 -4
v -1.5 5 -5
v -1.5 5 -6
v -1.5 6 6
v -1.5 6 4
v -1.5 6 -4
v -1.5 6 -6
v 1.5 2 6
v 1.5 2 5
v 1.5 2 -0
v 1.5 4 6
v 1.5 4 5
v 1.5 4 -0
v -1.5 2 6
v -1.5 2 5
v -1.5 2 -0
v -1.5 4 6
v -1.5 4 5
v -1.5 4 -0
v 1.5 0 6
v 1.5 0 5
v 1.5 0 -4
v 1.5 0 -6
v 1.5 1 6
v 1.5 1 5
v 1.5 1 -4
v 1.5 1 -5
v 1.5 1 -6
v 1.5 5 6
v 1.5 5 5
v 1.5 5 4
v 1.5 5 -4
v 1.5 5 -5
v 1.5 5 -6
v 1.5 6 6
v 1.5 6 4
v 1.5 6 -4
v 1.5 6 -6
v 2.5 1 6
v 2.5 1 5
v 2.5 1 -5
v 2.5 1 -6
v 2.5 5 6
v 2.5 5 5
v 2.5 5 -5
v 2.5 5 -6
v -2.5 1 6
v -2.5 5 6
v -1.5 0 6
v -1.5 1 6
v -1.5 2 6
v -1.5 4 6
v -1.5 5 6
v -1.5 6 6
v 1.5 0 6
v 1.5 1 6
v 1.5 2 6
v 1.5 4 6
v 1.5 5 6
v 1.5 6 6
v 2.5 1 6
v 2.5 5 6
v -1.5 2 -0
v -1.5 4 -0
v 1.5 2 -0
v 1.5 4 -0
v -2.5 1 -6
v -2.5 5 -6
v -1.5 0 -6
v -1.5 1 -6
v -1.5 5 -6
v -1.5 6 -6
v 1.5 0 -6
v 1.5 1 -6
v 1.5 5 -6
v 1.5 6 -6
v 2.5 1 -6
v 2.5 5 -6
v -1.5 0 6
v 1.5 0 6
v -1.5 0 5
v 1.5 0 5
v -1.5 0 -4
v 1.5 0 -4
v -1.5 0 -6
v 1.5 0 -6
v -2.5 1 6
v -1.5 1 6
v 1.5 1 6
v 2.5 1 6
v -2.5 1 5
v -1.5 1 5
v 1.5 1 5
v 2.5 1 5
v -1.5 1 -4
v 1.5 1 -4
v -2.5 1 -5
v -1.5 1 -5
v 1.5 1 -5
v 2.5 1 -5
v -2.5 1 -6
v -1.5 1 -6
v 1.5 1 -6
v 2.5 1 -6
v -1.5 4 6
v 1.5 4 6
v -1.5 4 5
v 1.5 4 5
v -1.5 4 -0
v 1.5 4 -0
v -1.5 2 6
v 1.5 2 6
v -1.5 2 5
v 1.5 2 5
v -1.5 2 -0
v 1.5 2 -0
v -2.5 5 6
v -1.5 5 6
v 1.5 5 6
v 2.5 5 6
v -2.5 5 5
v -1.5 5 5
v 1.5 5 5
v 2.5 5 5
v -1.5 5 4
v 1.5 5 4
v -1.5 5 -4
v 1.5 5 -4
v -2.5 5 -5
v -1.5 5 -5
v 1.5 5 -5
v 2.5 5 -5
v -2.5 5 -6
v -1.5 5 -6
v 1.5 5 -6
v 2.5 5 -6
v -1.5 6 6
v 1.5 6 6
v -0.5 6 5
v 0.5 6 5
v -1.5 6 4
v -0.5 6 4
v 0.5 6 4
v 1.5 6 4
v -1.5 6 -4
v 1.5 6 -4
v -1.5 6 -6
v 1.5 6 -6

# faces
f 5/1/1 2/1/1 1/1/1
f 6/2/1 3/2/1 2/2/1
f 6/1/1 2/1/1 5/1/1
f 7/1/1 4/1/1 3/1/1
f 7/2/1 3/2/1 6/2/1
f 8/1/1 4/1/1 7/1/1
f 13/1/1 10/1/1 9/1/1
f 14/2/1 11/2/1 10/2/1
f 14/1/1 10/1/1 13/1/1
f 15/1/1 12/1/1 11/1/1
f 15/2/1 11/2/1 14/2/1
f 16/1/1 12/1/1 15/1/1
f 17/1/1 12/1/1 16/1/1
f 24/1/1 19/1/1 18/1/1
f 24/1/1 20/1/1 19/1/1
f 25/2/1 21/2/1 20/2/1
f 25/1/1 20/1/1 24/1/1
f 26/1/1 23/1/1 22/1/1
f 26/2/1 21/2/1 25/2/1
f 26/1/1 22/1/1 21/1/1
f 27/1/1 23/1/1 26/1/1
f 31/1/1 29/1/1 28/1/1
f 32/2/1 30/2/1 29/2/1
f 32/1/1 29/1/1 31/1/1
f 33/2/1 30/2/1 32/2/1
f 34/1/2 35/1/2 37/1/2
f 35/2/2 36/2/2 38/2/2
f 37/1/2 35/1/2 38/1/2
f 38/2/2 36/2/2 39/2/2
f 40/1/2 41/1/2 44/1/2
f 41/2/2 42/2/2 45/2/2
f 44/1/2 41/1/2 45/1/2
f 42/1/2 43/1/2 46/1/2
f 45/2/2 42/2/2 46/2/2
f 46/1/2 43/1/2 47/1/2
f 47/1/2 43/1/2 48/1/2
f 49/1/2 50/1/2 55/1/2
f 50/1/2 51/1/2 55/1/2
f 51/2/2 52/2/2 56/2/2
f 55/1/2 51/1/2 56/1/2
f 53/1/2 54/1/2 57/1/2
f 56/2/2 52/2/2 57/2/2
f 52/1/2 53/1/2 57/1/2
f 57/1/2 54/1/2 58/1/2
f 59/1/2 60/1/2 63/1/2
f 60/2/2 61/2/2 64/2/2
f 63/1/2 60/1/2 64/1/2
f 61/1/2 62/1/2 65/1/2
f 64/2/2 61/2/2 65/2/2
f 65/1/2 62/1/2 66/1/2
f 70/1/3 68/1/3 67/1/3
f 71/1/3 68/1/3 70/1/3
f 72/1/3 68/1/3 71/1/3
f 73/1/3 68/1/3 72/1/3
f 75/1/3 70/1/3 69/1/3
f 75/1/3 71/1/3 70/1/3
f 76/1/3 71/1/3 75/1/3
f 77/1/3 71/1/3 76/1/3
f 78/1/3 74/1/3 73/1/3
f 78/1/3 73/1/3 72/1/3
f 79/1/3 74/1/3 78/1/3
f 80/1/3 74/1/3 79/1/3
f 81/1/3 77/1/3 76/1/3
f 81/1/3 79/1/3 78/1/3
f 81/1/3 78/1/3 77/1/3
f 82/1/3 79/1/3 81/1/3
f 85/3/3 84/3/3 83/3/3
f 86/3/3 84/3/3 85/3/3
f 87/1/4 88/1/4 90/1/4
f 90/1/4 88/1/4 91/1/4
f 89/1/4 90/1/4 93/1/4
f 91/1/4 92/1/4 93/1/4
f 90/1/4 91/1/4 93/1/4
f 93/1/4 92/1/4 94/1/4
f 94/1/4 92/1/4 95/1/4
f 95/1/4 92/1/4 96/1/4
f 94/1/4 95/1/4 97/1/4
f 97/1/4 95/1/4 98/1/4
f 101/1/5 100/1/5 99/1/5
f 102/1/5 100/1/5 101/1/5
f 103/2/5 102/2/5 101/2/5
f 104/2/5 102/2/5 103/2/5
f 105/1/5 104/1/5 103/1/5
f 106/1/5 104/1/5 105/1/5
f 111/1/5 108/1/5 107/1/5
f 112/1/5 108/1/5 111/1/5
f 113/1/5 110/1/5 109/1/5
f 114/1/5 110/1/5 113/1/5
f 115/2/5 112/2/5 111/2/5
f 116/2/5 114/2/5 113/2/5
f 117/2/5 115/2/5 111/2/5
f 118/2/5 115/2/5 117/2/5
f 119/2/5 114/2/5 116/2/5
f 120/2/5 114/2/5 119/2/5
f 121/1/5 118/1/5 117/1/5
f 122/1/5 118/1/5 121/1/5
f 123/1/5 120/1/5 119/1/5
f 124/1/5 120/1/5 123/1/5
f 127/1/5 126/1/5 125/1/5
f 128/1/5 126/1/5 127/1/5
f 129/2/5 128/2/5 127/2/5
f 130/2/5 128/2/5 129/2/5
f 131/1/6 132/1/6 133/1/6
f 133/1/6 132/1/6 134/1/6
f 133/2/6 134/2/6 135/2/6
f 135/2/6 134/2/6 136/2/6
f 137/1/6 138/1/6 141/1/6
f 141/1/6 138/1/6 142/1/6
f 139/1/6 140/1/6 143/1/6
f 143/1/6 140/1/6 144/1/6
f 141/2/6 142/2/6 145/2/6
f 143/2/6 144/2/6 146/2/6
f 141/2/6 145/2/6 147/2/6
f 146/2/6 144/2/6 148/2/6
f 141/2/6 147/2/6 149/2/6
f 149/2/6 147/2/6 150/2/6
f 148/2/6 144/2/6 151/2/6
f 151/2/6 144/2/6 152/2/6
f 149/1/6 150/1/6 153/1/6
f 153/1/6 150/1/6 154/1/6
f 151/1/6 152/1/6 155/1/6
f 155/1/6 152/1/6 156/1/6
f 157/1/6 158/1/6 159/1/6
f 159/1/6 158/1/6 160/1/6
f 157/1/6 159/1/6 161/1/6
f 159/2/6 160/2/6 162/2/6
f 161/1/6 159/1/6 162/1/6
f 160/1/6 158/1/6 163/1/6
f 162/2/6 160/2/6 163/2/6
f 163/1/6 158/1/6 164/1/6
f 161/2/6 162/2/6 165/2/6
f 162/2/6 163/2/6 165/2/6
f 163/2/6 164/2/6 165/2/6
f 165/2/6 164/2/6 166/2/6
f 165/1/6 166/1/6 167/1/6
f 167/1/6 166/1/6 168/1/6
