# MagicaVoxel @ ephtracy

# material
mtllib Base.mtl
usemtl palette

# normals
vn -1 0 0
vn 1 0 0
vn 0 0 1
vn 0 0 -1
vn 0 -1 0
vn 0 1 0

# texcoords
vt 0.294922 0.5
vt 0.302734 0.5
vt 0.544922 0.5

# verts
v -7.5 4 -0.5
v -7.5 4 -1.5
v -7.5 5 -0.5
v -7.5 5 -1.5
v -6.5 3 1.5
v -6.5 3 -1.5
v -6.5 4 -0.5
v -6.5 4 -1.5
v -6.5 5 -0.5
v -6.5 5 -1.5
v -6.5 6 1.5
v -6.5 6 -1.5
v -6.5 7 1.5
v -6.5 7 -1.5
v -6.5 8 1.5
v -6.5 8 -1.5
v -6.5 10 1.5
v -6.5 10 -1.5
v -6.5 12 1.5
v -6.5 12 -1.5
v -4.5 1 4.5
v -4.5 1 2.5
v -4.5 1 -2.5
v -4.5 1 -4.5
v -4.5 3 4.5
v -4.5 3 2.5
v -4.5 3 -2.5
v -4.5 3 -4.5
v -3.5 1 2.5
v -3.5 1 -2.5
v -3.5 3 2.5
v -3.5 3 1.5
v -3.5 3 -1.5
v -3.5 3 -2.5
v -1.5 0 4.5
v -1.5 0 -4.5
v -1.5 1 3.5
v -1.5 1 -3.5
v -1.5 3 3.5
v -1.5 3 1.5
v -1.5 3 -1.5
v -1.5 3 -3.5
v -1.5 4 4.5
v -1.5 4 2.5
v -1.5 4 -2.5
v -1.5 4 -4.5
v -1.5 6 1.5
v -1.5 6 -1.5
v -1.5 7 1.5
v -1.5 7 -1.5
v -1.5 8 1.5
v -1.5 8 -1.5
v -1.5 10 1.5
v -1.5 10 -1.5
v -1.5 12 1.5
v -1.5 12 -1.5
v -1.5 13 2.5
v -1.5 13 -2.5
v 2.5 1 4.5
v 2.5 1 3.5
v 2.5 1 -3.5
v 2.5 1 -4.5
v 2.5 3 4.5
v 2.5 3 3.5
v 2.5 3 -3.5
v 2.5 3 -4.5
v -2.5 1 4.5
v -2.5 1 3.5
v -2.5 1 -3.5
v -2.5 1 -4.5
v -2.5 3 4.5
v -2.5 3 3.5
v -2.5 3 -3.5
v -2.5 3 -4.5
v 1.5 0 4.5
v 1.5 0 -4.5
v 1.5 1 3.5
v 1.5 1 -3.5
v 1.5 3 3.5
v 1.5 3 1.5
v 1.5 3 -1.5
v 1.5 3 -3.5
v 1.5 4 4.5
v 1.5 4 2.5
v 1.5 4 -2.5
v 1.5 4 -4.5
v 1.5 6 1.5
v 1.5 6 -1.5
v 1.5 7 1.5
v 1.5 7 -1.5
v 1.5 8 1.5
v 1.5 8 -1.5
v 1.5 10 1.5
v 1.5 10 -1.5
v 1.5 12 1.5
v 1.5 12 -1.5
v 1.5 13 2.5
v 1.5 13 -2.5
v 3.5 1 2.5
v 3.5 1 -2.5
v 3.5 3 2.5
v 3.5 3 1.5
v 3.5 3 -1.5
v 3.5 3 -2.5
v 4.5 1 4.5
v 4.5 1 2.5
v 4.5 1 -2.5
v 4.5 1 -4.5
v 4.5 3 4.5
v 4.5 3 2.5
v 4.5 3 -2.5
v 4.5 3 -4.5
v 6.5 3 1.5
v 6.5 3 -1.5
v 6.5 4 -0.5
v 6.5 4 -1.5
v 6.5 5 -0.5
v 6.5 5 -1.5
v 6.5 6 1.5
v 6.5 6 -1.5
v 6.5 7 1.5
v 6.5 7 -1.5
v 6.5 8 1.5
v 6.5 8 -1.5
v 6.5 10 1.5
v 6.5 10 -1.5
v 6.5 12 1.5
v 6.5 12 -1.5
v 7.5 4 -0.5
v 7.5 4 -1.5
v 7.5 5 -0.5
v 7.5 5 -1.5
v -4.5 1 4.5
v -4.5 3 4.5
v -2.5 1 4.5
v -2.5 3 4.5
v -1.5 0 4.5
v -1.5 4 4.5
v -0.5 0 4.5
v -0.5 4 4.5
v 0.5 0 4.5
v 0.5 4 4.5
v 1.5 0 4.5
v 1.5 4 4.5
v 2.5 1 4.5
v 2.5 3 4.5
v 4.5 1 4.5
v 4.5 3 4.5
v -2.5 1 3.5
v -2.5 3 3.5
v -1.5 1 3.5
v -1.5 3 3.5
v 1.5 1 3.5
v 1.5 3 3.5
v 2.5 1 3.5
v 2.5 3 3.5
v -1.5 4 2.5
v -1.5 13 2.5
v -0.5 4 2.5
v -0.5 13 2.5
v 0.5 4 2.5
v 0.5 13 2.5
v 1.5 4 2.5
v 1.5 13 2.5
v -6.5 3 1.5
v -6.5 6 1.5
v -6.5 7 1.5
v -6.5 8 1.5
v -6.5 10 1.5
v -6.5 12 1.5
v -3.5 3 1.5
v -1.5 3 1.5
v -1.5 6 1.5
v -1.5 7 1.5
v -1.5 8 1.5
v -1.5 10 1.5
v -1.5 12 1.5
v 1.5 3 1.5
v 1.5 6 1.5
v 1.5 7 1.5
v 1.5 8 1.5
v 1.5 10 1.5
v 1.5 12 1.5
v 3.5 3 1.5
v 6.5 3 1.5
v 6.5 6 1.5
v 6.5 7 1.5
v 6.5 8 1.5
v 6.5 10 1.5
v 6.5 12 1.5
v -7.5 4 -0.5
v -7.5 5 -0.5
v -6.5 4 -0.5
v -6.5 5 -0.5
v 6.5 4 -0.5
v 6.5 5 -0.5
v 7.5 4 -0.5
v 7.5 5 -0.5
v -4.5 1 -2.5
v -4.5 3 -2.5
v -3.5 1 -2.5
v -3.5 3 -2.5
v 3.5 1 -2.5
v 3.5 3 -2.5
v 4.5 1 -2.5
v 4.5 3 -2.5
v -4.5 1 2.5
v -4.5 3 2.5
v -3.5 1 2.5
v -3.5 3 2.5
v 3.5 1 2.5
v 3.5 3 2.5
v 4.5 1 2.5
v 4.5 3 2.5
v -7.5 4 -1.5
v -7.5 5 -1.5
v -6.5 3 -1.5
v -6.5 4 -1.5
v -6.5 5 -1.5
v -6.5 6 -1.5
v -6.5 7 -1.5
v -6.5 8 -1.5
v -6.5 10 -1.5
v -6.5 12 -1.5
v -3.5 3 -1.5
v -1.5 3 -1.5
v -1.5 6 -1.5
v -1.5 7 -1.5
v -1.5 8 -1.5
v -1.5 10 -1.5
v -1.5 12 -1.5
v 1.5 3 -1.5
v 1.5 6 -1.5
v 1.5 7 -1.5
v 1.5 8 -1.5
v 1.5 10 -1.5
v 1.5 12 -1.5
v 3.5 3 -1.5
v 6.5 3 -1.5
v 6.5 4 -1.5
v 6.5 5 -1.5
v 6.5 6 -1.5
v 6.5 7 -1.5
v 6.5 8 -1.5
v 6.5 10 -1.5
v 6.5 12 -1.5
v 7.5 4 -1.5
v 7.5 5 -1.5
v -1.5 4 -2.5
v -1.5 13 -2.5
v -0.5 4 -2.5
v -0.5 13 -2.5
v 0.5 4 -2.5
v 0.5 13 -2.5
v 1.5 4 -2.5
v 1.5 13 -2.5
v -2.5 1 -3.5
v -2.5 3 -3.5
v -1.5 1 -3.5
v -1.5 3 -3.5
v 1.5 1 -3.5
v 1.5 3 -3.5
v 2.5 1 -3.5
v 2.5 3 -3.5
v -4.5 1 -4.5
v -4.5 3 -4.5
v -2.5 1 -4.5
v -2.5 3 -4.5
v -1.5 0 -4.5
v -1.5 4 -4.5
v -0.5 0 -4.5
v -0.5 4 -4.5
v 0.5 0 -4.5
v 0.5 4 -4.5
v 1.5 0 -4.5
v 1.5 4 -4.5
v 2.5 1 -4.5
v 2.5 3 -4.5
v 4.5 1 -4.5
v 4.5 3 -4.5
v -1.5 0 4.5
v -0.5 0 4.5
v 0.5 0 4.5
v 1.5 0 4.5
v -1.5 0 -4.5
v -0.5 0 -4.5
v 0.5 0 -4.5
v 1.5 0 -4.5
v -4.5 1 4.5
v -2.5 1 4.5
v 2.5 1 4.5
v 4.5 1 4.5
v -2.5 1 3.5
v -1.5 1 3.5
v 1.5 1 3.5
v 2.5 1 3.5
v -4.5 1 2.5
v -3.5 1 2.5
v 3.5 1 2.5
v 4.5 1 2.5
v -4.5 1 -2.5
v -3.5 1 -2.5
v 3.5 1 -2.5
v 4.5 1 -2.5
v -2.5 1 -3.5
v -1.5 1 -3.5
v 1.5 1 -3.5
v 2.5 1 -3.5
v -4.5 1 -4.5
v -2.5 1 -4.5
v 2.5 1 -4.5
v 4.5 1 -4.5
v -6.5 3 1.5
v -3.5 3 1.5
v 3.5 3 1.5
v 6.5 3 1.5
v -6.5 3 -1.5
v -3.5 3 -1.5
v 3.5 3 -1.5
v 6.5 3 -1.5
v -7.5 4 -0.5
v -6.5 4 -0.5
v 6.5 4 -0.5
v 7.5 4 -0.5
v -7.5 4 -1.5
v -6.5 4 -1.5
v 6.5 4 -1.5
v 7.5 4 -1.5
v -4.5 3 4.5
v -2.5 3 4.5
v 2.5 3 4.5
v 4.5 3 4.5
v -2.5 3 3.5
v -1.5 3 3.5
v 1.5 3 3.5
v 2.5 3 3.5
v -4.5 3 2.5
v -3.5 3 2.5
v 3.5 3 2.5
v 4.5 3 2.5
v -3.5 3 1.5
v -1.5 3 1.5
v 1.5 3 1.5
v 3.5 3 1.5
v -3.5 3 -1.5
v -1.5 3 -1.5
v 1.5 3 -1.5
v 3.5 3 -1.5
v -4.5 3 -2.5
v -3.5 3 -2.5
v 3.5 3 -2.5
v 4.5 3 -2.5
v -2.5 3 -3.5
v -1.5 3 -3.5
v 1.5 3 -3.5
v 2.5 3 -3.5
v -4.5 3 -4.5
v -2.5 3 -4.5
v 2.5 3 -4.5
v 4.5 3 -4.5
v -1.5 4 4.5
v -0.5 4 4.5
v 0.5 4 4.5
v 1.5 4 4.5
v -1.5 4 2.5
v -0.5 4 2.5
v 0.5 4 2.5
v 1.5 4 2.5
v -1.5 4 -2.5
v -0.5 4 -2.5
v 0.5 4 -2.5
v 1.5 4 -2.5
v -1.5 4 -4.5
v -0.5 4 -4.5
v 0.5 4 -4.5
v 1.5 4 -4.5
v -7.5 5 -0.5
v -6.5 5 -0.5
v 6.5 5 -0.5
v 7.5 5 -0.5
v -7.5 5 -1.5
v -6.5 5 -1.5
v 6.5 5 -1.5
v 7.5 5 -1.5
v -6.5 12 1.5
v -1.5 12 1.5
v 1.5 12 1.5
v 6.5 12 1.5
v -6.5 12 -1.5
v -1.5 12 -1.5
v 1.5 12 -1.5
v 6.5 12 -1.5
v -1.5 13 2.5
v -0.5 13 2.5
v 0.5 13 2.5
v 1.5 13 2.5
v -1.5 13 -2.5
v -0.5 13 -2.5
v 0.5 13 -2.5
v 1.5 13 -2.5

# faces
f 3/3/1 2/3/1 1/3/1
f 4/3/1 2/3/1 3/3/1
f 7/1/1 6/1/1 5/1/1
f 8/1/1 6/1/1 7/1/1
f 9/1/1 7/1/1 5/1/1
f 11/1/1 9/1/1 5/1/1
f 11/1/1 10/1/1 9/1/1
f 12/1/1 10/1/1 11/1/1
f 13/2/1 12/2/1 11/2/1
f 14/2/1 12/2/1 13/2/1
f 15/1/1 14/1/1 13/1/1
f 16/1/1 14/1/1 15/1/1
f 17/2/1 16/2/1 15/2/1
f 18/2/1 16/2/1 17/2/1
f 19/1/1 18/1/1 17/1/1
f 20/1/1 18/1/1 19/1/1
f 25/1/1 22/1/1 21/1/1
f 26/1/1 22/1/1 25/1/1
f 27/1/1 24/1/1 23/1/1
f 28/1/1 24/1/1 27/1/1
f 31/1/1 30/1/1 29/1/1
f 32/1/1 30/1/1 31/1/1
f 33/1/1 30/1/1 32/1/1
f 34/1/1 30/1/1 33/1/1
f 37/3/1 36/3/1 35/3/1
f 38/3/1 36/3/1 37/3/1
f 39/3/1 37/3/1 35/3/1
f 42/3/1 36/3/1 38/3/1
f 43/3/1 40/3/1 39/3/1
f 43/3/1 39/3/1 35/3/1
f 44/3/1 40/3/1 43/3/1
f 45/3/1 42/3/1 41/3/1
f 46/3/1 36/3/1 42/3/1
f 46/3/1 42/3/1 45/3/1
f 47/3/1 40/3/1 44/3/1
f 48/3/1 45/3/1 41/3/1
f 49/3/1 47/3/1 44/3/1
f 50/3/1 45/3/1 48/3/1
f 51/3/1 49/3/1 44/3/1
f 52/3/1 45/3/1 50/3/1
f 53/3/1 51/3/1 44/3/1
f 54/3/1 45/3/1 52/3/1
f 55/3/1 53/3/1 44/3/1
f 56/3/1 45/3/1 54/3/1
f 57/3/1 55/3/1 44/3/1
f 57/3/1 56/3/1 55/3/1
f 58/3/1 45/3/1 56/3/1
f 58/3/1 56/3/1 57/3/1
f 63/1/1 60/1/1 59/1/1
f 64/1/1 60/1/1 63/1/1
f 65/1/1 62/1/1 61/1/1
f 66/1/1 62/1/1 65/1/1
f 67/1/2 68/1/2 71/1/2
f 71/1/2 68/1/2 72/1/2
f 69/1/2 70/1/2 73/1/2
f 73/1/2 70/1/2 74/1/2
f 75/3/2 76/3/2 77/3/2
f 77/3/2 76/3/2 78/3/2
f 75/3/2 77/3/2 79/3/2
f 78/3/2 76/3/2 82/3/2
f 79/3/2 80/3/2 83/3/2
f 75/3/2 79/3/2 83/3/2
f 83/3/2 80/3/2 84/3/2
f 81/3/2 82/3/2 85/3/2
f 82/3/2 76/3/2 86/3/2
f 85/3/2 82/3/2 86/3/2
f 84/3/2 80/3/2 87/3/2
f 81/3/2 85/3/2 88/3/2
f 84/3/2 87/3/2 89/3/2
f 88/3/2 85/3/2 90/3/2
f 84/3/2 89/3/2 91/3/2
f 90/3/2 85/3/2 92/3/2
f 84/3/2 91/3/2 93/3/2
f 92/3/2 85/3/2 94/3/2
f 84/3/2 93/3/2 95/3/2
f 94/3/2 85/3/2 96/3/2
f 84/3/2 95/3/2 97/3/2
f 95/3/2 96/3/2 97/3/2
f 96/3/2 85/3/2 98/3/2
f 97/3/2 96/3/2 98/3/2
f 99/1/2 100/1/2 101/1/2
f 101/1/2 100/1/2 102/1/2
f 102/1/2 100/1/2 103/1/2
f 103/1/2 100/1/2 104/1/2
f 105/1/2 106/1/2 109/1/2
f 109/1/2 106/1/2 110/1/2
f 107/1/2 108/1/2 111/1/2
f 111/1/2 108/1/2 112/1/2
f 113/1/2 114/1/2 115/1/2
f 115/1/2 114/1/2 116/1/2
f 113/1/2 115/1/2 117/1/2
f 113/1/2 117/1/2 119/1/2
f 117/1/2 118/1/2 119/1/2
f 119/1/2 118/1/2 120/1/2
f 119/2/2 120/2/2 121/2/2
f 121/2/2 120/2/2 122/2/2
f 121/1/2 122/1/2 123/1/2
f 123/1/2 122/1/2 124/1/2
f 123/2/2 124/2/2 125/2/2
f 125/2/2 124/2/2 126/2/2
f 125/1/2 126/1/2 127/1/2
f 127/1/2 126/1/2 128/1/2
f 129/3/2 130/3/2 131/3/2
f 131/3/2 130/3/2 132/3/2
f 135/1/3 134/1/3 133/1/3
f 136/1/3 134/1/3 135/1/3
f 139/3/3 138/3/3 137/3/3
f 140/3/3 138/3/3 139/3/3
f 141/1/3 140/1/3 139/1/3
f 142/1/3 140/1/3 141/1/3
f 143/3/3 142/3/3 141/3/3
f 144/3/3 142/3/3 143/3/3
f 147/1/3 146/1/3 145/1/3
f 148/1/3 146/1/3 147/1/3
f 151/1/3 150/1/3 149/1/3
f 152/1/3 150/1/3 151/1/3
f 155/1/3 154/1/3 153/1/3
f 156/1/3 154/1/3 155/1/3
f 159/3/3 158/3/3 157/3/3
f 160/3/3 158/3/3 159/3/3
f 161/1/3 160/1/3 159/1/3
f 162/1/3 160/1/3 161/1/3
f 163/3/3 162/3/3 161/3/3
f 164/3/3 162/3/3 163/3/3
f 171/1/3 166/1/3 165/1/3
f 172/1/3 166/1/3 171/1/3
f 173/2/3 167/2/3 166/2/3
f 173/1/3 166/1/3 172/1/3
f 174/1/3 168/1/3 167/1/3
f 174/2/3 167/2/3 173/2/3
f 175/2/3 169/2/3 168/2/3
f 175/1/3 168/1/3 174/1/3
f 176/1/3 170/1/3 169/1/3
f 176/2/3 169/2/3 175/2/3
f 177/1/3 170/1/3 176/1/3
f 184/1/3 179/1/3 178/1/3
f 185/1/3 179/1/3 184/1/3
f 186/2/3 180/2/3 179/2/3
f 186/1/3 179/1/3 185/1/3
f 187/1/3 181/1/3 180/1/3
f 187/2/3 180/2/3 186/2/3
f 188/2/3 182/2/3 181/2/3
f 188/1/3 181/1/3 187/1/3
f 189/1/3 183/1/3 182/1/3
f 189/2/3 182/2/3 188/2/3
f 190/1/3 183/1/3 189/1/3
f 193/3/3 192/3/3 191/3/3
f 194/3/3 192/3/3 193/3/3
f 197/3/3 196/3/3 195/3/3
f 198/3/3 196/3/3 197/3/3
f 201/1/3 200/1/3 199/1/3
f 202/1/3 200/1/3 201/1/3
f 205/1/3 204/1/3 203/1/3
f 206/1/3 204/1/3 205/1/3
f 207/1/4 208/1/4 209/1/4
f 209/1/4 208/1/4 210/1/4
f 211/1/4 212/1/4 213/1/4
f 213/1/4 212/1/4 214/1/4
f 215/3/4 216/3/4 218/3/4
f 218/3/4 216/3/4 219/3/4
f 217/1/4 218/1/4 225/1/4
f 218/1/4 219/1/4 225/1/4
f 219/1/4 220/1/4 225/1/4
f 225/1/4 220/1/4 226/1/4
f 220/2/4 221/2/4 227/2/4
f 226/1/4 220/1/4 227/1/4
f 221/1/4 222/1/4 228/1/4
f 227/2/4 221/2/4 228/2/4
f 222/2/4 223/2/4 229/2/4
f 228/1/4 222/1/4 229/1/4
f 223/1/4 224/1/4 230/1/4
f 229/2/4 223/2/4 230/2/4
f 230/1/4 224/1/4 231/1/4
f 232/1/4 233/1/4 238/1/4
f 238/1/4 233/1/4 239/1/4
f 239/1/4 233/1/4 240/1/4
f 240/1/4 233/1/4 241/1/4
f 233/2/4 234/2/4 242/2/4
f 241/1/4 233/1/4 242/1/4
f 234/1/4 235/1/4 243/1/4
f 242/2/4 234/2/4 243/2/4
f 235/2/4 236/2/4 244/2/4
f 243/1/4 235/1/4 244/1/4
f 236/1/4 237/1/4 245/1/4
f 244/2/4 236/2/4 245/2/4
f 245/1/4 237/1/4 246/1/4
f 240/3/4 241/3/4 247/3/4
f 247/3/4 241/3/4 248/3/4
f 249/3/4 250/3/4 251/3/4
f 251/3/4 250/3/4 252/3/4
f 251/1/4 252/1/4 253/1/4
f 253/1/4 252/1/4 254/1/4
f 253/3/4 254/3/4 255/3/4
f 255/3/4 254/3/4 256/3/4
f 257/1/4 258/1/4 259/1/4
f 259/1/4 258/1/4 260/1/4
f 261/1/4 262/1/4 263/1/4
f 263/1/4 262/1/4 264/1/4
f 265/1/4 266/1/4 267/1/4
f 267/1/4 266/1/4 268/1/4
f 269/3/4 270/3/4 271/3/4
f 271/3/4 270/3/4 272/3/4
f 271/1/4 272/1/4 273/1/4
f 273/1/4 272/1/4 274/1/4
f 273/3/4 274/3/4 275/3/4
f 275/3/4 274/3/4 276/3/4
f 277/1/4 278/1/4 279/1/4
f 279/1/4 278/1/4 280/1/4
f 285/3/5 282/3/5 281/3/5
f 286/1/5 283/1/5 282/1/5
f 286/3/5 282/3/5 285/3/5
f 287/3/5 284/3/5 283/3/5
f 287/1/5 283/1/5 286/1/5
f 288/3/5 284/3/5 287/3/5
f 293/1/5 290/1/5 289/1/5
f 296/1/5 292/1/5 291/1/5
f 297/1/5 294/1/5 293/1/5
f 297/1/5 293/1/5 289/1/5
f 298/1/5 294/1/5 297/1/5
f 299/1/5 296/1/5 295/1/5
f 299/1/5 292/1/5 296/1/5
f 300/1/5 292/1/5 299/1/5
f 302/1/5 294/1/5 298/1/5
f 303/1/5 299/1/5 295/1/5
f 305/1/5 302/1/5 301/1/5
f 305/1/5 294/1/5 302/1/5
f 306/1/5 294/1/5 305/1/5
f 307/1/5 304/1/5 303/1/5
f 307/1/5 303/1/5 295/1/5
f 308/1/5 304/1/5 307/1/5
f 309/1/5 305/1/5 301/1/5
f 310/1/5 305/1/5 309/1/5
f 311/1/5 304/1/5 308/1/5
f 312/1/5 304/1/5 311/1/5
f 317/1/5 314/1/5 313/1/5
f 318/1/5 314/1/5 317/1/5
f 319/1/5 316/1/5 315/1/5
f 320/1/5 316/1/5 319/1/5
f 325/3/5 322/3/5 321/3/5
f 326/3/5 322/3/5 325/3/5
f 327/3/5 324/3/5 323/3/5
f 328/3/5 324/3/5 327/3/5
f 329/1/6 330/1/6 333/1/6
f 331/1/6 332/1/6 336/1/6
f 333/1/6 334/1/6 337/1/6
f 329/1/6 333/1/6 337/1/6
f 337/1/6 334/1/6 338/1/6
f 335/1/6 336/1/6 339/1/6
f 336/1/6 332/1/6 339/1/6
f 339/1/6 332/1/6 340/1/6
f 338/1/6 334/1/6 341/1/6
f 341/1/6 334/1/6 342/1/6
f 335/1/6 339/1/6 343/1/6
f 343/1/6 339/1/6 344/1/6
f 345/1/6 346/1/6 350/1/6
f 347/1/6 348/1/6 351/1/6
f 349/1/6 350/1/6 353/1/6
f 350/1/6 346/1/6 353/1/6
f 353/1/6 346/1/6 354/1/6
f 347/1/6 351/1/6 355/1/6
f 351/1/6 352/1/6 355/1/6
f 355/1/6 352/1/6 356/1/6
f 349/1/6 353/1/6 357/1/6
f 357/1/6 353/1/6 358/1/6
f 356/1/6 352/1/6 359/1/6
f 359/1/6 352/1/6 360/1/6
f 361/3/6 362/3/6 365/3/6
f 362/1/6 363/1/6 366/1/6
f 365/3/6 362/3/6 366/3/6
f 363/3/6 364/3/6 367/3/6
f 366/1/6 363/1/6 367/1/6
f 367/3/6 364/3/6 368/3/6
f 369/3/6 370/3/6 373/3/6
f 370/1/6 371/1/6 374/1/6
f 373/3/6 370/3/6 374/3/6
f 371/3/6 372/3/6 375/3/6
f 374/1/6 371/1/6 375/1/6
f 375/3/6 372/3/6 376/3/6
f 377/3/6 378/3/6 381/3/6
f 381/3/6 378/3/6 382/3/6
f 379/3/6 380/3/6 383/3/6
f 383/3/6 380/3/6 384/3/6
f 385/1/6 386/1/6 389/1/6
f 389/1/6 386/1/6 390/1/6
f 387/1/6 388/1/6 391/1/6
f 391/1/6 388/1/6 392/1/6
f 393/3/6 394/3/6 397/3/6
f 394/1/6 395/1/6 398/1/6
f 397/3/6 394/3/6 398/3/6
f 395/3/6 396/3/6 399/3/6
f 398/1/6 395/1/6 399/1/6
f 399/3/6 396/3/6 400/3/6
