# MagicaVoxel @ ephtracy

# material
mtllib Cannon_1.mtl
usemtl palette

# normals
vn -1 0 0
vn 1 0 0
vn 0 0 1
vn 0 0 -1
vn 0 -1 0
vn 0 1 0

# texcoords
vt 0.447266 0.5
vt 0.451172 0.5
vt 0.537109 0.5

# verts
v -1.5 1 6.5
v -1.5 1 -0.5
v -1.5 1 -6.5
v -1.5 2 6.5
v -1.5 2 -0.5
v -1.5 2 -6.5
v -0.5 0 6.5
v -0.5 0 -0.5
v -0.5 0 -6.5
v -0.5 1 6.5
v -0.5 1 -0.5
v -0.5 1 -6.5
v -0.5 2 6.5
v -0.5 2 -0.5
v -0.5 2 -6.5
v -0.5 3 6.5
v -0.5 3 -0.5
v -0.5 3 -6.5
v 0.5 1 6.5
v 0.5 1 5.5
v 0.5 2 6.5
v 0.5 2 5.5
v -0.5 1 6.5
v -0.5 1 5.5
v -0.5 2 6.5
v -0.5 2 5.5
v 0.5 0 6.5
v 0.5 0 -0.5
v 0.5 0 -6.5
v 0.5 1 6.5
v 0.5 1 -0.5
v 0.5 1 -6.5
v 0.5 2 6.5
v 0.5 2 -0.5
v 0.5 2 -6.5
v 0.5 3 6.5
v 0.5 3 -0.5
v 0.5 3 -6.5
v 1.5 1 6.5
v 1.5 1 -0.5
v 1.5 1 -6.5
v 1.5 2 6.5
v 1.5 2 -0.5
v 1.5 2 -6.5
v -1.5 1 6.5
v -1.5 2 6.5
v -0.5 0 6.5
v -0.5 1 6.5
v -0.5 2 6.5
v -0.5 3 6.5
v 0.5 0 6.5
v 0.5 1 6.5
v 0.5 2 6.5
v 0.5 3 6.5
v 1.5 1 6.5
v 1.5 2 6.5
v -0.5 1 5.5
v -0.5 2 5.5
v 0.5 1 5.5
v 0.5 2 5.5
v -1.5 1 -6.5
v -1.5 2 -6.5
v -0.5 0 -6.5
v -0.5 1 -6.5
v -0.5 2 -6.5
v -0.5 3 -6.5
v 0.5 0 -6.5
v 0.5 1 -6.5
v 0.5 2 -6.5
v 0.5 3 -6.5
v 1.5 1 -6.5
v 1.5 2 -6.5
v -0.5 0 6.5
v 0.5 0 6.5
v -0.5 0 -0.5
v 0.5 0 -0.5
v -0.5 0 -6.5
v 0.5 0 -6.5
v -1.5 1 6.5
v -0.5 1 6.5
v 0.5 1 6.5
v 1.5 1 6.5
v -1.5 1 -0.5
v -0.5 1 -0.5
v 0.5 1 -0.5
v 1.5 1 -0.5
v -1.5 1 -6.5
v -0.5 1 -6.5
v 0.5 1 -6.5
v 1.5 1 -6.5
v -0.5 2 6.5
v 0.5 2 6.5
v -0.5 2 5.5
v 0.5 2 5.5
v -0.5 1 6.5
v 0.5 1 6.5
v -0.5 1 5.5
v 0.5 1 5.5
v -1.5 2 6.5
v -0.5 2 6.5
v 0.5 2 6.5
v 1.5 2 6.5
v -1.5 2 -0.5
v -0.5 2 -0.5
v 0.5 2 -0.5
v 1.5 2 -0.5
v -1.5 2 -6.5
v -0.5 2 -6.5
v 0.5 2 -6.5
v 1.5 2 -6.5
v -0.5 3 6.5
v 0.5 3 6.5
v -0.5 3 -0.5
v 0.5 3 -0.5
v -0.5 3 -6.5
v 0.5 3 -6.5

# faces
f 4/2/1 2/2/1 1/2/1
f 5/1/1 3/1/1 2/1/1
f 5/2/1 2/2/1 4/2/1
f 6/1/1 3/1/1 5/1/1
f 10/2/1 8/2/1 7/2/1
f 11/1/1 9/1/1 8/1/1
f 11/2/1 8/2/1 10/2/1
f 12/1/1 9/1/1 11/1/1
f 16/2/1 14/2/1 13/2/1
f 17/1/1 15/1/1 14/1/1
f 17/2/1 14/2/1 16/2/1
f 18/1/1 15/1/1 17/1/1
f 21/2/1 20/2/1 19/2/1
f 22/2/1 20/2/1 21/2/1
f 23/2/2 24/2/2 25/2/2
f 25/2/2 24/2/2 26/2/2
f 27/2/2 28/2/2 30/2/2
f 28/1/2 29/1/2 31/1/2
f 30/2/2 28/2/2 31/2/2
f 31/1/2 29/1/2 32/1/2
f 33/2/2 34/2/2 36/2/2
f 34/1/2 35/1/2 37/1/2
f 36/2/2 34/2/2 37/2/2
f 37/1/2 35/1/2 38/1/2
f 39/2/2 40/2/2 42/2/2
f 40/1/2 41/1/2 43/1/2
f 42/2/2 40/2/2 43/2/2
f 43/1/2 41/1/2 44/1/2
f 48/2/3 46/2/3 45/2/3
f 49/2/3 46/2/3 48/2/3
f 51/2/3 48/2/3 47/2/3
f 52/2/3 48/2/3 51/2/3
f 53/2/3 50/2/3 49/2/3
f 54/2/3 50/2/3 53/2/3
f 55/2/3 53/2/3 52/2/3
f 56/2/3 53/2/3 55/2/3
f 59/3/3 58/3/3 57/3/3
f 60/3/3 58/3/3 59/3/3
f 61/1/4 62/1/4 64/1/4
f 64/1/4 62/1/4 65/1/4
f 63/1/4 64/1/4 67/1/4
f 65/1/4 66/1/4 67/1/4
f 64/1/4 65/1/4 67/1/4
f 67/1/4 66/1/4 68/1/4
f 68/1/4 66/1/4 69/1/4
f 69/1/4 66/1/4 70/1/4
f 68/1/4 69/1/4 71/1/4
f 71/1/4 69/1/4 72/1/4
f 75/2/5 74/2/5 73/2/5
f 76/2/5 74/2/5 75/2/5
f 77/1/5 76/1/5 75/1/5
f 78/1/5 76/1/5 77/1/5
f 83/2/5 80/2/5 79/2/5
f 84/2/5 80/2/5 83/2/5
f 85/2/5 82/2/5 81/2/5
f 86/2/5 82/2/5 85/2/5
f 87/1/5 84/1/5 83/1/5
f 88/1/5 84/1/5 87/1/5
f 89/1/5 86/1/5 85/1/5
f 90/1/5 86/1/5 89/1/5
f 93/2/5 92/2/5 91/2/5
f 94/2/5 92/2/5 93/2/5
f 95/2/6 96/2/6 97/2/6
f 97/2/6 96/2/6 98/2/6
f 99/2/6 100/2/6 103/2/6
f 103/2/6 100/2/6 104/2/6
f 101/2/6 102/2/6 105/2/6
f 105/2/6 102/2/6 106/2/6
f 103/1/6 104/1/6 107/1/6
f 107/1/6 104/1/6 108/1/6
f 105/1/6 106/1/6 109/1/6
f 109/1/6 106/1/6 110/1/6
f 111/2/6 112/2/6 113/2/6
f 113/2/6 112/2/6 114/2/6
f 113/1/6 114/1/6 115/1/6
f 115/1/6 114/1/6 116/1/6
