# MagicaVoxel @ ephtracy

# material
mtllib Turret.mtl
usemtl palette

# normals
vn -1 0 0
vn 1 0 0
vn 0 0 1
vn 0 0 -1
vn 0 -1 0
vn 0 1 0

# texcoords
vt 0.294922 0.5
vt 0.302734 0.5
vt 0.544922 0.5

# verts
v -6.5 1 1.5
v -6.5 1 0.5
v -6.5 1 -0.5
v -6.5 1 -1.5
v -6.5 4 1.5
v -6.5 4 0.5
v -6.5 4 -0.5
v -6.5 4 -1.5
v -5.5 0 1.5
v -5.5 0 0.5
v -5.5 0 -0.5
v -5.5 0 -1.5
v -5.5 1 1.5
v -5.5 1 0.5
v -5.5 1 -0.5
v -5.5 1 -1.5
v -5.5 4 1.5
v -5.5 4 0.5
v -5.5 4 -0.5
v -5.5 4 -1.5
v -5.5 5 1.5
v -5.5 5 0.5
v -5.5 5 -0.5
v -5.5 5 -1.5
v -1.5 0 1.5
v -1.5 0 -1.5
v -1.5 1 2.5
v -1.5 1 1.5
v -1.5 1 0.5
v -1.5 1 -0.5
v -1.5 1 -1.5
v -1.5 1 -2.5
v -1.5 4 1.5
v -1.5 4 0.5
v -1.5 4 -0.5
v -1.5 4 -1.5
v -1.5 5 2.5
v -1.5 5 -2.5
v 2.5 0 1.5
v 2.5 0 0.5
v 2.5 0 -0.5
v 2.5 0 -1.5
v 2.5 1 1.5
v 2.5 1 0.5
v 2.5 1 -0.5
v 2.5 1 -1.5
v 2.5 4 1.5
v 2.5 4 0.5
v 2.5 4 -0.5
v 2.5 4 -1.5
v 2.5 5 1.5
v 2.5 5 0.5
v 2.5 5 -0.5
v 2.5 5 -1.5
v -2.5 0 1.5
v -2.5 0 0.5
v -2.5 0 -0.5
v -2.5 0 -1.5
v -2.5 1 1.5
v -2.5 1 0.5
v -2.5 1 -0.5
v -2.5 1 -1.5
v -2.5 4 1.5
v -2.5 4 0.5
v -2.5 4 -0.5
v -2.5 4 -1.5
v -2.5 5 1.5
v -2.5 5 0.5
v -2.5 5 -0.5
v -2.5 5 -1.5
v 1.5 0 1.5
v 1.5 0 -1.5
v 1.5 1 2.5
v 1.5 1 1.5
v 1.5 1 0.5
v 1.5 1 -0.5
v 1.5 1 -1.5
v 1.5 1 -2.5
v 1.5 4 1.5
v 1.5 4 0.5
v 1.5 4 -0.5
v 1.5 4 -1.5
v 1.5 5 2.5
v 1.5 5 -2.5
v 5.5 0 1.5
v 5.5 0 0.5
v 5.5 0 -0.5
v 5.5 0 -1.5
v 5.5 1 1.5
v 5.5 1 0.5
v 5.5 1 -0.5
v 5.5 1 -1.5
v 5.5 4 1.5
v 5.5 4 0.5
v 5.5 4 -0.5
v 5.5 4 -1.5
v 5.5 5 1.5
v 5.5 5 0.5
v 5.5 5 -0.5
v 5.5 5 -1.5
v 6.5 1 1.5
v 6.5 1 0.5
v 6.5 1 -0.5
v 6.5 1 -1.5
v 6.5 4 1.5
v 6.5 4 0.5
v 6.5 4 -0.5
v 6.5 4 -1.5
v -1.5 1 2.5
v -1.5 5 2.5
v -0.5 1 2.5
v -0.5 5 2.5
v 0.5 1 2.5
v 0.5 5 2.5
v 1.5 1 2.5
v 1.5 5 2.5
v -6.5 1 1.5
v -6.5 4 1.5
v -5.5 0 1.5
v -5.5 1 1.5
v -5.5 4 1.5
v -5.5 5 1.5
v -2.5 0 1.5
v -2.5 1 1.5
v -2.5 4 1.5
v -2.5 5 1.5
v -1.5 0 1.5
v -1.5 1 1.5
v -1.5 4 1.5
v -0.5 1 1.5
v 0.5 1 1.5
v 1.5 0 1.5
v 1.5 1 1.5
v 1.5 4 1.5
v 2.5 0 1.5
v 2.5 1 1.5
v 2.5 4 1.5
v 2.5 5 1.5
v 5.5 0 1.5
v 5.5 1 1.5
v 5.5 4 1.5
v 5.5 5 1.5
v 6.5 1 1.5
v 6.5 4 1.5
v -6.5 1 -1.5
v -6.5 4 -1.5
v -5.5 0 -1.5
v -5.5 1 -1.5
v -5.5 4 -1.5
v -5.5 5 -1.5
v -2.5 0 -1.5
v -2.5 1 -1.5
v -2.5 4 -1.5
v -2.5 5 -1.5
v -1.5 0 -1.5
v -1.5 1 -1.5
v -1.5 4 -1.5
v -0.5 1 -1.5
v 0.5 1 -1.5
v 1.5 0 -1.5
v 1.5 1 -1.5
v 1.5 4 -1.5
v 2.5 0 -1.5
v 2.5 1 -1.5
v 2.5 4 -1.5
v 2.5 5 -1.5
v 5.5 0 -1.5
v 5.5 1 -1.5
v 5.5 4 -1.5
v 5.5 5 -1.5
v 6.5 1 -1.5
v 6.5 4 -1.5
v -1.5 1 -2.5
v -1.5 5 -2.5
v -0.5 1 -2.5
v -0.5 5 -2.5
v 0.5 1 -2.5
v 0.5 5 -2.5
v 1.5 1 -2.5
v 1.5 5 -2.5
v -5.5 0 1.5
v -2.5 0 1.5
v -1.5 0 1.5
v 1.5 0 1.5
v 2.5 0 1.5
v 5.5 0 1.5
v -5.5 0 0.5
v -2.5 0 0.5
v 2.5 0 0.5
v 5.5 0 0.5
v -5.5 0 -0.5
v -2.5 0 -0.5
v 2.5 0 -0.5
v 5.5 0 -0.5
v -5.5 0 -1.5
v -2.5 0 -1.5
v -1.5 0 -1.5
v 1.5 0 -1.5
v 2.5 0 -1.5
v 5.5 0 -1.5
v -1.5 1 2.5
v -0.5 1 2.5
v 0.5 1 2.5
v 1.5 1 2.5
v -6.5 1 1.5
v -5.5 1 1.5
v -2.5 1 1.5
v -1.5 1 1.5
v -0.5 1 1.5
v 0.5 1 1.5
v 1.5 1 1.5
v 2.5 1 1.5
v 5.5 1 1.5
v 6.5 1 1.5
v -6.5 1 0.5
v -5.5 1 0.5
v -2.5 1 0.5
v -1.5 1 0.5
v 1.5 1 0.5
v 2.5 1 0.5
v 5.5 1 0.5
v 6.5 1 0.5
v -6.5 1 -0.5
v -5.5 1 -0.5
v -2.5 1 -0.5
v -1.5 1 -0.5
v 1.5 1 -0.5
v 2.5 1 -0.5
v 5.5 1 -0.5
v 6.5 1 -0.5
v -6.5 1 -1.5
v -5.5 1 -1.5
v -2.5 1 -1.5
v -1.5 1 -1.5
v -0.5 1 -1.5
v 0.5 1 -1.5
v 1.5 1 -1.5
v 2.5 1 -1.5
v 5.5 1 -1.5
v 6.5 1 -1.5
v -1.5 1 -2.5
v -0.5 1 -2.5
v 0.5 1 -2.5
v 1.5 1 -2.5
v -6.5 4 1.5
v -5.5 4 1.5
v -2.5 4 1.5
v -1.5 4 1.5
v 1.5 4 1.5
v 2.5 4 1.5
v 5.5 4 1.5
v 6.5 4 1.5
v -6.5 4 0.5
v -5.5 4 0.5
v -2.5 4 0.5
v -1.5 4 0.5
v 1.5 4 0.5
v 2.5 4 0.5
v 5.5 4 0.5
v 6.5 4 0.5
v -6.5 4 -0.5
v -5.5 4 -0.5
v -2.5 4 -0.5
v -1.5 4 -0.5
v 1.5 4 -0.5
v 2.5 4 -0.5
v 5.5 4 -0.5
v 6.5 4 -0.5
v -6.5 4 -1.5
v -5.5 4 -1.5
v -2.5 4 -1.5
v -1.5 4 -1.5
v 1.5 4 -1.5
v 2.5 4 -1.5
v 5.5 4 -1.5
v 6.5 4 -1.5
v -1.5 5 2.5
v -0.5 5 2.5
v 0.5 5 2.5
v 1.5 5 2.5
v -5.5 5 1.5
v -2.5 5 1.5
v 2.5 5 1.5
v 5.5 5 1.5
v -5.5 5 0.5
v -2.5 5 0.5
v 2.5 5 0.5
v 5.5 5 0.5
v -5.5 5 -0.5
v -2.5 5 -0.5
v 2.5 5 -0.5
v 5.5 5 -0.5
v -5.5 5 -1.5
v -2.5 5 -1.5
v 2.5 5 -1.5
v 5.5 5 -1.5
v -1.5 5 -2.5
v -0.5 5 -2.5
v 0.5 5 -2.5
v 1.5 5 -2.5

# faces
f 5/1/1 2/1/1 1/1/1
f 6/2/1 3/2/1 2/2/1
f 6/1/1 2/1/1 5/1/1
f 7/1/1 4/1/1 3/1/1
f 7/2/1 3/2/1 6/2/1
f 8/1/1 4/1/1 7/1/1
f 13/1/1 10/1/1 9/1/1
f 14/2/1 11/2/1 10/2/1
f 14/1/1 10/1/1 13/1/1
f 15/1/1 12/1/1 11/1/1
f 15/2/1 11/2/1 14/2/1
f 16/1/1 12/1/1 15/1/1
f 21/1/1 18/1/1 17/1/1
f 22/2/1 19/2/1 18/2/1
f 22/1/1 18/1/1 21/1/1
f 23/1/1 20/1/1 19/1/1
f 23/2/1 19/2/1 22/2/1
f 24/1/1 20/1/1 23/1/1
f 28/3/1 26/3/1 25/3/1
f 29/3/1 26/3/1 28/3/1
f 30/3/1 26/3/1 29/3/1
f 31/3/1 26/3/1 30/3/1
f 33/3/1 28/3/1 27/3/1
f 36/3/1 32/3/1 31/3/1
f 37/3/1 35/3/1 34/3/1
f 37/3/1 36/3/1 35/3/1
f 37/3/1 33/3/1 27/3/1
f 37/3/1 34/3/1 33/3/1
f 38/3/1 32/3/1 36/3/1
f 38/3/1 36/3/1 37/3/1
f 43/1/1 40/1/1 39/1/1
f 44/2/1 41/2/1 40/2/1
f 44/1/1 40/1/1 43/1/1
f 45/1/1 42/1/1 41/1/1
f 45/2/1 41/2/1 44/2/1
f 46/1/1 42/1/1 45/1/1
f 51/1/1 48/1/1 47/1/1
f 52/2/1 49/2/1 48/2/1
f 52/1/1 48/1/1 51/1/1
f 53/1/1 50/1/1 49/1/1
f 53/2/1 49/2/1 52/2/1
f 54/1/1 50/1/1 53/1/1
f 55/1/2 56/1/2 59/1/2
f 56/2/2 57/2/2 60/2/2
f 59/1/2 56/1/2 60/1/2
f 57/1/2 58/1/2 61/1/2
f 60/2/2 57/2/2 61/2/2
f 61/1/2 58/1/2 62/1/2
f 63/1/2 64/1/2 67/1/2
f 64/2/2 65/2/2 68/2/2
f 67/1/2 64/1/2 68/1/2
f 65/1/2 66/1/2 69/1/2
f 68/2/2 65/2/2 69/2/2
f 69/1/2 66/1/2 70/1/2
f 71/3/2 72/3/2 74/3/2
f 74/3/2 72/3/2 75/3/2
f 75/3/2 72/3/2 76/3/2
f 76/3/2 72/3/2 77/3/2
f 73/3/2 74/3/2 79/3/2
f 77/3/2 78/3/2 82/3/2
f 80/3/2 81/3/2 83/3/2
f 81/3/2 82/3/2 83/3/2
f 73/3/2 79/3/2 83/3/2
f 79/3/2 80/3/2 83/3/2
f 82/3/2 78/3/2 84/3/2
f 83/3/2 82/3/2 84/3/2
f 85/1/2 86/1/2 89/1/2
f 86/2/2 87/2/2 90/2/2
f 89/1/2 86/1/2 90/1/2
f 87/1/2 88/1/2 91/1/2
f 90/2/2 87/2/2 91/2/2
f 91/1/2 88/1/2 92/1/2
f 93/1/2 94/1/2 97/1/2
f 94/2/2 95/2/2 98/2/2
f 97/1/2 94/1/2 98/1/2
f 95/1/2 96/1/2 99/1/2
f 98/2/2 95/2/2 99/2/2
f 99/1/2 96/1/2 100/1/2
f 101/1/2 102/1/2 105/1/2
f 102/2/2 103/2/2 106/2/2
f 105/1/2 102/1/2 106/1/2
f 103/1/2 104/1/2 107/1/2
f 106/2/2 103/2/2 107/2/2
f 107/1/2 104/1/2 108/1/2
f 111/3/3 110/3/3 109/3/3
f 112/3/3 110/3/3 111/3/3
f 113/1/3 112/1/3 111/1/3
f 114/1/3 112/1/3 113/1/3
f 115/3/3 114/3/3 113/3/3
f 116/3/3 114/3/3 115/3/3
f 120/1/3 118/1/3 117/1/3
f 121/1/3 118/1/3 120/1/3
f 123/1/3 120/1/3 119/1/3
f 123/1/3 122/1/3 121/1/3
f 123/1/3 121/1/3 120/1/3
f 124/1/3 122/1/3 123/1/3
f 125/1/3 122/1/3 124/1/3
f 126/1/3 122/1/3 125/1/3
f 128/1/3 125/1/3 124/1/3
f 129/1/3 125/1/3 128/1/3
f 130/3/3 128/3/3 127/3/3
f 131/3/3 130/3/3 127/3/3
f 132/3/3 131/3/3 127/3/3
f 133/3/3 131/3/3 132/3/3
f 136/1/3 134/1/3 133/1/3
f 137/1/3 134/1/3 136/1/3
f 139/1/3 137/1/3 136/1/3
f 139/1/3 138/1/3 137/1/3
f 139/1/3 136/1/3 135/1/3
f 140/1/3 138/1/3 139/1/3
f 141/1/3 138/1/3 140/1/3
f 142/1/3 138/1/3 141/1/3
f 143/1/3 141/1/3 140/1/3
f 144/1/3 141/1/3 143/1/3
f 145/1/4 146/1/4 148/1/4
f 148/1/4 146/1/4 149/1/4
f 147/1/4 148/1/4 151/1/4
f 149/1/4 150/1/4 151/1/4
f 148/1/4 149/1/4 151/1/4
f 151/1/4 150/1/4 152/1/4
f 152/1/4 150/1/4 153/1/4
f 153/1/4 150/1/4 154/1/4
f 152/1/4 153/1/4 156/1/4
f 156/1/4 153/1/4 157/1/4
f 155/3/4 156/3/4 158/3/4
f 155/3/4 158/3/4 159/3/4
f 155/3/4 159/3/4 160/3/4
f 160/3/4 159/3/4 161/3/4
f 161/1/4 162/1/4 164/1/4
f 164/1/4 162/1/4 165/1/4
f 164/1/4 165/1/4 167/1/4
f 165/1/4 166/1/4 167/1/4
f 163/1/4 164/1/4 167/1/4
f 167/1/4 166/1/4 168/1/4
f 168/1/4 166/1/4 169/1/4
f 169/1/4 166/1/4 170/1/4
f 168/1/4 169/1/4 171/1/4
f 171/1/4 169/1/4 172/1/4
f 173/3/4 174/3/4 175/3/4
f 175/3/4 174/3/4 176/3/4
f 175/1/4 176/1/4 177/1/4
f 177/1/4 176/1/4 178/1/4
f 177/3/4 178/3/4 179/3/4
f 179/3/4 178/3/4 180/3/4
f 187/1/5 182/1/5 181/1/5
f 188/1/5 182/1/5 187/1/5
f 189/1/5 186/1/5 185/1/5
f 190/1/5 186/1/5 189/1/5
f 191/2/5 188/2/5 187/2/5
f 192/2/5 188/2/5 191/2/5
f 193/2/5 190/2/5 189/2/5
f 194/2/5 190/2/5 193/2/5
f 195/1/5 192/1/5 191/1/5
f 196/1/5 192/1/5 195/1/5
f 197/3/5 184/3/5 183/3/5
f 198/3/5 184/3/5 197/3/5
f 199/1/5 194/1/5 193/1/5
f 200/1/5 194/1/5 199/1/5
f 208/3/5 202/3/5 201/3/5
f 209/1/5 203/1/5 202/1/5
f 209/3/5 202/3/5 208/3/5
f 210/3/5 204/3/5 203/3/5
f 210/1/5 203/1/5 209/1/5
f 211/3/5 204/3/5 210/3/5
f 215/1/5 206/1/5 205/1/5
f 216/1/5 206/1/5 215/1/5
f 217/1/5 208/1/5 207/1/5
f 218/1/5 208/1/5 217/1/5
f 219/1/5 212/1/5 211/1/5
f 220/1/5 212/1/5 219/1/5
f 221/1/5 214/1/5 213/1/5
f 222/1/5 214/1/5 221/1/5
f 223/2/5 216/2/5 215/2/5
f 224/2/5 216/2/5 223/2/5
f 225/2/5 218/2/5 217/2/5
f 226/2/5 218/2/5 225/2/5
f 227/2/5 220/2/5 219/2/5
f 228/2/5 220/2/5 227/2/5
f 229/2/5 222/2/5 221/2/5
f 230/2/5 222/2/5 229/2/5
f 231/1/5 224/1/5 223/1/5
f 232/1/5 224/1/5 231/1/5
f 233/1/5 226/1/5 225/1/5
f 234/1/5 226/1/5 233/1/5
f 237/1/5 228/1/5 227/1/5
f 238/1/5 228/1/5 237/1/5
f 239/1/5 230/1/5 229/1/5
f 240/1/5 230/1/5 239/1/5
f 241/3/5 235/3/5 234/3/5
f 242/1/5 236/1/5 235/1/5
f 242/3/5 235/3/5 241/3/5
f 243/3/5 237/3/5 236/3/5
f 243/1/5 236/1/5 242/1/5
f 244/3/5 237/3/5 243/3/5
f 245/1/6 246/1/6 253/1/6
f 253/1/6 246/1/6 254/1/6
f 247/1/6 248/1/6 255/1/6
f 255/1/6 248/1/6 256/1/6
f 249/1/6 250/1/6 257/1/6
f 257/1/6 250/1/6 258/1/6
f 251/1/6 252/1/6 259/1/6
f 259/1/6 252/1/6 260/1/6
f 253/2/6 254/2/6 261/2/6
f 261/2/6 254/2/6 262/2/6
f 255/2/6 256/2/6 263/2/6
f 263/2/6 256/2/6 264/2/6
f 257/2/6 258/2/6 265/2/6
f 265/2/6 258/2/6 266/2/6
f 259/2/6 260/2/6 267/2/6
f 267/2/6 260/2/6 268/2/6
f 261/1/6 262/1/6 269/1/6
f 269/1/6 262/1/6 270/1/6
f 263/1/6 264/1/6 271/1/6
f 271/1/6 264/1/6 272/1/6
f 265/1/6 266/1/6 273/1/6
f 273/1/6 266/1/6 274/1/6
f 267/1/6 268/1/6 275/1/6
f 275/1/6 268/1/6 276/1/6
f 281/1/6 282/1/6 285/1/6
f 285/1/6 282/1/6 286/1/6
f 283/1/6 284/1/6 287/1/6
f 287/1/6 284/1/6 288/1/6
f 285/2/6 286/2/6 289/2/6
f 289/2/6 286/2/6 290/2/6
f 287/2/6 288/2/6 291/2/6
f 291/2/6 288/2/6 292/2/6
f 289/1/6 290/1/6 293/1/6
f 293/1/6 290/1/6 294/1/6
f 291/1/6 292/1/6 295/1/6
f 295/1/6 292/1/6 296/1/6
f 277/3/6 278/3/6 297/3/6
f 278/1/6 279/1/6 298/1/6
f 297/3/6 278/3/6 298/3/6
f 279/3/6 280/3/6 299/3/6
f 298/1/6 279/1/6 299/1/6
f 299/3/6 280/3/6 300/3/6
