# MagicaVoxel @ ephtracy

# material
mtllib Leg.mtl
usemtl palette

# normals
vn -1 0 0
vn 1 0 0
vn 0 0 1
vn 0 0 -1
vn 0 -1 0
vn 0 1 0

# texcoords
vt 0.294922 0.5
vt 0.544922 0.5

# verts
v -1.5 8 1
v -1.5 8 -1
v -1.5 11 1
v -1.5 11 -1
v 0.5 0 -0
v 0.5 0 -1
v 0.5 1 -0
v 0.5 1 -1
v 0.5 8 -0
v 0.5 8 -1
v 0.5 8 1
v 0.5 8 -0
v 0.5 10 -0
v 0.5 10 -1
v 0.5 11 1
v 0.5 11 -1
v 1.5 0 -0
v 1.5 0 -1
v 1.5 1 -0
v 1.5 1 -1
v 1.5 10 -0
v 1.5 10 -1
v -1.5 8 1
v -1.5 11 1
v 0.5 8 1
v 0.5 11 1
v 0.5 0 -0
v 0.5 1 -0
v 0.5 8 -0
v 0.5 10 -0
v 1.5 0 -0
v 1.5 1 -0
v 1.5 10 -0
v -1.5 8 -1
v -1.5 11 -1
v 0.5 0 -1
v 0.5 1 -1
v 0.5 8 -1
v 0.5 10 -1
v 0.5 11 -1
v 1.5 0 -1
v 1.5 1 -1
v 1.5 10 -1
v 0.5 0 -0
v 1.5 0 -0
v 0.5 0 -1
v 1.5 0 -1
v -1.5 8 1
v 0.5 8 1
v 0.5 8 -0
v -1.5 8 -1
v 0.5 8 -1
v 0.5 10 -0
v 1.5 10 -0
v 0.5 10 -1
v 1.5 10 -1
v -1.5 11 1
v 0.5 11 1
v -1.5 11 -1
v 0.5 11 -1

# faces
f 3/2/1 2/2/1 1/2/1
f 4/2/1 2/2/1 3/2/1
f 7/2/1 6/2/1 5/2/1
f 8/2/1 6/2/1 7/2/1
f 9/1/1 8/1/1 7/1/1
f 10/1/1 8/1/1 9/1/1
f 11/2/2 12/2/2 13/2/2
f 11/2/2 13/2/2 15/2/2
f 13/2/2 14/2/2 15/2/2
f 15/2/2 14/2/2 16/2/2
f 17/2/2 18/2/2 19/2/2
f 19/2/2 18/2/2 20/2/2
f 19/1/2 20/1/2 21/1/2
f 21/1/2 20/1/2 22/1/2
f 25/2/3 24/2/3 23/2/3
f 26/2/3 24/2/3 25/2/3
f 31/2/3 28/2/3 27/2/3
f 32/1/3 30/1/3 29/1/3
f 32/2/3 28/2/3 31/2/3
f 32/1/3 29/1/3 28/1/3
f 33/1/3 30/1/3 32/1/3
f 34/2/4 35/2/4 38/2/4
f 38/2/4 35/2/4 39/2/4
f 39/2/4 35/2/4 40/2/4
f 36/2/4 37/2/4 41/2/4
f 37/1/4 38/1/4 42/1/4
f 41/2/4 37/2/4 42/2/4
f 38/1/4 39/1/4 42/1/4
f 42/1/4 39/1/4 43/1/4
f 46/2/5 45/2/5 44/2/5
f 47/2/5 45/2/5 46/2/5
f 50/2/5 49/2/5 48/2/5
f 51/2/5 50/2/5 48/2/5
f 52/2/5 50/2/5 51/2/5
f 53/1/6 54/1/6 55/1/6
f 55/1/6 54/1/6 56/1/6
f 57/2/6 58/2/6 59/2/6
f 59/2/6 58/2/6 60/2/6
