# MagicaVoxel @ ephtracy

# material
mtllib Tower.mtl
usemtl palette

# normals
vn -1 0 0
vn 1 0 0
vn 0 0 1
vn 0 0 -1
vn 0 -1 0
vn 0 1 0

# texcoords
vt 0.380859 0.5
vt 0.384766 0.5
vt 0.388672 0.5
vt 0.447266 0.5
vt 0.455078 0.5

# verts
v -3.5 10 0.5
v -3.5 10 -0.5
v -3.5 12 1.5
v -3.5 12 0.5
v -3.5 12 -0.5
v -3.5 12 -1.5
v -3.5 15 1.5
v -3.5 15 -1.5
v -2.5 4 2.5
v -2.5 4 -2.5
v -2.5 5 2.5
v -2.5 5 -2.5
v -2.5 6 2.5
v -2.5 6 -2.5
v -2.5 7 2.5
v -2.5 7 -2.5
v -2.5 8 2.5
v -2.5 8 -2.5
v -2.5 9 2.5
v -2.5 9 -2.5
v -2.5 10 2.5
v -2.5 10 0.5
v -2.5 10 -0.5
v -2.5 10 -2.5
v -2.5 11 2.5
v -2.5 11 0.5
v -2.5 11 -0.5
v -2.5 11 -2.5
v -2.5 12 1.5
v -2.5 12 0.5
v -2.5 12 -0.5
v -2.5 12 -1.5
v -2.5 15 1.5
v -2.5 15 -1.5
v -2.5 16 2.5
v -2.5 16 -2.5
v -1.5 0 1.5
v -1.5 0 -1.5
v -1.5 2 1.5
v -1.5 2 -1.5
v -1.5 4 1.5
v -1.5 4 -1.5
v -1.5 5 1.5
v -1.5 5 -1.5
v -1.5 6 1.5
v -1.5 6 -1.5
v -1.5 7 1.5
v -1.5 7 -1.5
v -1.5 8 1.5
v -1.5 8 -1.5
v -1.5 9 1.5
v -1.5 9 -1.5
v -1.5 10 1.5
v -1.5 10 -1.5
v -1.5 12 3.5
v -1.5 12 2.5
v -1.5 12 -2.5
v -1.5 12 -3.5
v -1.5 15 3.5
v -1.5 15 2.5
v -1.5 15 -2.5
v -1.5 15 -3.5
v -1.5 16 1.5
v -1.5 16 -1.5
v -1.5 17 1.5
v -1.5 17 -1.5
v -0.5 10 3.5
v -0.5 10 2.5
v -0.5 10 -2.5
v -0.5 10 -3.5
v -0.5 11 2.5
v -0.5 11 -2.5
v -0.5 12 3.5
v -0.5 12 2.5
v -0.5 12 -2.5
v -0.5 12 -3.5
v 0.5 10 3.5
v 0.5 10 2.5
v 0.5 10 -2.5
v 0.5 10 -3.5
v 0.5 11 2.5
v 0.5 11 -2.5
v 0.5 12 3.5
v 0.5 12 2.5
v 0.5 12 -2.5
v 0.5 12 -3.5
v 1.5 0 1.5
v 1.5 0 -1.5
v 1.5 2 1.5
v 1.5 2 -1.5
v 1.5 4 1.5
v 1.5 4 -1.5
v 1.5 5 1.5
v 1.5 5 -1.5
v 1.5 6 1.5
v 1.5 6 -1.5
v 1.5 7 1.5
v 1.5 7 -1.5
v 1.5 8 1.5
v 1.5 8 -1.5
v 1.5 9 1.5
v 1.5 9 -1.5
v 1.5 10 1.5
v 1.5 10 -1.5
v 1.5 12 3.5
v 1.5 12 2.5
v 1.5 12 -2.5
v 1.5 12 -3.5
v 1.5 15 3.5
v 1.5 15 2.5
v 1.5 15 -2.5
v 1.5 15 -3.5
v 1.5 16 1.5
v 1.5 16 -1.5
v 1.5 17 1.5
v 1.5 17 -1.5
v 2.5 4 2.5
v 2.5 4 -2.5
v 2.5 5 2.5
v 2.5 5 -2.5
v 2.5 6 2.5
v 2.5 6 -2.5
v 2.5 7 2.5
v 2.5 7 -2.5
v 2.5 8 2.5
v 2.5 8 -2.5
v 2.5 9 2.5
v 2.5 9 -2.5
v 2.5 10 2.5
v 2.5 10 0.5
v 2.5 10 -0.5
v 2.5 10 -2.5
v 2.5 11 2.5
v 2.5 11 0.5
v 2.5 11 -0.5
v 2.5 11 -2.5
v 2.5 12 1.5
v 2.5 12 0.5
v 2.5 12 -0.5
v 2.5 12 -1.5
v 2.5 15 1.5
v 2.5 15 -1.5
v 2.5 16 2.5
v 2.5 16 -2.5
v 3.5 10 0.5
v 3.5 10 -0.5
v 3.5 12 1.5
v 3.5 12 0.5
v 3.5 12 -0.5
v 3.5 12 -1.5
v 3.5 15 1.5
v 3.5 15 -1.5
v -1.5 12 3.5
v -1.5 15 3.5
v -0.5 10 3.5
v -0.5 12 3.5
v 0.5 10 3.5
v 0.5 12 3.5
v 1.5 12 3.5
v 1.5 15 3.5
v -2.5 4 2.5
v -2.5 5 2.5
v -2.5 6 2.5
v -2.5 7 2.5
v -2.5 8 2.5
v -2.5 9 2.5
v -2.5 10 2.5
v -2.5 11 2.5
v -2.5 16 2.5
v -1.5 12 2.5
v -1.5 15 2.5
v -0.5 10 2.5
v -0.5 11 2.5
v -0.5 12 2.5
v 0.5 10 2.5
v 0.5 11 2.5
v 0.5 12 2.5
v 1.5 12 2.5
v 1.5 15 2.5
v 2.5 4 2.5
v 2.5 5 2.5
v 2.5 6 2.5
v 2.5 7 2.5
v 2.5 8 2.5
v 2.5 9 2.5
v 2.5 10 2.5
v 2.5 11 2.5
v 2.5 16 2.5
v -3.5 12 1.5
v -3.5 15 1.5
v -2.5 12 1.5
v -2.5 15 1.5
v -1.5 0 1.5
v -1.5 2 1.5
v -1.5 4 1.5
v -1.5 5 1.5
v -1.5 6 1.5
v -1.5 7 1.5
v -1.5 8 1.5
v -1.5 9 1.5
v -1.5 10 1.5
v -1.5 16 1.5
v -1.5 17 1.5
v 1.5 0 1.5
v 1.5 2 1.5
v 1.5 4 1.5
v 1.5 5 1.5
v 1.5 6 1.5
v 1.5 7 1.5
v 1.5 8 1.5
v 1.5 9 1.5
v 1.5 10 1.5
v 1.5 16 1.5
v 1.5 17 1.5
v 2.5 12 1.5
v 2.5 15 1.5
v 3.5 12 1.5
v 3.5 15 1.5
v -3.5 10 0.5
v -3.5 12 0.5
v -2.5 10 0.5
v -2.5 11 0.5
v -2.5 12 0.5
v 2.5 10 0.5
v 2.5 11 0.5
v 2.5 12 0.5
v 3.5 10 0.5
v 3.5 12 0.5
v -3.5 10 -0.5
v -3.5 12 -0.5
v -2.5 10 -0.5
v -2.5 11 -0.5
v -2.5 12 -0.5
v 2.5 10 -0.5
v 2.5 11 -0.5
v 2.5 12 -0.5
v 3.5 10 -0.5
v 3.5 12 -0.5
v -3.5 12 -1.5
v -3.5 15 -1.5
v -2.5 12 -1.5
v -2.5 15 -1.5
v -1.5 0 -1.5
v -1.5 2 -1.5
v -1.5 4 -1.5
v -1.5 5 -1.5
v -1.5 6 -1.5
v -1.5 7 -1.5
v -1.5 8 -1.5
v -1.5 9 -1.5
v -1.5 10 -1.5
v -1.5 16 -1.5
v -1.5 17 -1.5
v 1.5 0 -1.5
v 1.5 2 -1.5
v 1.5 4 -1.5
v 1.5 5 -1.5
v 1.5 6 -1.5
v 1.5 7 -1.5
v 1.5 8 -1.5
v 1.5 9 -1.5
v 1.5 10 -1.5
v 1.5 16 -1.5
v 1.5 17 -1.5
v 2.5 12 -1.5
v 2.5 15 -1.5
v 3.5 12 -1.5
v 3.5 15 -1.5
v -2.5 4 -2.5
v -2.5 5 -2.5
v -2.5 6 -2.5
v -2.5 7 -2.5
v -2.5 8 -2.5
v -2.5 9 -2.5
v -2.5 10 -2.5
v -2.5 11 -2.5
v -2.5 16 -2.5
v -1.5 12 -2.5
v -1.5 15 -2.5
v -0.5 10 -2.5
v -0.5 11 -2.5
v -0.5 12 -2.5
v 0.5 10 -2.5
v 0.5 11 -2.5
v 0.5 12 -2.5
v 1.5 12 -2.5
v 1.5 15 -2.5
v 2.5 4 -2.5
v 2.5 5 -2.5
v 2.5 6 -2.5
v 2.5 7 -2.5
v 2.5 8 -2.5
v 2.5 9 -2.5
v 2.5 10 -2.5
v 2.5 11 -2.5
v 2.5 16 -2.5
v -1.5 12 -3.5
v -1.5 15 -3.5
v -0.5 10 -3.5
v -0.5 12 -3.5
v 0.5 10 -3.5
v 0.5 12 -3.5
v 1.5 12 -3.5
v 1.5 15 -3.5
v -1.5 0 1.5
v 1.5 0 1.5
v -1.5 0 -1.5
v 1.5 0 -1.5
v -2.5 4 2.5
v 2.5 4 2.5
v -1.5 4 1.5
v 1.5 4 1.5
v -1.5 4 -1.5
v 1.5 4 -1.5
v -2.5 4 -2.5
v 2.5 4 -2.5
v -2.5 6 2.5
v 2.5 6 2.5
v -1.5 6 1.5
v 1.5 6 1.5
v -1.5 6 -1.5
v 1.5 6 -1.5
v -2.5 6 -2.5
v 2.5 6 -2.5
v -2.5 8 2.5
v 2.5 8 2.5
v -1.5 8 1.5
v 1.5 8 1.5
v -1.5 8 -1.5
v 1.5 8 -1.5
v -2.5 8 -2.5
v 2.5 8 -2.5
v -0.5 10 3.5
v 0.5 10 3.5
v -2.5 10 2.5
v -0.5 10 2.5
v 0.5 10 2.5
v 2.5 10 2.5
v -1.5 10 1.5
v 1.5 10 1.5
v -3.5 10 0.5
v -2.5 10 0.5
v 2.5 10 0.5
v 3.5 10 0.5
v -3.5 10 -0.5
v -2.5 10 -0.5
v 2.5 10 -0.5
v 3.5 10 -0.5
v -1.5 10 -1.5
v 1.5 10 -1.5
v -2.5 10 -2.5
v -0.5 10 -2.5
v 0.5 10 -2.5
v 2.5 10 -2.5
v -0.5 10 -3.5
v 0.5 10 -3.5
v -1.5 12 3.5
v -0.5 12 3.5
v 0.5 12 3.5
v 1.5 12 3.5
v -1.5 12 2.5
v -0.5 12 2.5
v 0.5 12 2.5
v 1.5 12 2.5
v -3.5 12 1.5
v -2.5 12 1.5
v 2.5 12 1.5
v 3.5 12 1.5
v -3.5 12 0.5
v -2.5 12 0.5
v 2.5 12 0.5
v 3.5 12 0.5
v -3.5 12 -0.5
v -2.5 12 -0.5
v 2.5 12 -0.5
v 3.5 12 -0.5
v -3.5 12 -1.5
v -2.5 12 -1.5
v 2.5 12 -1.5
v 3.5 12 -1.5
v -1.5 12 -2.5
v -0.5 12 -2.5
v 0.5 12 -2.5
v 1.5 12 -2.5
v -1.5 12 -3.5
v -0.5 12 -3.5
v 0.5 12 -3.5
v 1.5 12 -3.5
v -2.5 5 2.5
v 2.5 5 2.5
v -1.5 5 1.5
v 1.5 5 1.5
v -1.5 5 -1.5
v 1.5 5 -1.5
v -2.5 5 -2.5
v 2.5 5 -2.5
v -2.5 7 2.5
v 2.5 7 2.5
v -1.5 7 1.5
v 1.5 7 1.5
v -1.5 7 -1.5
v 1.5 7 -1.5
v -2.5 7 -2.5
v 2.5 7 -2.5
v -2.5 9 2.5
v 2.5 9 2.5
v -1.5 9 1.5
v 1.5 9 1.5
v -1.5 9 -1.5
v 1.5 9 -1.5
v -2.5 9 -2.5
v 2.5 9 -2.5
v -1.5 15 3.5
v 1.5 15 3.5
v -1.5 15 2.5
v 1.5 15 2.5
v -3.5 15 1.5
v -2.5 15 1.5
v 2.5 15 1.5
v 3.5 15 1.5
v -3.5 15 -1.5
v -2.5 15 -1.5
v 2.5 15 -1.5
v 3.5 15 -1.5
v -1.5 15 -2.5
v 1.5 15 -2.5
v -1.5 15 -3.5
v 1.5 15 -3.5
v -2.5 16 2.5
v 2.5 16 2.5
v -1.5 16 1.5
v 1.5 16 1.5
v -1.5 16 -1.5
v 1.5 16 -1.5
v -2.5 16 -2.5
v 2.5 16 -2.5
v -1.5 17 1.5
v 1.5 17 1.5
v -1.5 17 -1.5
v 1.5 17 -1.5

# faces
f 4/4/1 2/4/1 1/4/1
f 5/4/1 2/4/1 4/4/1
f 7/3/1 4/3/1 3/3/1
f 7/3/1 6/3/1 5/3/1
f 7/3/1 5/3/1 4/3/1
f 8/3/1 6/3/1 7/3/1
f 11/1/1 10/1/1 9/1/1
f 12/1/1 10/1/1 11/1/1
f 15/2/1 14/2/1 13/2/1
f 16/2/1 14/2/1 15/2/1
f 19/3/1 18/3/1 17/3/1
f 20/3/1 18/3/1 19/3/1
f 25/4/1 22/4/1 21/4/1
f 26/4/1 22/4/1 25/4/1
f 27/4/1 24/4/1 23/4/1
f 28/4/1 24/4/1 27/4/1
f 29/2/1 26/2/1 25/2/1
f 30/2/1 26/2/1 29/2/1
f 31/2/1 28/2/1 27/2/1
f 32/2/1 28/2/1 31/2/1
f 33/2/1 29/2/1 25/2/1
f 34/2/1 28/2/1 32/2/1
f 35/2/1 33/2/1 25/2/1
f 35/2/1 34/2/1 33/2/1
f 36/2/1 28/2/1 34/2/1
f 36/2/1 34/2/1 35/2/1
f 39/4/1 38/4/1 37/4/1
f 40/4/1 38/4/1 39/4/1
f 41/5/1 40/5/1 39/5/1
f 42/5/1 40/5/1 41/5/1
f 45/5/1 44/5/1 43/5/1
f 46/5/1 44/5/1 45/5/1
f 49/5/1 48/5/1 47/5/1
f 50/5/1 48/5/1 49/5/1
f 53/4/1 52/4/1 51/4/1
f 54/4/1 52/4/1 53/4/1
f 59/3/1 56/3/1 55/3/1
f 60/3/1 56/3/1 59/3/1
f 61/3/1 58/3/1 57/3/1
f 62/3/1 58/3/1 61/3/1
f 65/3/1 64/3/1 63/3/1
f 66/3/1 64/3/1 65/3/1
f 71/4/1 68/4/1 67/4/1
f 72/4/1 70/4/1 69/4/1
f 73/4/1 71/4/1 67/4/1
f 74/4/1 71/4/1 73/4/1
f 75/4/1 70/4/1 72/4/1
f 76/4/1 70/4/1 75/4/1
f 77/4/2 78/4/2 81/4/2
f 79/4/2 80/4/2 82/4/2
f 77/4/2 81/4/2 83/4/2
f 83/4/2 81/4/2 84/4/2
f 82/4/2 80/4/2 85/4/2
f 85/4/2 80/4/2 86/4/2
f 87/4/2 88/4/2 89/4/2
f 89/4/2 88/4/2 90/4/2
f 89/5/2 90/5/2 91/5/2
f 91/5/2 90/5/2 92/5/2
f 93/5/2 94/5/2 95/5/2
f 95/5/2 94/5/2 96/5/2
f 97/5/2 98/5/2 99/5/2
f 99/5/2 98/5/2 100/5/2
f 101/4/2 102/4/2 103/4/2
f 103/4/2 102/4/2 104/4/2
f 105/3/2 106/3/2 109/3/2
f 109/3/2 106/3/2 110/3/2
f 107/3/2 108/3/2 111/3/2
f 111/3/2 108/3/2 112/3/2
f 113/3/2 114/3/2 115/3/2
f 115/3/2 114/3/2 116/3/2
f 117/1/2 118/1/2 119/1/2
f 119/1/2 118/1/2 120/1/2
f 121/2/2 122/2/2 123/2/2
f 123/2/2 122/2/2 124/2/2
f 125/3/2 126/3/2 127/3/2
f 127/3/2 126/3/2 128/3/2
f 129/4/2 130/4/2 133/4/2
f 133/4/2 130/4/2 134/4/2
f 131/4/2 132/4/2 135/4/2
f 135/4/2 132/4/2 136/4/2
f 133/2/2 134/2/2 137/2/2
f 137/2/2 134/2/2 138/2/2
f 135/2/2 136/2/2 139/2/2
f 139/2/2 136/2/2 140/2/2
f 133/2/2 137/2/2 141/2/2
f 140/2/2 136/2/2 142/2/2
f 133/2/2 141/2/2 143/2/2
f 141/2/2 142/2/2 143/2/2
f 142/2/2 136/2/2 144/2/2
f 143/2/2 142/2/2 144/2/2
f 145/4/2 146/4/2 148/4/2
f 148/4/2 146/4/2 149/4/2
f 147/3/2 148/3/2 151/3/2
f 149/3/2 150/3/2 151/3/2
f 148/3/2 149/3/2 151/3/2
f 151/3/2 150/3/2 152/3/2
f 156/3/3 154/3/3 153/3/3
f 157/4/3 156/4/3 155/4/3
f 158/3/3 154/3/3 156/3/3
f 158/4/3 156/4/3 157/4/3
f 159/3/3 154/3/3 158/3/3
f 160/3/3 154/3/3 159/3/3
f 170/2/3 169/2/3 168/2/3
f 171/2/3 169/2/3 170/2/3
f 172/4/3 168/4/3 167/4/3
f 173/2/3 170/2/3 168/2/3
f 173/4/3 168/4/3 172/4/3
f 174/2/3 170/2/3 173/2/3
f 178/2/3 177/2/3 176/2/3
f 179/2/3 169/2/3 171/2/3
f 180/1/3 162/1/3 161/1/3
f 181/1/3 162/1/3 180/1/3
f 182/2/3 164/2/3 163/2/3
f 183/2/3 164/2/3 182/2/3
f 184/3/3 166/3/3 165/3/3
f 185/3/3 166/3/3 184/3/3
f 186/4/3 176/4/3 175/4/3
f 187/2/3 179/2/3 178/2/3
f 187/4/3 176/4/3 186/4/3
f 187/2/3 178/2/3 176/2/3
f 188/2/3 169/2/3 179/2/3
f 188/2/3 179/2/3 187/2/3
f 191/3/3 190/3/3 189/3/3
f 192/3/3 190/3/3 191/3/3
f 204/4/3 194/4/3 193/4/3
f 205/5/3 195/5/3 194/5/3
f 205/4/3 194/4/3 204/4/3
f 206/5/3 195/5/3 205/5/3
f 207/5/3 197/5/3 196/5/3
f 208/5/3 197/5/3 207/5/3
f 209/5/3 199/5/3 198/5/3
f 210/5/3 199/5/3 209/5/3
f 211/4/3 201/4/3 200/4/3
f 212/4/3 201/4/3 211/4/3
f 213/3/3 203/3/3 202/3/3
f 214/3/3 203/3/3 213/3/3
f 217/3/3 216/3/3 215/3/3
f 218/3/3 216/3/3 217/3/3
f 221/4/3 220/4/3 219/4/3
f 222/4/3 220/4/3 221/4/3
f 223/4/3 220/4/3 222/4/3
f 227/4/3 225/4/3 224/4/3
f 227/4/3 226/4/3 225/4/3
f 228/4/3 226/4/3 227/4/3
f 229/4/4 230/4/4 231/4/4
f 231/4/4 230/4/4 232/4/4
f 232/4/4 230/4/4 233/4/4
f 234/4/4 235/4/4 237/4/4
f 235/4/4 236/4/4 237/4/4
f 237/4/4 236/4/4 238/4/4
f 239/3/4 240/3/4 241/3/4
f 241/3/4 240/3/4 242/3/4
f 243/4/4 244/4/4 254/4/4
f 244/5/4 245/5/4 255/5/4
f 254/4/4 244/4/4 255/4/4
f 255/5/4 245/5/4 256/5/4
f 246/5/4 247/5/4 257/5/4
f 257/5/4 247/5/4 258/5/4
f 248/5/4 249/5/4 259/5/4
f 259/5/4 249/5/4 260/5/4
f 250/4/4 251/4/4 261/4/4
f 261/4/4 251/4/4 262/4/4
f 252/3/4 253/3/4 263/3/4
f 263/3/4 253/3/4 264/3/4
f 265/3/4 266/3/4 267/3/4
f 267/3/4 266/3/4 268/3/4
f 276/2/4 277/2/4 278/2/4
f 278/2/4 277/2/4 279/2/4
f 275/4/4 276/4/4 280/4/4
f 276/2/4 278/2/4 281/2/4
f 280/4/4 276/4/4 281/4/4
f 281/2/4 278/2/4 282/2/4
f 284/2/4 285/2/4 286/2/4
f 279/2/4 277/2/4 287/2/4
f 269/1/4 270/1/4 288/1/4
f 288/1/4 270/1/4 289/1/4
f 271/2/4 272/2/4 290/2/4
f 290/2/4 272/2/4 291/2/4
f 273/3/4 274/3/4 292/3/4
f 292/3/4 274/3/4 293/3/4
f 283/4/4 284/4/4 294/4/4
f 286/2/4 287/2/4 295/2/4
f 294/4/4 284/4/4 295/4/4
f 284/2/4 286/2/4 295/2/4
f 287/2/4 277/2/4 296/2/4
f 295/2/4 287/2/4 296/2/4
f 297/3/4 298/3/4 300/3/4
f 299/4/4 300/4/4 301/4/4
f 300/3/4 298/3/4 302/3/4
f 301/4/4 300/4/4 302/4/4
f 302/3/4 298/3/4 303/3/4
f 303/3/4 298/3/4 304/3/4
f 307/4/5 306/4/5 305/4/5
f 308/4/5 306/4/5 307/4/5
f 311/1/5 310/1/5 309/1/5
f 312/1/5 310/1/5 311/1/5
f 313/1/5 311/1/5 309/1/5
f 314/1/5 310/1/5 312/1/5
f 315/1/5 313/1/5 309/1/5
f 315/1/5 314/1/5 313/1/5
f 316/1/5 310/1/5 314/1/5
f 316/1/5 314/1/5 315/1/5
f 319/2/5 318/2/5 317/2/5
f 320/2/5 318/2/5 319/2/5
f 321/2/5 319/2/5 317/2/5
f 322/2/5 318/2/5 320/2/5
f 323/2/5 321/2/5 317/2/5
f 323/2/5 322/2/5 321/2/5
f 324/2/5 318/2/5 322/2/5
f 324/2/5 322/2/5 323/2/5
f 327/3/5 326/3/5 325/3/5
f 328/3/5 326/3/5 327/3/5
f 329/3/5 327/3/5 325/3/5
f 330/3/5 326/3/5 328/3/5
f 331/3/5 329/3/5 325/3/5
f 331/3/5 330/3/5 329/3/5
f 332/3/5 326/3/5 330/3/5
f 332/3/5 330/3/5 331/3/5
f 336/4/5 334/4/5 333/4/5
f 337/4/5 334/4/5 336/4/5
f 339/4/5 336/4/5 335/4/5
f 339/4/5 338/4/5 337/4/5
f 339/4/5 337/4/5 336/4/5
f 340/4/5 338/4/5 339/4/5
f 342/4/5 339/4/5 335/4/5
f 343/4/5 338/4/5 340/4/5
f 345/4/5 342/4/5 341/4/5
f 346/4/5 339/4/5 342/4/5
f 346/4/5 342/4/5 345/4/5
f 347/4/5 344/4/5 343/4/5
f 347/4/5 343/4/5 340/4/5
f 348/4/5 344/4/5 347/4/5
f 349/4/5 339/4/5 346/4/5
f 350/4/5 347/4/5 340/4/5
f 351/4/5 349/4/5 346/4/5
f 351/4/5 350/4/5 349/4/5
f 352/4/5 350/4/5 351/4/5
f 353/4/5 350/4/5 352/4/5
f 354/4/5 347/4/5 350/4/5
f 354/4/5 350/4/5 353/4/5
f 355/4/5 353/4/5 352/4/5
f 356/4/5 353/4/5 355/4/5
f 361/3/5 358/3/5 357/3/5
f 362/3/5 358/3/5 361/3/5
f 363/3/5 360/3/5 359/3/5
f 364/3/5 360/3/5 363/3/5
f 369/3/5 366/3/5 365/3/5
f 370/3/5 366/3/5 369/3/5
f 371/3/5 368/3/5 367/3/5
f 372/3/5 368/3/5 371/3/5
f 377/3/5 374/3/5 373/3/5
f 378/3/5 374/3/5 377/3/5
f 379/3/5 376/3/5 375/3/5
f 380/3/5 376/3/5 379/3/5
f 385/3/5 382/3/5 381/3/5
f 386/3/5 382/3/5 385/3/5
f 387/3/5 384/3/5 383/3/5
f 388/3/5 384/3/5 387/3/5
f 389/1/6 390/1/6 391/1/6
f 391/1/6 390/1/6 392/1/6
f 389/1/6 391/1/6 393/1/6
f 392/1/6 390/1/6 394/1/6
f 389/1/6 393/1/6 395/1/6
f 393/1/6 394/1/6 395/1/6
f 394/1/6 390/1/6 396/1/6
f 395/1/6 394/1/6 396/1/6
f 397/2/6 398/2/6 399/2/6
f 399/2/6 398/2/6 400/2/6
f 397/2/6 399/2/6 401/2/6
f 400/2/6 398/2/6 402/2/6
f 397/2/6 401/2/6 403/2/6
f 401/2/6 402/2/6 403/2/6
f 402/2/6 398/2/6 404/2/6
f 403/2/6 402/2/6 404/2/6
f 405/3/6 406/3/6 407/3/6
f 407/3/6 406/3/6 408/3/6
f 405/3/6 407/3/6 409/3/6
f 408/3/6 406/3/6 410/3/6
f 405/3/6 409/3/6 411/3/6
f 409/3/6 410/3/6 411/3/6
f 410/3/6 406/3/6 412/3/6
f 411/3/6 410/3/6 412/3/6
f 413/3/6 414/3/6 415/3/6
f 415/3/6 414/3/6 416/3/6
f 417/3/6 418/3/6 421/3/6
f 421/3/6 418/3/6 422/3/6
f 419/3/6 420/3/6 423/3/6
f 423/3/6 420/3/6 424/3/6
f 425/3/6 426/3/6 427/3/6
f 427/3/6 426/3/6 428/3/6
f 429/2/6 430/2/6 431/2/6
f 431/2/6 430/2/6 432/2/6
f 429/2/6 431/2/6 433/2/6
f 432/2/6 430/2/6 434/2/6
f 429/2/6 433/2/6 435/2/6
f 433/2/6 434/2/6 435/2/6
f 434/2/6 430/2/6 436/2/6
f 435/2/6 434/2/6 436/2/6
f 437/3/6 438/3/6 439/3/6
f 439/3/6 438/3/6 440/3/6
