# MagicaVoxel @ ephtracy

# material
mtllib Gun.mtl
usemtl palette

# normals
vn -1 0 0
vn 1 0 0
vn 0 0 1
vn 0 0 -1
vn 0 -1 0
vn 0 1 0

# texcoords
vt 0.447266 0.5
vt 0.455078 0.5

# verts
v -0.5 0 1.5
v -0.5 0 0.5
v -0.5 0 -6.5
v -0.5 1 6.5
v -0.5 1 1.5
v -0.5 2 6.5
v -0.5 2 0.5
v -0.5 2 -6.5
v 0.5 0 1.5
v 0.5 0 0.5
v 0.5 0 -6.5
v 0.5 1 6.5
v 0.5 1 1.5
v 0.5 2 6.5
v 0.5 2 0.5
v 0.5 2 -6.5
v -0.5 1 6.5
v -0.5 2 6.5
v 0.5 1 6.5
v 0.5 2 6.5
v -0.5 0 1.5
v -0.5 1 1.5
v 0.5 0 1.5
v 0.5 1 1.5
v -0.5 0 -6.5
v -0.5 2 -6.5
v 0.5 0 -6.5
v 0.5 2 -6.5
v -0.5 0 1.5
v 0.5 0 1.5
v -0.5 0 0.5
v 0.5 0 0.5
v -0.5 0 -6.5
v 0.5 0 -6.5
v -0.5 1 6.5
v 0.5 1 6.5
v -0.5 1 1.5
v 0.5 1 1.5
v -0.5 2 6.5
v 0.5 2 6.5
v -0.5 2 0.5
v 0.5 2 0.5
v -0.5 2 -6.5
v 0.5 2 -6.5

# faces
f 5/2/1 2/2/1 1/2/1
f 6/2/1 5/2/1 4/2/1
f 7/1/1 3/1/1 2/1/1
f 7/2/1 5/2/1 6/2/1
f 7/2/1 2/2/1 5/2/1
f 8/1/1 3/1/1 7/1/1
f 9/2/2 10/2/2 13/2/2
f 12/2/2 13/2/2 14/2/2
f 10/1/2 11/1/2 15/1/2
f 14/2/2 13/2/2 15/2/2
f 13/2/2 10/2/2 15/2/2
f 15/1/2 11/1/2 16/1/2
f 19/2/3 18/2/3 17/2/3
f 20/2/3 18/2/3 19/2/3
f 23/2/3 22/2/3 21/2/3
f 24/2/3 22/2/3 23/2/3
f 25/1/4 26/1/4 27/1/4
f 27/1/4 26/1/4 28/1/4
f 31/2/5 30/2/5 29/2/5
f 32/2/5 30/2/5 31/2/5
f 33/1/5 32/1/5 31/1/5
f 34/1/5 32/1/5 33/1/5
f 37/2/5 36/2/5 35/2/5
f 38/2/5 36/2/5 37/2/5
f 39/2/6 40/2/6 41/2/6
f 41/2/6 40/2/6 42/2/6
f 41/1/6 42/1/6 43/1/6
f 43/1/6 42/1/6 44/1/6
