# MagicaVoxel @ ephtracy

# material
mtllib Turret.mtl
usemtl palette

# normals
vn -1 0 0
vn 1 0 0
vn 0 0 1
vn 0 0 -1
vn 0 -1 0
vn 0 1 0

# texcoords
vt 0.294922 0.5
vt 0.302734 0.5
vt 0.537109 0.5
vt 0.544922 0.5

# verts
v -10.5 2 -0.5
v -10.5 2 -3.5
v -10.5 3 -0.5
v -10.5 3 -3.5
v -10.5 6 -0.5
v -10.5 6 -3.5
v -10.5 7 -0.5
v -10.5 7 -3.5
v -3.5 1 1.5
v -3.5 1 -5.5
v -3.5 2 1.5
v -3.5 2 -0.5
v -3.5 2 -3.5
v -3.5 2 -5.5
v -3.5 3 1.5
v -3.5 3 -0.5
v -3.5 3 -3.5
v -3.5 3 -5.5
v -3.5 6 1.5
v -3.5 6 -0.5
v -3.5 6 -3.5
v -3.5 6 -5.5
v -3.5 7 1.5
v -3.5 7 -0.5
v -3.5 7 -3.5
v -3.5 7 -5.5
v -3.5 8 1.5
v -3.5 8 -5.5
v -1.5 0 -0.5
v -1.5 0 -3.5
v -1.5 1 5.5
v -1.5 1 4.5
v -1.5 1 2.5
v -1.5 1 1.5
v -1.5 1 -0.5
v -1.5 1 -3.5
v -1.5 2 4.5
v -1.5 2 2.5
v -1.5 2 1.5
v -1.5 3 4.5
v -1.5 3 2.5
v -1.5 3 1.5
v -1.5 4 5.5
v -1.5 4 4.5
v -1.5 4 2.5
v -1.5 4 1.5
v 0.5 2 5.5
v 0.5 2 4.5
v 0.5 3 5.5
v 0.5 3 4.5
v -0.5 2 5.5
v -0.5 2 4.5
v -0.5 3 5.5
v -0.5 3 4.5
v 1.5 0 -0.5
v 1.5 0 -3.5
v 1.5 1 5.5
v 1.5 1 4.5
v 1.5 1 2.5
v 1.5 1 1.5
v 1.5 1 -0.5
v 1.5 1 -3.5
v 1.5 2 4.5
v 1.5 2 2.5
v 1.5 2 1.5
v 1.5 3 4.5
v 1.5 3 2.5
v 1.5 3 1.5
v 1.5 4 5.5
v 1.5 4 4.5
v 1.5 4 2.5
v 1.5 4 1.5
v 3.5 1 1.5
v 3.5 1 -5.5
v 3.5 2 1.5
v 3.5 2 -0.5
v 3.5 2 -3.5
v 3.5 2 -5.5
v 3.5 3 1.5
v 3.5 3 -0.5
v 3.5 3 -3.5
v 3.5 3 -5.5
v 3.5 6 1.5
v 3.5 6 -0.5
v 3.5 6 -3.5
v 3.5 6 -5.5
v 3.5 7 1.5
v 3.5 7 -0.5
v 3.5 7 -3.5
v 3.5 7 -5.5
v 3.5 8 1.5
v 3.5 8 -5.5
v 10.5 2 -0.5
v 10.5 2 -3.5
v 10.5 3 -0.5
v 10.5 3 -3.5
v 10.5 6 -0.5
v 10.5 6 -3.5
v 10.5 7 -0.5
v 10.5 7 -3.5
v -1.5 1 5.5
v -1.5 4 5.5
v -0.5 2 5.5
v -0.5 3 5.5
v 0.5 2 5.5
v 0.5 3 5.5
v 1.5 1 5.5
v 1.5 4 5.5
v -0.5 2 4.5
v -0.5 3 4.5
v 0.5 2 4.5
v 0.5 3 4.5
v -3.5 1 1.5
v -3.5 2 1.5
v -3.5 3 1.5
v -3.5 6 1.5
v -3.5 7 1.5
v -3.5 8 1.5
v -1.5 1 1.5
v -1.5 2 1.5
v -1.5 3 1.5
v -1.5 4 1.5
v 1.5 1 1.5
v 1.5 2 1.5
v 1.5 3 1.5
v 1.5 4 1.5
v 3.5 1 1.5
v 3.5 2 1.5
v 3.5 3 1.5
v 3.5 6 1.5
v 3.5 7 1.5
v 3.5 8 1.5
v -10.5 2 -0.5
v -10.5 3 -0.5
v -10.5 6 -0.5
v -10.5 7 -0.5
v -3.5 2 -0.5
v -3.5 3 -0.5
v -3.5 6 -0.5
v -3.5 7 -0.5
v -1.5 0 -0.5
v -1.5 1 -0.5
v 1.5 0 -0.5
v 1.5 1 -0.5
v 3.5 2 -0.5
v 3.5 3 -0.5
v 3.5 6 -0.5
v 3.5 7 -0.5
v 10.5 2 -0.5
v 10.5 3 -0.5
v 10.5 6 -0.5
v 10.5 7 -0.5
v -10.5 2 -3.5
v -10.5 3 -3.5
v -10.5 6 -3.5
v -10.5 7 -3.5
v -3.5 2 -3.5
v -3.5 3 -3.5
v -3.5 6 -3.5
v -3.5 7 -3.5
v -1.5 0 -3.5
v -1.5 1 -3.5
v 1.5 0 -3.5
v 1.5 1 -3.5
v 3.5 2 -3.5
v 3.5 3 -3.5
v 3.5 6 -3.5
v 3.5 7 -3.5
v 10.5 2 -3.5
v 10.5 3 -3.5
v 10.5 6 -3.5
v 10.5 7 -3.5
v -3.5 1 -5.5
v -3.5 2 -5.5
v -3.5 3 -5.5
v -3.5 6 -5.5
v -3.5 7 -5.5
v -3.5 8 -5.5
v 3.5 1 -5.5
v 3.5 2 -5.5
v 3.5 3 -5.5
v 3.5 6 -5.5
v 3.5 7 -5.5
v 3.5 8 -5.5
v -1.5 0 -0.5
v 1.5 0 -0.5
v -1.5 0 -3.5
v 1.5 0 -3.5
v -1.5 1 5.5
v 1.5 1 5.5
v -1.5 1 4.5
v 1.5 1 4.5
v -1.5 1 2.5
v 1.5 1 2.5
v -3.5 1 1.5
v -1.5 1 1.5
v 1.5 1 1.5
v 3.5 1 1.5
v -1.5 1 -0.5
v 1.5 1 -0.5
v -1.5 1 -3.5
v 1.5 1 -3.5
v -3.5 1 -5.5
v 3.5 1 -5.5
v -10.5 2 -0.5
v -3.5 2 -0.5
v 3.5 2 -0.5
v 10.5 2 -0.5
v -10.5 2 -3.5
v -3.5 2 -3.5
v 3.5 2 -3.5
v 10.5 2 -3.5
v -0.5 3 5.5
v 0.5 3 5.5
v -0.5 3 4.5
v 0.5 3 4.5
v -10.5 6 -0.5
v -3.5 6 -0.5
v 3.5 6 -0.5
v 10.5 6 -0.5
v -10.5 6 -3.5
v -3.5 6 -3.5
v 3.5 6 -3.5
v 10.5 6 -3.5
v -0.5 2 5.5
v 0.5 2 5.5
v -0.5 2 4.5
v 0.5 2 4.5
v -10.5 3 -0.5
v -3.5 3 -0.5
v 3.5 3 -0.5
v 10.5 3 -0.5
v -10.5 3 -3.5
v -3.5 3 -3.5
v 3.5 3 -3.5
v 10.5 3 -3.5
v -1.5 4 5.5
v 1.5 4 5.5
v -1.5 4 4.5
v 1.5 4 4.5
v -1.5 4 2.5
v 1.5 4 2.5
v -1.5 4 1.5
v 1.5 4 1.5
v -10.5 7 -0.5
v -3.5 7 -0.5
v 3.5 7 -0.5
v 10.5 7 -0.5
v -10.5 7 -3.5
v -3.5 7 -3.5
v 3.5 7 -3.5
v 10.5 7 -3.5
v -3.5 8 1.5
v 3.5 8 1.5
v -3.5 8 -5.5
v 3.5 8 -5.5

# faces
f 3/4/1 2/4/1 1/4/1
f 4/4/1 2/4/1 3/4/1
f 7/4/1 6/4/1 5/4/1
f 8/4/1 6/4/1 7/4/1
f 11/1/1 10/1/1 9/1/1
f 12/1/1 10/1/1 11/1/1
f 13/1/1 10/1/1 12/1/1
f 14/1/1 10/1/1 13/1/1
f 15/2/1 12/2/1 11/2/1
f 16/2/1 12/2/1 15/2/1
f 17/2/1 14/2/1 13/2/1
f 18/2/1 14/2/1 17/2/1
f 19/1/1 16/1/1 15/1/1
f 19/1/1 17/1/1 16/1/1
f 19/1/1 18/1/1 17/1/1
f 20/1/1 18/1/1 19/1/1
f 21/1/1 18/1/1 20/1/1
f 22/1/1 18/1/1 21/1/1
f 23/2/1 20/2/1 19/2/1
f 24/2/1 20/2/1 23/2/1
f 25/2/1 22/2/1 21/2/1
f 26/2/1 22/2/1 25/2/1
f 27/1/1 24/1/1 23/1/1
f 27/1/1 25/1/1 24/1/1
f 27/1/1 26/1/1 25/1/1
f 28/1/1 26/1/1 27/1/1
f 35/4/1 30/4/1 29/4/1
f 36/4/1 30/4/1 35/4/1
f 37/4/1 32/4/1 31/4/1
f 37/1/1 33/1/1 32/1/1
f 38/4/1 34/4/1 33/4/1
f 38/1/1 33/1/1 37/1/1
f 39/4/1 34/4/1 38/4/1
f 40/4/1 37/4/1 31/4/1
f 40/2/1 38/2/1 37/2/1
f 41/4/1 39/4/1 38/4/1
f 41/2/1 38/2/1 40/2/1
f 42/4/1 39/4/1 41/4/1
f 43/4/1 40/4/1 31/4/1
f 44/1/1 41/1/1 40/1/1
f 44/4/1 40/4/1 43/4/1
f 45/4/1 42/4/1 41/4/1
f 45/1/1 41/1/1 44/1/1
f 46/4/1 42/4/1 45/4/1
f 49/4/1 48/4/1 47/4/1
f 50/4/1 48/4/1 49/4/1
f 51/4/2 52/4/2 53/4/2
f 53/4/2 52/4/2 54/4/2
f 55/4/2 56/4/2 61/4/2
f 61/4/2 56/4/2 62/4/2
f 57/4/2 58/4/2 63/4/2
f 58/1/2 59/1/2 63/1/2
f 59/4/2 60/4/2 64/4/2
f 63/1/2 59/1/2 64/1/2
f 64/4/2 60/4/2 65/4/2
f 57/4/2 63/4/2 66/4/2
f 63/2/2 64/2/2 66/2/2
f 64/4/2 65/4/2 67/4/2
f 66/2/2 64/2/2 67/2/2
f 67/4/2 65/4/2 68/4/2
f 57/4/2 66/4/2 69/4/2
f 66/1/2 67/1/2 70/1/2
f 69/4/2 66/4/2 70/4/2
f 67/4/2 68/4/2 71/4/2
f 70/1/2 67/1/2 71/1/2
f 71/4/2 68/4/2 72/4/2
f 73/1/2 74/1/2 75/1/2
f 75/1/2 74/1/2 76/1/2
f 76/1/2 74/1/2 77/1/2
f 77/1/2 74/1/2 78/1/2
f 75/2/2 76/2/2 79/2/2
f 79/2/2 76/2/2 80/2/2
f 77/2/2 78/2/2 81/2/2
f 81/2/2 78/2/2 82/2/2
f 79/1/2 80/1/2 83/1/2
f 80/1/2 81/1/2 83/1/2
f 81/1/2 82/1/2 83/1/2
f 83/1/2 82/1/2 84/1/2
f 84/1/2 82/1/2 85/1/2
f 85/1/2 82/1/2 86/1/2
f 83/2/2 84/2/2 87/2/2
f 87/2/2 84/2/2 88/2/2
f 85/2/2 86/2/2 89/2/2
f 89/2/2 86/2/2 90/2/2
f 87/1/2 88/1/2 91/1/2
f 88/1/2 89/1/2 91/1/2
f 89/1/2 90/1/2 91/1/2
f 91/1/2 90/1/2 92/1/2
f 93/4/2 94/4/2 95/4/2
f 95/4/2 94/4/2 96/4/2
f 97/4/2 98/4/2 99/4/2
f 99/4/2 98/4/2 100/4/2
f 103/4/3 102/4/3 101/4/3
f 104/4/3 102/4/3 103/4/3
f 105/4/3 103/4/3 101/4/3
f 106/4/3 102/4/3 104/4/3
f 107/4/3 105/4/3 101/4/3
f 107/4/3 106/4/3 105/4/3
f 108/4/3 102/4/3 106/4/3
f 108/4/3 106/4/3 107/4/3
f 111/3/3 110/3/3 109/3/3
f 112/3/3 110/3/3 111/3/3
f 119/1/3 114/1/3 113/1/3
f 120/2/3 115/2/3 114/2/3
f 120/1/3 114/1/3 119/1/3
f 121/1/3 116/1/3 115/1/3
f 121/2/3 115/2/3 120/2/3
f 122/1/3 116/1/3 121/1/3
f 126/1/3 116/1/3 122/1/3
f 127/1/3 124/1/3 123/1/3
f 128/2/3 125/2/3 124/2/3
f 128/1/3 124/1/3 127/1/3
f 129/1/3 126/1/3 125/1/3
f 129/2/3 125/2/3 128/2/3
f 130/2/3 117/2/3 116/2/3
f 130/1/3 126/1/3 129/1/3
f 130/1/3 116/1/3 126/1/3
f 131/1/3 118/1/3 117/1/3
f 131/2/3 117/2/3 130/2/3
f 132/1/3 118/1/3 131/1/3
f 137/4/3 134/4/3 133/4/3
f 138/4/3 134/4/3 137/4/3
f 139/4/3 136/4/3 135/4/3
f 140/4/3 136/4/3 139/4/3
f 143/4/3 142/4/3 141/4/3
f 144/4/3 142/4/3 143/4/3
f 149/4/3 146/4/3 145/4/3
f 150/4/3 146/4/3 149/4/3
f 151/4/3 148/4/3 147/4/3
f 152/4/3 148/4/3 151/4/3
f 153/4/4 154/4/4 157/4/4
f 157/4/4 154/4/4 158/4/4
f 155/4/4 156/4/4 159/4/4
f 159/4/4 156/4/4 160/4/4
f 161/4/4 162/4/4 163/4/4
f 163/4/4 162/4/4 164/4/4
f 165/4/4 166/4/4 169/4/4
f 169/4/4 166/4/4 170/4/4
f 167/4/4 168/4/4 171/4/4
f 171/4/4 168/4/4 172/4/4
f 173/1/4 174/1/4 179/1/4
f 174/2/4 175/2/4 180/2/4
f 179/1/4 174/1/4 180/1/4
f 175/1/4 176/1/4 181/1/4
f 180/2/4 175/2/4 181/2/4
f 176/2/4 177/2/4 182/2/4
f 181/1/4 176/1/4 182/1/4
f 177/1/4 178/1/4 183/1/4
f 182/2/4 177/2/4 183/2/4
f 183/1/4 178/1/4 184/1/4
f 187/4/5 186/4/5 185/4/5
f 188/4/5 186/4/5 187/4/5
f 191/4/5 190/4/5 189/4/5
f 192/4/5 190/4/5 191/4/5
f 193/1/5 192/1/5 191/1/5
f 194/1/5 192/1/5 193/1/5
f 196/4/5 194/4/5 193/4/5
f 197/4/5 194/4/5 196/4/5
f 199/1/5 197/1/5 196/1/5
f 199/1/5 198/1/5 197/1/5
f 199/1/5 196/1/5 195/1/5
f 200/1/5 198/1/5 199/1/5
f 201/1/5 199/1/5 195/1/5
f 202/1/5 198/1/5 200/1/5
f 203/1/5 201/1/5 195/1/5
f 203/1/5 202/1/5 201/1/5
f 204/1/5 198/1/5 202/1/5
f 204/1/5 202/1/5 203/1/5
f 209/4/5 206/4/5 205/4/5
f 210/4/5 206/4/5 209/4/5
f 211/4/5 208/4/5 207/4/5
f 212/4/5 208/4/5 211/4/5
f 215/4/5 214/4/5 213/4/5
f 216/4/5 214/4/5 215/4/5
f 221/4/5 218/4/5 217/4/5
f 222/4/5 218/4/5 221/4/5
f 223/4/5 220/4/5 219/4/5
f 224/4/5 220/4/5 223/4/5
f 225/4/6 226/4/6 227/4/6
f 227/4/6 226/4/6 228/4/6
f 229/4/6 230/4/6 233/4/6
f 233/4/6 230/4/6 234/4/6
f 231/4/6 232/4/6 235/4/6
f 235/4/6 232/4/6 236/4/6
f 237/4/6 238/4/6 239/4/6
f 239/4/6 238/4/6 240/4/6
f 239/1/6 240/1/6 241/1/6
f 241/1/6 240/1/6 242/1/6
f 241/4/6 242/4/6 243/4/6
f 243/4/6 242/4/6 244/4/6
f 245/4/6 246/4/6 249/4/6
f 249/4/6 246/4/6 250/4/6
f 247/4/6 248/4/6 251/4/6
f 251/4/6 248/4/6 252/4/6
f 253/1/6 254/1/6 255/1/6
f 255/1/6 254/1/6 256/1/6
