# MagicaVoxel @ ephtracy

# material
mtllib Turret.mtl
usemtl palette

# normals
vn -1 0 0
vn 1 0 0
vn 0 0 1
vn 0 0 -1
vn 0 -1 0
vn 0 1 0

# texcoords
vt 0.197266 0.5
vt 0.294922 0.5
vt 0.302734 0.5
vt 0.537109 0.5
vt 0.544922 0.5
vt 0.552734 0.5

# verts
v -10.5 1 0.5
v -10.5 1 -0.5
v -10.5 1 -1.5
v -10.5 1 -2.5
v -10.5 6 0.5
v -10.5 6 -0.5
v -10.5 6 -1.5
v -10.5 6 -2.5
v -4.5 2 3.5
v -4.5 2 0.5
v -4.5 3 3.5
v -4.5 3 1.5
v -4.5 5 0.5
v -4.5 6 3.5
v -4.5 6 1.5
v -4.5 6 0.5
v -4.5 6 -5.5
v -4.5 7 3.5
v -4.5 7 -5.5
v -4.5 8 3.5
v -4.5 8 -5.5
v -4.5 9 3.5
v -4.5 9 1.5
v -4.5 9 0.5
v -4.5 9 -5.5
v -4.5 11 3.5
v -4.5 11 1.5
v -4.5 11 0.5
v -3.5 1 5.5
v -3.5 1 2.5
v -3.5 1 1.5
v -3.5 1 -4.5
v -3.5 2 3.5
v -3.5 2 2.5
v -3.5 2 1.5
v -3.5 2 0.5
v -3.5 2 -2.5
v -3.5 3 3.5
v -3.5 5 0.5
v -3.5 5 -2.5
v -3.5 6 5.5
v -3.5 6 3.5
v -3.5 6 0.5
v -3.5 6 -4.5
v -3.5 9 0.5
v -3.5 9 -4.5
v -3.5 10 0.5
v -3.5 10 -4.5
v -2.5 1 2.5
v -2.5 1 1.5
v -2.5 2 2.5
v -2.5 2 1.5
v -1.5 0 0.5
v -1.5 0 -2.5
v -1.5 1 0.5
v -1.5 1 -2.5
v -1.5 9 -4.5
v -1.5 9 -5.5
v -1.5 10 0.5
v -1.5 10 -4.5
v -1.5 11 0.5
v -1.5 11 -5.5
v 5.5 1 0.5
v 5.5 1 -0.5
v 5.5 1 -1.5
v 5.5 1 -2.5
v 5.5 2 0.5
v 5.5 2 -0.5
v 5.5 2 -1.5
v 5.5 2 -2.5
v 5.5 5 0.5
v 5.5 5 -0.5
v 5.5 5 -1.5
v 5.5 5 -2.5
v 5.5 6 0.5
v 5.5 6 -0.5
v 5.5 6 -1.5
v 5.5 6 -2.5
v -5.5 1 0.5
v -5.5 1 -0.5
v -5.5 1 -1.5
v -5.5 1 -2.5
v -5.5 2 0.5
v -5.5 2 -0.5
v -5.5 2 -1.5
v -5.5 2 -2.5
v -5.5 5 0.5
v -5.5 5 -0.5
v -5.5 5 -1.5
v -5.5 5 -2.5
v -5.5 6 0.5
v -5.5 6 -0.5
v -5.5 6 -1.5
v -5.5 6 -2.5
v 1.5 0 0.5
v 1.5 0 -2.5
v 1.5 1 0.5
v 1.5 1 -2.5
v 1.5 9 -4.5
v 1.5 9 -5.5
v 1.5 10 0.5
v 1.5 10 -4.5
v 1.5 11 0.5
v 1.5 11 -5.5
v 2.5 1 2.5
v 2.5 1 1.5
v 2.5 2 2.5
v 2.5 2 1.5
v 3.5 1 5.5
v 3.5 1 2.5
v 3.5 1 1.5
v 3.5 1 -4.5
v 3.5 2 3.5
v 3.5 2 2.5
v 3.5 2 1.5
v 3.5 2 0.5
v 3.5 2 -2.5
v 3.5 3 3.5
v 3.5 5 0.5
v 3.5 5 -2.5
v 3.5 6 5.5
v 3.5 6 3.5
v 3.5 6 0.5
v 3.5 6 -4.5
v 3.5 9 0.5
v 3.5 9 -4.5
v 3.5 10 0.5
v 3.5 10 -4.5
v 4.5 2 3.5
v 4.5 2 0.5
v 4.5 3 3.5
v 4.5 3 1.5
v 4.5 5 0.5
v 4.5 6 3.5
v 4.5 6 1.5
v 4.5 6 0.5
v 4.5 6 -5.5
v 4.5 7 3.5
v 4.5 7 -5.5
v 4.5 8 3.5
v 4.5 8 -5.5
v 4.5 9 3.5
v 4.5 9 1.5
v 4.5 9 0.5
v 4.5 9 -5.5
v 4.5 11 3.5
v 4.5 11 1.5
v 4.5 11 0.5
v 10.5 1 0.5
v 10.5 1 -0.5
v 10.5 1 -1.5
v 10.5 1 -2.5
v 10.5 6 0.5
v 10.5 6 -0.5
v 10.5 6 -1.5
v 10.5 6 -2.5
v -3.5 1 5.5
v -3.5 6 5.5
v -2.5 2 5.5
v -2.5 5 5.5
v -1.5 2 5.5
v -1.5 5 5.5
v -0.5 2 5.5
v -0.5 5 5.5
v 0.5 2 5.5
v 0.5 5 5.5
v 1.5 2 5.5
v 1.5 5 5.5
v 2.5 2 5.5
v 2.5 5 5.5
v 3.5 1 5.5
v 3.5 6 5.5
v -4.5 2 3.5
v -4.5 3 3.5
v -4.5 6 3.5
v -4.5 7 3.5
v -4.5 8 3.5
v -4.5 9 3.5
v -4.5 11 3.5
v -3.5 2 3.5
v -3.5 3 3.5
v -3.5 6 3.5
v -3.5 7 3.5
v -3.5 8 3.5
v -1.5 7 3.5
v -1.5 8 3.5
v 1.5 7 3.5
v 1.5 8 3.5
v 3.5 2 3.5
v 3.5 3 3.5
v 3.5 6 3.5
v 3.5 7 3.5
v 3.5 8 3.5
v 4.5 2 3.5
v 4.5 3 3.5
v 4.5 6 3.5
v 4.5 7 3.5
v 4.5 8 3.5
v 4.5 9 3.5
v 4.5 11 3.5
v -3.5 1 1.5
v -3.5 2 1.5
v -2.5 1 1.5
v -2.5 2 1.5
v 2.5 1 1.5
v 2.5 2 1.5
v 3.5 1 1.5
v 3.5 2 1.5
v -10.5 1 0.5
v -10.5 6 0.5
v -5.5 1 0.5
v -5.5 2 0.5
v -5.5 5 0.5
v -5.5 6 0.5
v -4.5 2 0.5
v -4.5 5 0.5
v -1.5 0 0.5
v -1.5 1 0.5
v 1.5 0 0.5
v 1.5 1 0.5
v 4.5 2 0.5
v 4.5 5 0.5
v 5.5 1 0.5
v 5.5 2 0.5
v 5.5 5 0.5
v 5.5 6 0.5
v 10.5 1 0.5
v 10.5 6 0.5
v -3.5 1 2.5
v -3.5 2 2.5
v -2.5 1 2.5
v -2.5 2 2.5
v 2.5 1 2.5
v 2.5 2 2.5
v 3.5 1 2.5
v 3.5 2 2.5
v -4.5 5 0.5
v -4.5 6 0.5
v -4.5 9 0.5
v -4.5 11 0.5
v -3.5 5 0.5
v -3.5 6 0.5
v -3.5 9 0.5
v -3.5 10 0.5
v -1.5 10 0.5
v -1.5 11 0.5
v 1.5 10 0.5
v 1.5 11 0.5
v 3.5 5 0.5
v 3.5 6 0.5
v 3.5 9 0.5
v 3.5 10 0.5
v 4.5 5 0.5
v 4.5 6 0.5
v 4.5 9 0.5
v 4.5 11 0.5
v -10.5 1 -2.5
v -10.5 6 -2.5
v -5.5 1 -2.5
v -5.5 2 -2.5
v -5.5 5 -2.5
v -5.5 6 -2.5
v -3.5 2 -2.5
v -3.5 5 -2.5
v -1.5 0 -2.5
v -1.5 1 -2.5
v 1.5 0 -2.5
v 1.5 1 -2.5
v 3.5 2 -2.5
v 3.5 5 -2.5
v 5.5 1 -2.5
v 5.5 2 -2.5
v 5.5 5 -2.5
v 5.5 6 -2.5
v 10.5 1 -2.5
v 10.5 6 -2.5
v -3.5 1 -4.5
v -3.5 6 -4.5
v -3.5 9 -4.5
v -3.5 10 -4.5
v -1.5 9 -4.5
v -1.5 10 -4.5
v 1.5 9 -4.5
v 1.5 10 -4.5
v 3.5 1 -4.5
v 3.5 6 -4.5
v 3.5 9 -4.5
v 3.5 10 -4.5
v -4.5 6 -5.5
v -4.5 7 -5.5
v -4.5 8 -5.5
v -4.5 9 -5.5
v -1.5 9 -5.5
v -1.5 11 -5.5
v -0.5 8 -5.5
v -0.5 11 -5.5
v 0.5 8 -5.5
v 0.5 11 -5.5
v 1.5 9 -5.5
v 1.5 11 -5.5
v 4.5 6 -5.5
v 4.5 7 -5.5
v 4.5 8 -5.5
v 4.5 9 -5.5
v -1.5 0 0.5
v 1.5 0 0.5
v -1.5 0 -2.5
v 1.5 0 -2.5
v -3.5 1 5.5
v 3.5 1 5.5
v -3.5 1 2.5
v -2.5 1 2.5
v 2.5 1 2.5
v 3.5 1 2.5
v -3.5 1 1.5
v -2.5 1 1.5
v 2.5 1 1.5
v 3.5 1 1.5
v -10.5 1 0.5
v -5.5 1 0.5
v -1.5 1 0.5
v 1.5 1 0.5
v 5.5 1 0.5
v 10.5 1 0.5
v -10.5 1 -0.5
v -5.5 1 -0.5
v 5.5 1 -0.5
v 10.5 1 -0.5
v -10.5 1 -1.5
v -5.5 1 -1.5
v 5.5 1 -1.5
v 10.5 1 -1.5
v -10.5 1 -2.5
v -5.5 1 -2.5
v -1.5 1 -2.5
v 1.5 1 -2.5
v 5.5 1 -2.5
v 10.5 1 -2.5
v -3.5 1 -4.5
v 3.5 1 -4.5
v -4.5 2 3.5
v -3.5 2 3.5
v 3.5 2 3.5
v 4.5 2 3.5
v -3.5 2 2.5
v -2.5 2 2.5
v 2.5 2 2.5
v 3.5 2 2.5
v -3.5 2 1.5
v -2.5 2 1.5
v 2.5 2 1.5
v 3.5 2 1.5
v -5.5 2 0.5
v -4.5 2 0.5
v -3.5 2 0.5
v 3.5 2 0.5
v 4.5 2 0.5
v 5.5 2 0.5
v -5.5 2 -0.5
v 5.5 2 -0.5
v -5.5 2 -1.5
v 5.5 2 -1.5
v -5.5 2 -2.5
v -3.5 2 -2.5
v 3.5 2 -2.5
v 5.5 2 -2.5
v -4.5 6 0.5
v -3.5 6 0.5
v 3.5 6 0.5
v 4.5 6 0.5
v -3.5 6 -4.5
v 3.5 6 -4.5
v -4.5 6 -5.5
v 4.5 6 -5.5
v -5.5 5 0.5
v -4.5 5 0.5
v -3.5 5 0.5
v 3.5 5 0.5
v 4.5 5 0.5
v 5.5 5 0.5
v -5.5 5 -0.5
v 5.5 5 -0.5
v -5.5 5 -1.5
v 5.5 5 -1.5
v -5.5 5 -2.5
v -3.5 5 -2.5
v 3.5 5 -2.5
v 5.5 5 -2.5
v -3.5 6 5.5
v 3.5 6 5.5
v -3.5 6 3.5
v 3.5 6 3.5
v -10.5 6 0.5
v -5.5 6 0.5
v 5.5 6 0.5
v 10.5 6 0.5
v -10.5 6 -0.5
v -5.5 6 -0.5
v 5.5 6 -0.5
v 10.5 6 -0.5
v -10.5 6 -1.5
v -5.5 6 -1.5
v 5.5 6 -1.5
v 10.5 6 -1.5
v -10.5 6 -2.5
v -5.5 6 -2.5
v 5.5 6 -2.5
v 10.5 6 -2.5
v -4.5 9 0.5
v -3.5 9 0.5
v 3.5 9 0.5
v 4.5 9 0.5
v -3.5 9 -4.5
v -1.5 9 -4.5
v 1.5 9 -4.5
v 3.5 9 -4.5
v -4.5 9 -5.5
v -1.5 9 -5.5
v 1.5 9 -5.5
v 4.5 9 -5.5
v -3.5 10 0.5
v -1.5 10 0.5
v 1.5 10 0.5
v 3.5 10 0.5
v -3.5 10 -4.5
v -1.5 10 -4.5
v 1.5 10 -4.5
v 3.5 10 -4.5
v -4.5 11 3.5
v 4.5 11 3.5
v -4.5 11 1.5
v -0.5 11 1.5
v 0.5 11 1.5
v 4.5 11 1.5
v -4.5 11 0.5
v -1.5 11 0.5
v 1.5 11 0.5
v 4.5 11 0.5
v -1.5 11 -5.5
v -0.5 11 -5.5
v 0.5 11 -5.5
v 1.5 11 -5.5

# faces
f 5/2/1 2/2/1 1/2/1
f 6/3/1 3/3/1 2/3/1
f 6/2/1 2/2/1 5/2/1
f 7/2/1 4/2/1 3/2/1
f 7/3/1 3/3/1 6/3/1
f 8/2/1 4/2/1 7/2/1
f 11/5/1 10/5/1 9/5/1
f 12/5/1 10/5/1 11/5/1
f 13/5/1 10/5/1 12/5/1
f 14/6/1 12/6/1 11/6/1
f 15/5/1 13/5/1 12/5/1
f 15/6/1 12/6/1 14/6/1
f 16/5/1 13/5/1 15/5/1
f 18/5/1 16/5/1 15/5/1
f 18/5/1 17/5/1 16/5/1
f 18/5/1 15/5/1 14/5/1
f 19/5/1 17/5/1 18/5/1
f 20/6/1 19/6/1 18/6/1
f 21/6/1 19/6/1 20/6/1
f 22/5/1 21/5/1 20/5/1
f 23/5/1 21/5/1 22/5/1
f 24/5/1 21/5/1 23/5/1
f 25/5/1 21/5/1 24/5/1
f 26/6/1 23/6/1 22/6/1
f 27/5/1 24/5/1 23/5/1
f 27/6/1 23/6/1 26/6/1
f 28/5/1 24/5/1 27/5/1
f 33/5/1 30/5/1 29/5/1
f 34/5/1 30/5/1 33/5/1
f 35/2/1 32/2/1 31/2/1
f 36/2/1 32/2/1 35/2/1
f 37/2/1 32/2/1 36/2/1
f 38/5/1 33/5/1 29/5/1
f 40/2/1 32/2/1 37/2/1
f 41/5/1 38/5/1 29/5/1
f 42/5/1 38/5/1 41/5/1
f 43/2/1 40/2/1 39/2/1
f 44/2/1 32/2/1 40/2/1
f 44/2/1 40/2/1 43/2/1
f 47/2/1 46/2/1 45/2/1
f 48/2/1 46/2/1 47/2/1
f 51/2/1 50/2/1 49/2/1
f 52/2/1 50/2/1 51/2/1
f 55/5/1 54/5/1 53/5/1
f 56/5/1 54/5/1 55/5/1
f 60/5/1 58/5/1 57/5/1
f 61/5/1 60/5/1 59/5/1
f 62/5/1 58/5/1 60/5/1
f 62/5/1 60/5/1 61/5/1
f 67/2/1 64/2/1 63/2/1
f 68/3/1 65/3/1 64/3/1
f 68/2/1 64/2/1 67/2/1
f 69/2/1 66/2/1 65/2/1
f 69/3/1 65/3/1 68/3/1
f 70/2/1 66/2/1 69/2/1
f 75/2/1 72/2/1 71/2/1
f 76/3/1 73/3/1 72/3/1
f 76/2/1 72/2/1 75/2/1
f 77/2/1 74/2/1 73/2/1
f 77/3/1 73/3/1 76/3/1
f 78/2/1 74/2/1 77/2/1
f 79/2/2 80/2/2 83/2/2
f 80/3/2 81/3/2 84/3/2
f 83/2/2 80/2/2 84/2/2
f 81/2/2 82/2/2 85/2/2
f 84/3/2 81/3/2 85/3/2
f 85/2/2 82/2/2 86/2/2
f 87/2/2 88/2/2 91/2/2
f 88/3/2 89/3/2 92/3/2
f 91/2/2 88/2/2 92/2/2
f 89/2/2 90/2/2 93/2/2
f 92/3/2 89/3/2 93/3/2
f 93/2/2 90/2/2 94/2/2
f 95/5/2 96/5/2 97/5/2
f 97/5/2 96/5/2 98/5/2
f 99/5/2 100/5/2 102/5/2
f 101/5/2 102/5/2 103/5/2
f 102/5/2 100/5/2 104/5/2
f 103/5/2 102/5/2 104/5/2
f 105/2/2 106/2/2 107/2/2
f 107/2/2 106/2/2 108/2/2
f 109/5/2 110/5/2 113/5/2
f 113/5/2 110/5/2 114/5/2
f 111/2/2 112/2/2 115/2/2
f 115/2/2 112/2/2 116/2/2
f 116/2/2 112/2/2 117/2/2
f 109/5/2 113/5/2 118/5/2
f 117/2/2 112/2/2 120/2/2
f 109/5/2 118/5/2 121/5/2
f 121/5/2 118/5/2 122/5/2
f 119/2/2 120/2/2 123/2/2
f 120/2/2 112/2/2 124/2/2
f 123/2/2 120/2/2 124/2/2
f 125/2/2 126/2/2 127/2/2
f 127/2/2 126/2/2 128/2/2
f 129/5/2 130/5/2 131/5/2
f 131/5/2 130/5/2 132/5/2
f 132/5/2 130/5/2 133/5/2
f 131/6/2 132/6/2 134/6/2
f 132/5/2 133/5/2 135/5/2
f 134/6/2 132/6/2 135/6/2
f 135/5/2 133/5/2 136/5/2
f 135/5/2 136/5/2 138/5/2
f 136/5/2 137/5/2 138/5/2
f 134/5/2 135/5/2 138/5/2
f 138/5/2 137/5/2 139/5/2
f 138/6/2 139/6/2 140/6/2
f 140/6/2 139/6/2 141/6/2
f 140/5/2 141/5/2 142/5/2
f 142/5/2 141/5/2 143/5/2
f 143/5/2 141/5/2 144/5/2
f 144/5/2 141/5/2 145/5/2
f 142/6/2 143/6/2 146/6/2
f 143/5/2 144/5/2 147/5/2
f 146/6/2 143/6/2 147/6/2
f 147/5/2 144/5/2 148/5/2
f 149/2/2 150/2/2 153/2/2
f 150/3/2 151/3/2 154/3/2
f 153/2/2 150/2/2 154/2/2
f 151/2/2 152/2/2 155/2/2
f 154/3/2 151/3/2 155/3/2
f 155/2/2 152/2/2 156/2/2
f 159/5/3 158/5/3 157/5/3
f 160/5/3 158/5/3 159/5/3
f 161/5/3 159/5/3 157/5/3
f 161/6/3 160/6/3 159/6/3
f 162/5/3 158/5/3 160/5/3
f 162/6/3 160/6/3 161/6/3
f 163/5/3 161/5/3 157/5/3
f 163/5/3 162/5/3 161/5/3
f 164/5/3 158/5/3 162/5/3
f 164/5/3 162/5/3 163/5/3
f 165/5/3 163/5/3 157/5/3
f 165/6/3 164/6/3 163/6/3
f 166/5/3 158/5/3 164/5/3
f 166/6/3 164/6/3 165/6/3
f 167/5/3 165/5/3 157/5/3
f 167/5/3 166/5/3 165/5/3
f 168/5/3 158/5/3 166/5/3
f 168/5/3 166/5/3 167/5/3
f 169/5/3 167/5/3 157/5/3
f 169/6/3 168/6/3 167/6/3
f 170/5/3 158/5/3 168/5/3
f 170/6/3 168/6/3 169/6/3
f 171/5/3 169/5/3 157/5/3
f 171/5/3 170/5/3 169/5/3
f 172/5/3 158/5/3 170/5/3
f 172/5/3 170/5/3 171/5/3
f 180/5/3 174/5/3 173/5/3
f 181/6/3 175/6/3 174/6/3
f 181/5/3 174/5/3 180/5/3
f 182/5/3 176/5/3 175/5/3
f 182/6/3 175/6/3 181/6/3
f 183/6/3 177/6/3 176/6/3
f 183/5/3 176/5/3 182/5/3
f 184/5/3 178/5/3 177/5/3
f 184/6/3 177/6/3 183/6/3
f 185/1/3 184/1/3 183/1/3
f 185/5/3 183/5/3 182/5/3
f 186/5/3 178/5/3 184/5/3
f 186/1/3 184/1/3 185/1/3
f 187/5/3 185/5/3 182/5/3
f 187/6/3 186/6/3 185/6/3
f 188/5/3 178/5/3 186/5/3
f 188/6/3 186/6/3 187/6/3
f 191/5/3 187/5/3 182/5/3
f 192/1/3 188/1/3 187/1/3
f 192/5/3 187/5/3 191/5/3
f 193/5/3 178/5/3 188/5/3
f 193/1/3 188/1/3 192/1/3
f 194/5/3 190/5/3 189/5/3
f 195/6/3 191/6/3 190/6/3
f 195/5/3 190/5/3 194/5/3
f 196/5/3 192/5/3 191/5/3
f 196/6/3 191/6/3 195/6/3
f 197/6/3 193/6/3 192/6/3
f 197/5/3 192/5/3 196/5/3
f 198/5/3 178/5/3 193/5/3
f 198/6/3 193/6/3 197/6/3
f 199/6/3 179/6/3 178/6/3
f 199/5/3 178/5/3 198/5/3
f 200/6/3 179/6/3 199/6/3
f 203/2/3 202/2/3 201/2/3
f 204/2/3 202/2/3 203/2/3
f 207/2/3 206/2/3 205/2/3
f 208/2/3 206/2/3 207/2/3
f 211/2/3 210/2/3 209/2/3
f 212/2/3 210/2/3 211/2/3
f 213/2/3 210/2/3 212/2/3
f 214/2/3 210/2/3 213/2/3
f 215/2/3 213/2/3 212/2/3
f 216/2/3 213/2/3 215/2/3
f 219/5/3 218/5/3 217/5/3
f 220/5/3 218/5/3 219/5/3
f 224/2/3 222/2/3 221/2/3
f 225/2/3 222/2/3 224/2/3
f 227/2/3 225/2/3 224/2/3
f 227/2/3 226/2/3 225/2/3
f 227/2/3 224/2/3 223/2/3
f 228/2/3 226/2/3 227/2/3
f 229/5/4 230/5/4 231/5/4
f 231/5/4 230/5/4 232/5/4
f 233/5/4 234/5/4 235/5/4
f 235/5/4 234/5/4 236/5/4
f 237/5/4 238/5/4 241/5/4
f 241/5/4 238/5/4 242/5/4
f 239/5/4 240/5/4 243/5/4
f 243/5/4 240/5/4 244/5/4
f 244/5/4 240/5/4 245/5/4
f 245/5/4 240/5/4 246/5/4
f 247/5/4 248/5/4 252/5/4
f 249/5/4 250/5/4 253/5/4
f 253/5/4 250/5/4 254/5/4
f 251/5/4 252/5/4 255/5/4
f 252/5/4 248/5/4 256/5/4
f 255/5/4 252/5/4 256/5/4
f 257/2/4 258/2/4 259/2/4
f 259/2/4 258/2/4 260/2/4
f 260/2/4 258/2/4 261/2/4
f 261/2/4 258/2/4 262/2/4
f 260/2/4 261/2/4 263/2/4
f 263/2/4 261/2/4 264/2/4
f 265/5/4 266/5/4 267/5/4
f 267/5/4 266/5/4 268/5/4
f 269/2/4 270/2/4 272/2/4
f 272/2/4 270/2/4 273/2/4
f 272/2/4 273/2/4 275/2/4
f 273/2/4 274/2/4 275/2/4
f 271/2/4 272/2/4 275/2/4
f 275/2/4 274/2/4 276/2/4
f 279/2/4 280/2/4 281/2/4
f 281/2/4 280/2/4 282/2/4
f 277/2/4 278/2/4 285/2/4
f 285/2/4 278/2/4 286/2/4
f 283/2/4 284/2/4 287/2/4
f 287/2/4 284/2/4 288/2/4
f 291/5/4 292/5/4 293/5/4
f 290/6/4 291/6/4 295/6/4
f 293/5/4 294/5/4 295/5/4
f 291/5/4 293/5/4 295/5/4
f 295/5/4 294/5/4 296/5/4
f 290/6/4 295/6/4 297/6/4
f 295/6/4 296/6/4 297/6/4
f 297/6/4 296/6/4 298/6/4
f 297/5/4 298/5/4 299/5/4
f 299/5/4 298/5/4 300/5/4
f 289/5/4 290/5/4 301/5/4
f 290/6/4 297/6/4 302/6/4
f 301/5/4 290/5/4 302/5/4
f 297/5/4 299/5/4 303/5/4
f 302/6/4 297/6/4 303/6/4
f 303/5/4 299/5/4 304/5/4
f 307/5/5 306/5/5 305/5/5
f 308/5/5 306/5/5 307/5/5
f 311/5/5 310/5/5 309/5/5
f 312/5/5 310/5/5 311/5/5
f 313/5/5 310/5/5 312/5/5
f 314/5/5 310/5/5 313/5/5
f 316/2/5 313/2/5 312/2/5
f 317/2/5 313/2/5 316/2/5
f 321/2/5 316/2/5 315/2/5
f 321/2/5 317/2/5 316/2/5
f 321/2/5 318/2/5 317/2/5
f 322/2/5 318/2/5 321/2/5
f 325/2/5 320/2/5 319/2/5
f 326/2/5 320/2/5 325/2/5
f 327/2/5 324/2/5 323/2/5
f 328/2/5 324/2/5 327/2/5
f 329/3/5 326/3/5 325/3/5
f 330/3/5 326/3/5 329/3/5
f 331/3/5 328/3/5 327/3/5
f 332/3/5 328/3/5 331/3/5
f 333/2/5 330/2/5 329/2/5
f 334/2/5 330/2/5 333/2/5
f 335/2/5 321/2/5 315/2/5
f 336/2/5 318/2/5 322/2/5
f 337/2/5 332/2/5 331/2/5
f 338/2/5 332/2/5 337/2/5
f 339/2/5 335/2/5 315/2/5
f 339/2/5 336/2/5 335/2/5
f 340/2/5 318/2/5 336/2/5
f 340/2/5 336/2/5 339/2/5
f 345/5/5 342/5/5 341/5/5
f 348/5/5 344/5/5 343/5/5
f 349/5/5 346/5/5 345/5/5
f 349/5/5 345/5/5 341/5/5
f 350/5/5 346/5/5 349/5/5
f 351/5/5 348/5/5 347/5/5
f 352/5/5 344/5/5 348/5/5
f 352/5/5 348/5/5 351/5/5
f 354/5/5 349/5/5 341/5/5
f 355/5/5 349/5/5 354/5/5
f 356/5/5 344/5/5 352/5/5
f 357/5/5 344/5/5 356/5/5
f 359/2/5 355/2/5 354/2/5
f 359/2/5 354/2/5 353/2/5
f 360/2/5 358/2/5 357/2/5
f 360/2/5 357/2/5 356/2/5
f 361/2/5 355/2/5 359/2/5
f 362/2/5 360/2/5 356/2/5
f 363/2/5 355/2/5 361/2/5
f 364/2/5 355/2/5 363/2/5
f 365/2/5 362/2/5 356/2/5
f 366/2/5 362/2/5 365/2/5
f 371/5/5 368/5/5 367/5/5
f 372/5/5 370/5/5 369/5/5
f 373/5/5 371/5/5 367/5/5
f 373/5/5 372/5/5 371/5/5
f 374/5/5 370/5/5 372/5/5
f 374/5/5 372/5/5 373/5/5
f 375/2/6 376/2/6 381/2/6
f 376/2/6 377/2/6 381/2/6
f 379/2/6 380/2/6 382/2/6
f 378/2/6 379/2/6 382/2/6
f 381/2/6 377/2/6 383/2/6
f 378/2/6 382/2/6 384/2/6
f 383/2/6 377/2/6 385/2/6
f 385/2/6 377/2/6 386/2/6
f 378/2/6 384/2/6 387/2/6
f 387/2/6 384/2/6 388/2/6
f 389/5/6 390/5/6 391/5/6
f 391/5/6 390/5/6 392/5/6
f 393/2/6 394/2/6 397/2/6
f 397/2/6 394/2/6 398/2/6
f 395/2/6 396/2/6 399/2/6
f 399/2/6 396/2/6 400/2/6
f 397/3/6 398/3/6 401/3/6
f 401/3/6 398/3/6 402/3/6
f 399/3/6 400/3/6 403/3/6
f 403/3/6 400/3/6 404/3/6
f 401/2/6 402/2/6 405/2/6
f 405/2/6 402/2/6 406/2/6
f 403/2/6 404/2/6 407/2/6
f 407/2/6 404/2/6 408/2/6
f 409/5/6 410/5/6 413/5/6
f 411/5/6 412/5/6 416/5/6
f 413/5/6 414/5/6 417/5/6
f 409/5/6 413/5/6 417/5/6
f 417/5/6 414/5/6 418/5/6
f 415/5/6 416/5/6 419/5/6
f 416/5/6 412/5/6 420/5/6
f 419/5/6 416/5/6 420/5/6
f 421/2/6 422/2/6 425/2/6
f 425/2/6 422/2/6 426/2/6
f 423/2/6 424/2/6 427/2/6
f 427/2/6 424/2/6 428/2/6
f 429/6/6 430/6/6 431/6/6
f 431/6/6 430/6/6 432/6/6
f 432/6/6 430/6/6 433/6/6
f 433/6/6 430/6/6 434/6/6
f 431/5/6 432/5/6 435/5/6
f 435/5/6 432/5/6 436/5/6
f 433/5/6 434/5/6 437/5/6
f 437/5/6 434/5/6 438/5/6
f 436/5/6 432/5/6 439/5/6
f 432/6/6 433/6/6 440/6/6
f 439/5/6 432/5/6 440/5/6
f 433/5/6 437/5/6 441/5/6
f 440/6/6 433/6/6 441/6/6
f 441/5/6 437/5/6 442/5/6
