# MagicaVoxel @ ephtracy

# material
mtllib Turret_2.mtl
usemtl palette

# normals
vn -1 0 0
vn 1 0 0
vn 0 0 1
vn 0 0 -1
vn 0 -1 0
vn 0 1 0

# texcoords
vt 0.294922 0.5
vt 0.302734 0.5
vt 0.544922 0.5

# verts
v -3.5 1 0.5
v -3.5 1 -0.5
v -3.5 3 0.5
v -3.5 3 -0.5
v -2.5 1 2.5
v -2.5 1 0.5
v -2.5 1 -0.5
v -2.5 1 -2.5
v -2.5 2 2.5
v -2.5 2 0.5
v -2.5 2 -0.5
v -2.5 2 -2.5
v -2.5 3 2.5
v -2.5 3 0.5
v -2.5 3 -0.5
v -2.5 3 -2.5
v -1.5 0 1.5
v -1.5 0 -1.5
v -1.5 1 1.5
v -1.5 1 -1.5
v 1.5 0 1.5
v 1.5 0 -1.5
v 1.5 1 1.5
v 1.5 1 -1.5
v 2.5 1 2.5
v 2.5 1 0.5
v 2.5 1 -0.5
v 2.5 1 -2.5
v 2.5 2 2.5
v 2.5 2 0.5
v 2.5 2 -0.5
v 2.5 2 -2.5
v 2.5 3 2.5
v 2.5 3 0.5
v 2.5 3 -0.5
v 2.5 3 -2.5
v 3.5 1 0.5
v 3.5 1 -0.5
v 3.5 3 0.5
v 3.5 3 -0.5
v -2.5 1 2.5
v -2.5 2 2.5
v -2.5 3 2.5
v -0.5 2 2.5
v -0.5 3 2.5
v 0.5 2 2.5
v 0.5 3 2.5
v 2.5 1 2.5
v 2.5 2 2.5
v 2.5 3 2.5
v -1.5 0 1.5
v -1.5 1 1.5
v 1.5 0 1.5
v 1.5 1 1.5
v -3.5 1 0.5
v -3.5 3 0.5
v -2.5 1 0.5
v -2.5 2 0.5
v -2.5 3 0.5
v 2.5 1 0.5
v 2.5 2 0.5
v 2.5 3 0.5
v 3.5 1 0.5
v 3.5 3 0.5
v -3.5 1 -0.5
v -3.5 3 -0.5
v -2.5 1 -0.5
v -2.5 2 -0.5
v -2.5 3 -0.5
v 2.5 1 -0.5
v 2.5 2 -0.5
v 2.5 3 -0.5
v 3.5 1 -0.5
v 3.5 3 -0.5
v -1.5 0 -1.5
v -1.5 1 -1.5
v 1.5 0 -1.5
v 1.5 1 -1.5
v -2.5 1 -2.5
v -2.5 2 -2.5
v -2.5 3 -2.5
v -0.5 2 -2.5
v -0.5 3 -2.5
v 0.5 2 -2.5
v 0.5 3 -2.5
v 2.5 1 -2.5
v 2.5 2 -2.5
v 2.5 3 -2.5
v -1.5 0 1.5
v 1.5 0 1.5
v -1.5 0 -1.5
v 1.5 0 -1.5
v -2.5 1 2.5
v 2.5 1 2.5
v -1.5 1 1.5
v 1.5 1 1.5
v -3.5 1 0.5
v -2.5 1 0.5
v 2.5 1 0.5
v 3.5 1 0.5
v -3.5 1 -0.5
v -2.5 1 -0.5
v 2.5 1 -0.5
v 3.5 1 -0.5
v -1.5 1 -1.5
v 1.5 1 -1.5
v -2.5 1 -2.5
v 2.5 1 -2.5
v -2.5 3 2.5
v -0.5 3 2.5
v 0.5 3 2.5
v 2.5 3 2.5
v -3.5 3 0.5
v -2.5 3 0.5
v -0.5 3 0.5
v 0.5 3 0.5
v 2.5 3 0.5
v 3.5 3 0.5
v -3.5 3 -0.5
v -2.5 3 -0.5
v -0.5 3 -0.5
v 0.5 3 -0.5
v 2.5 3 -0.5
v 3.5 3 -0.5
v -2.5 3 -2.5
v -0.5 3 -2.5
v 0.5 3 -2.5
v 2.5 3 -2.5

# faces
f 3/3/1 2/3/1 1/3/1
f 4/3/1 2/3/1 3/3/1
f 9/2/1 6/2/1 5/2/1
f 10/2/1 6/2/1 9/2/1
f 11/2/1 8/2/1 7/2/1
f 12/2/1 8/2/1 11/2/1
f 13/1/1 10/1/1 9/1/1
f 14/1/1 10/1/1 13/1/1
f 15/1/1 12/1/1 11/1/1
f 16/1/1 12/1/1 15/1/1
f 19/3/1 18/3/1 17/3/1
f 20/3/1 18/3/1 19/3/1
f 21/3/2 22/3/2 23/3/2
f 23/3/2 22/3/2 24/3/2
f 25/2/2 26/2/2 29/2/2
f 29/2/2 26/2/2 30/2/2
f 27/2/2 28/2/2 31/2/2
f 31/2/2 28/2/2 32/2/2
f 29/1/2 30/1/2 33/1/2
f 33/1/2 30/1/2 34/1/2
f 31/1/2 32/1/2 35/1/2
f 35/1/2 32/1/2 36/1/2
f 37/3/2 38/3/2 39/3/2
f 39/3/2 38/3/2 40/3/2
f 44/2/3 42/2/3 41/2/3
f 44/1/3 43/1/3 42/1/3
f 45/1/3 43/1/3 44/1/3
f 46/2/3 44/2/3 41/2/3
f 46/2/3 45/2/3 44/2/3
f 47/2/3 45/2/3 46/2/3
f 48/2/3 46/2/3 41/2/3
f 49/1/3 47/1/3 46/1/3
f 49/2/3 46/2/3 48/2/3
f 50/1/3 47/1/3 49/1/3
f 53/3/3 52/3/3 51/3/3
f 54/3/3 52/3/3 53/3/3
f 57/3/3 56/3/3 55/3/3
f 58/3/3 56/3/3 57/3/3
f 59/3/3 56/3/3 58/3/3
f 63/3/3 61/3/3 60/3/3
f 63/3/3 62/3/3 61/3/3
f 64/3/3 62/3/3 63/3/3
f 65/3/4 66/3/4 67/3/4
f 67/3/4 66/3/4 68/3/4
f 68/3/4 66/3/4 69/3/4
f 70/3/4 71/3/4 73/3/4
f 71/3/4 72/3/4 73/3/4
f 73/3/4 72/3/4 74/3/4
f 75/3/4 76/3/4 77/3/4
f 77/3/4 76/3/4 78/3/4
f 79/2/4 80/2/4 82/2/4
f 80/1/4 81/1/4 82/1/4
f 82/1/4 81/1/4 83/1/4
f 79/2/4 82/2/4 84/2/4
f 82/2/4 83/2/4 84/2/4
f 84/2/4 83/2/4 85/2/4
f 79/2/4 84/2/4 86/2/4
f 84/1/4 85/1/4 87/1/4
f 86/2/4 84/2/4 87/2/4
f 87/1/4 85/1/4 88/1/4
f 91/3/5 90/3/5 89/3/5
f 92/3/5 90/3/5 91/3/5
f 95/2/5 94/2/5 93/2/5
f 96/2/5 94/2/5 95/2/5
f 98/2/5 95/2/5 93/2/5
f 99/2/5 94/2/5 96/2/5
f 101/3/5 98/3/5 97/3/5
f 102/2/5 95/2/5 98/2/5
f 102/3/5 98/3/5 101/3/5
f 103/3/5 100/3/5 99/3/5
f 103/2/5 99/2/5 96/2/5
f 104/3/5 100/3/5 103/3/5
f 105/2/5 95/2/5 102/2/5
f 106/2/5 103/2/5 96/2/5
f 107/2/5 105/2/5 102/2/5
f 107/2/5 106/2/5 105/2/5
f 108/2/5 103/2/5 106/2/5
f 108/2/5 106/2/5 107/2/5
f 109/1/6 110/1/6 114/1/6
f 110/2/6 111/2/6 115/2/6
f 114/1/6 110/1/6 115/1/6
f 111/1/6 112/1/6 116/1/6
f 115/2/6 111/2/6 116/2/6
f 116/1/6 112/1/6 117/1/6
f 113/3/6 114/3/6 119/3/6
f 114/1/6 115/1/6 120/1/6
f 119/3/6 114/3/6 120/3/6
f 115/1/6 116/1/6 120/1/6
f 116/1/6 117/1/6 120/1/6
f 120/1/6 117/1/6 121/1/6
f 121/1/6 117/1/6 122/1/6
f 117/3/6 118/3/6 123/3/6
f 122/1/6 117/1/6 123/1/6
f 123/3/6 118/3/6 124/3/6
f 120/1/6 121/1/6 125/1/6
f 121/2/6 122/2/6 126/2/6
f 125/1/6 121/1/6 126/1/6
f 122/1/6 123/1/6 127/1/6
f 126/2/6 122/2/6 127/2/6
f 127/1/6 123/1/6 128/1/6
