# MagicaVoxel @ ephtracy

# material
mtllib Turret.mtl
usemtl palette

# normals
vn -1 0 0
vn 1 0 0
vn 0 0 1
vn 0 0 -1
vn 0 -1 0
vn 0 1 0

# texcoords
vt 0.294922 0.5
vt 0.302734 0.5
vt 0.544922 0.5

# verts
v -4.5 6 4.5
v -4.5 6 -4.5
v -4.5 7 4.5
v -4.5 7 -4.5
v -4.5 8 4.5
v -4.5 8 -4.5
v -4.5 9 4.5
v -4.5 9 1.5
v -4.5 9 -1.5
v -4.5 9 -4.5
v -4.5 12 1.5
v -4.5 12 -1.5
v -3.5 1 3.5
v -3.5 1 -3.5
v -3.5 3 3.5
v -3.5 3 -3.5
v -3.5 4 3.5
v -3.5 4 -3.5
v -3.5 5 3.5
v -3.5 5 -3.5
v -3.5 6 3.5
v -3.5 6 -3.5
v -3.5 9 3.5
v -3.5 9 1.5
v -3.5 9 -1.5
v -3.5 9 -3.5
v -3.5 10 3.5
v -3.5 10 1.5
v -3.5 10 -1.5
v -3.5 10 -3.5
v -1.5 0 1.5
v -1.5 0 -1.5
v -1.5 1 1.5
v -1.5 1 -1.5
v -1.5 9 4.5
v -1.5 9 3.5
v -1.5 9 -3.5
v -1.5 9 -4.5
v -1.5 10 3.5
v -1.5 10 1.5
v -1.5 10 -1.5
v -1.5 10 -3.5
v -1.5 11 4.5
v -1.5 11 1.5
v -1.5 11 -1.5
v -1.5 11 -4.5
v 1.5 11 1.5
v 1.5 11 -1.5
v 1.5 12 1.5
v 1.5 12 -1.5
v -1.5 11 1.5
v -1.5 11 -1.5
v -1.5 12 1.5
v -1.5 12 -1.5
v 1.5 0 1.5
v 1.5 0 -1.5
v 1.5 1 1.5
v 1.5 1 -1.5
v 1.5 9 4.5
v 1.5 9 3.5
v 1.5 9 -3.5
v 1.5 9 -4.5
v 1.5 10 3.5
v 1.5 10 1.5
v 1.5 10 -1.5
v 1.5 10 -3.5
v 1.5 11 4.5
v 1.5 11 1.5
v 1.5 11 -1.5
v 1.5 11 -4.5
v 3.5 1 3.5
v 3.5 1 -3.5
v 3.5 3 3.5
v 3.5 3 -3.5
v 3.5 4 3.5
v 3.5 4 -3.5
v 3.5 5 3.5
v 3.5 5 -3.5
v 3.5 6 3.5
v 3.5 6 -3.5
v 3.5 9 3.5
v 3.5 9 1.5
v 3.5 9 -1.5
v 3.5 9 -3.5
v 3.5 10 3.5
v 3.5 10 1.5
v 3.5 10 -1.5
v 3.5 10 -3.5
v 4.5 6 4.5
v 4.5 6 -4.5
v 4.5 7 4.5
v 4.5 7 -4.5
v 4.5 8 4.5
v 4.5 8 -4.5
v 4.5 9 4.5
v 4.5 9 1.5
v 4.5 9 -1.5
v 4.5 9 -4.5
v 4.5 12 1.5
v 4.5 12 -1.5
v -4.5 6 4.5
v -4.5 7 4.5
v -4.5 8 4.5
v -4.5 9 4.5
v -1.5 9 4.5
v -1.5 11 4.5
v -0.5 8 4.5
v -0.5 11 4.5
v 0.5 8 4.5
v 0.5 11 4.5
v 1.5 9 4.5
v 1.5 11 4.5
v 4.5 6 4.5
v 4.5 7 4.5
v 4.5 8 4.5
v 4.5 9 4.5
v -3.5 1 3.5
v -3.5 3 3.5
v -3.5 4 3.5
v -3.5 5 3.5
v -3.5 6 3.5
v -3.5 9 3.5
v -3.5 10 3.5
v -1.5 9 3.5
v -1.5 10 3.5
v 1.5 9 3.5
v 1.5 10 3.5
v 3.5 1 3.5
v 3.5 3 3.5
v 3.5 4 3.5
v 3.5 5 3.5
v 3.5 6 3.5
v 3.5 9 3.5
v 3.5 10 3.5
v -4.5 9 1.5
v -4.5 12 1.5
v -3.5 9 1.5
v -3.5 10 1.5
v -1.5 0 1.5
v -1.5 1 1.5
v -1.5 10 1.5
v -1.5 11 1.5
v -1.5 12 1.5
v 1.5 0 1.5
v 1.5 1 1.5
v 1.5 10 1.5
v 1.5 11 1.5
v 1.5 12 1.5
v 3.5 9 1.5
v 3.5 10 1.5
v 4.5 9 1.5
v 4.5 12 1.5
v -4.5 9 -1.5
v -4.5 12 -1.5
v -3.5 9 -1.5
v -3.5 10 -1.5
v -1.5 0 -1.5
v -1.5 1 -1.5
v -1.5 10 -1.5
v -1.5 11 -1.5
v -1.5 12 -1.5
v 1.5 0 -1.5
v 1.5 1 -1.5
v 1.5 10 -1.5
v 1.5 11 -1.5
v 1.5 12 -1.5
v 3.5 9 -1.5
v 3.5 10 -1.5
v 4.5 9 -1.5
v 4.5 12 -1.5
v -3.5 1 -3.5
v -3.5 3 -3.5
v -3.5 4 -3.5
v -3.5 5 -3.5
v -3.5 6 -3.5
v -3.5 9 -3.5
v -3.5 10 -3.5
v -1.5 9 -3.5
v -1.5 10 -3.5
v 1.5 9 -3.5
v 1.5 10 -3.5
v 3.5 1 -3.5
v 3.5 3 -3.5
v 3.5 4 -3.5
v 3.5 5 -3.5
v 3.5 6 -3.5
v 3.5 9 -3.5
v 3.5 10 -3.5
v -4.5 6 -4.5
v -4.5 7 -4.5
v -4.5 8 -4.5
v -4.5 9 -4.5
v -1.5 9 -4.5
v -1.5 11 -4.5
v -0.5 8 -4.5
v -0.5 11 -4.5
v 0.5 8 -4.5
v 0.5 11 -4.5
v 1.5 9 -4.5
v 1.5 11 -4.5
v 4.5 6 -4.5
v 4.5 7 -4.5
v 4.5 8 -4.5
v 4.5 9 -4.5
v -1.5 0 1.5
v 1.5 0 1.5
v -1.5 0 -1.5
v 1.5 0 -1.5
v -3.5 1 3.5
v 3.5 1 3.5
v -1.5 1 1.5
v 1.5 1 1.5
v -1.5 1 -1.5
v 1.5 1 -1.5
v -3.5 1 -3.5
v 3.5 1 -3.5
v -4.5 6 4.5
v 4.5 6 4.5
v -3.5 6 3.5
v 3.5 6 3.5
v -3.5 6 -3.5
v 3.5 6 -3.5
v -4.5 6 -4.5
v 4.5 6 -4.5
v -4.5 9 4.5
v -1.5 9 4.5
v 1.5 9 4.5
v 4.5 9 4.5
v -3.5 9 3.5
v -1.5 9 3.5
v 1.5 9 3.5
v 3.5 9 3.5
v -4.5 9 1.5
v -3.5 9 1.5
v 3.5 9 1.5
v 4.5 9 1.5
v -4.5 9 -1.5
v -3.5 9 -1.5
v 3.5 9 -1.5
v 4.5 9 -1.5
v -3.5 9 -3.5
v -1.5 9 -3.5
v 1.5 9 -3.5
v 3.5 9 -3.5
v -4.5 9 -4.5
v -1.5 9 -4.5
v 1.5 9 -4.5
v 4.5 9 -4.5
v -3.5 10 3.5
v -1.5 10 3.5
v 1.5 10 3.5
v 3.5 10 3.5
v -3.5 10 1.5
v -1.5 10 1.5
v 1.5 10 1.5
v 3.5 10 1.5
v -3.5 10 -1.5
v -1.5 10 -1.5
v 1.5 10 -1.5
v 3.5 10 -1.5
v -3.5 10 -3.5
v -1.5 10 -3.5
v 1.5 10 -3.5
v 3.5 10 -3.5
v -1.5 11 4.5
v -0.5 11 4.5
v 0.5 11 4.5
v 1.5 11 4.5
v -1.5 11 1.5
v 1.5 11 1.5
v -1.5 11 -1.5
v 1.5 11 -1.5
v -1.5 11 -4.5
v -0.5 11 -4.5
v 0.5 11 -4.5
v 1.5 11 -4.5
v -4.5 12 1.5
v -1.5 12 1.5
v 1.5 12 1.5
v 4.5 12 1.5
v -4.5 12 -1.5
v -1.5 12 -1.5
v 1.5 12 -1.5
v 4.5 12 -1.5

# faces
f 3/3/1 2/3/1 1/3/1
f 4/3/1 2/3/1 3/3/1
f 5/1/1 4/1/1 3/1/1
f 6/1/1 4/1/1 5/1/1
f 7/3/1 6/3/1 5/3/1
f 8/3/1 6/3/1 7/3/1
f 9/3/1 6/3/1 8/3/1
f 10/3/1 6/3/1 9/3/1
f 11/3/1 9/3/1 8/3/1
f 12/3/1 9/3/1 11/3/1
f 15/1/1 14/1/1 13/1/1
f 16/1/1 14/1/1 15/1/1
f 17/2/1 16/2/1 15/2/1
f 18/2/1 16/2/1 17/2/1
f 19/1/1 18/1/1 17/1/1
f 20/1/1 18/1/1 19/1/1
f 21/2/1 20/2/1 19/2/1
f 22/2/1 20/2/1 21/2/1
f 27/1/1 24/1/1 23/1/1
f 28/1/1 24/1/1 27/1/1
f 29/1/1 26/1/1 25/1/1
f 30/1/1 26/1/1 29/1/1
f 33/3/1 32/3/1 31/3/1
f 34/3/1 32/3/1 33/3/1
f 39/3/1 36/3/1 35/3/1
f 42/3/1 38/3/1 37/3/1
f 43/3/1 40/3/1 39/3/1
f 43/3/1 39/3/1 35/3/1
f 44/3/1 40/3/1 43/3/1
f 45/3/1 42/3/1 41/3/1
f 46/3/1 38/3/1 42/3/1
f 46/3/1 42/3/1 45/3/1
f 49/3/1 48/3/1 47/3/1
f 50/3/1 48/3/1 49/3/1
f 51/3/2 52/3/2 53/3/2
f 53/3/2 52/3/2 54/3/2
f 55/3/2 56/3/2 57/3/2
f 57/3/2 56/3/2 58/3/2
f 59/3/2 60/3/2 63/3/2
f 61/3/2 62/3/2 66/3/2
f 63/3/2 64/3/2 67/3/2
f 59/3/2 63/3/2 67/3/2
f 67/3/2 64/3/2 68/3/2
f 65/3/2 66/3/2 69/3/2
f 66/3/2 62/3/2 70/3/2
f 69/3/2 66/3/2 70/3/2
f 71/1/2 72/1/2 73/1/2
f 73/1/2 72/1/2 74/1/2
f 73/2/2 74/2/2 75/2/2
f 75/2/2 74/2/2 76/2/2
f 75/1/2 76/1/2 77/1/2
f 77/1/2 76/1/2 78/1/2
f 77/2/2 78/2/2 79/2/2
f 79/2/2 78/2/2 80/2/2
f 81/1/2 82/1/2 85/1/2
f 85/1/2 82/1/2 86/1/2
f 83/1/2 84/1/2 87/1/2
f 87/1/2 84/1/2 88/1/2
f 89/3/2 90/3/2 91/3/2
f 91/3/2 90/3/2 92/3/2
f 91/1/2 92/1/2 93/1/2
f 93/1/2 92/1/2 94/1/2
f 93/3/2 94/3/2 95/3/2
f 95/3/2 94/3/2 96/3/2
f 96/3/2 94/3/2 97/3/2
f 97/3/2 94/3/2 98/3/2
f 96/3/2 97/3/2 99/3/2
f 99/3/2 97/3/2 100/3/2
f 105/3/3 104/3/3 103/3/3
f 107/1/3 103/1/3 102/1/3
f 107/3/3 106/3/3 105/3/3
f 107/3/3 105/3/3 103/3/3
f 108/3/3 106/3/3 107/3/3
f 109/1/3 107/1/3 102/1/3
f 109/1/3 108/1/3 107/1/3
f 110/1/3 108/1/3 109/1/3
f 111/3/3 110/3/3 109/3/3
f 112/3/3 110/3/3 111/3/3
f 113/3/3 102/3/3 101/3/3
f 114/1/3 109/1/3 102/1/3
f 114/3/3 102/3/3 113/3/3
f 115/3/3 111/3/3 109/3/3
f 115/1/3 109/1/3 114/1/3
f 116/3/3 111/3/3 115/3/3
f 124/1/3 123/1/3 122/1/3
f 125/1/3 123/1/3 124/1/3
f 128/1/3 118/1/3 117/1/3
f 129/2/3 119/2/3 118/2/3
f 129/1/3 118/1/3 128/1/3
f 130/1/3 120/1/3 119/1/3
f 130/2/3 119/2/3 129/2/3
f 131/2/3 121/2/3 120/2/3
f 131/1/3 120/1/3 130/1/3
f 132/2/3 121/2/3 131/2/3
f 133/1/3 127/1/3 126/1/3
f 134/1/3 127/1/3 133/1/3
f 137/3/3 136/3/3 135/3/3
f 138/3/3 136/3/3 137/3/3
f 141/3/3 136/3/3 138/3/3
f 142/3/3 136/3/3 141/3/3
f 143/3/3 136/3/3 142/3/3
f 144/3/3 140/3/3 139/3/3
f 145/3/3 140/3/3 144/3/3
f 150/3/3 148/3/3 147/3/3
f 150/3/3 147/3/3 146/3/3
f 151/3/3 150/3/3 149/3/3
f 152/3/3 148/3/3 150/3/3
f 152/3/3 150/3/3 151/3/3
f 153/3/4 154/3/4 155/3/4
f 155/3/4 154/3/4 156/3/4
f 156/3/4 154/3/4 159/3/4
f 159/3/4 154/3/4 160/3/4
f 160/3/4 154/3/4 161/3/4
f 157/3/4 158/3/4 162/3/4
f 162/3/4 158/3/4 163/3/4
f 165/3/4 166/3/4 168/3/4
f 164/3/4 165/3/4 168/3/4
f 167/3/4 168/3/4 169/3/4
f 168/3/4 166/3/4 170/3/4
f 169/3/4 168/3/4 170/3/4
f 176/1/4 177/1/4 178/1/4
f 178/1/4 177/1/4 179/1/4
f 171/1/4 172/1/4 182/1/4
f 172/2/4 173/2/4 183/2/4
f 182/1/4 172/1/4 183/1/4
f 173/1/4 174/1/4 184/1/4
f 183/2/4 173/2/4 184/2/4
f 174/2/4 175/2/4 185/2/4
f 184/1/4 174/1/4 185/1/4
f 185/2/4 175/2/4 186/2/4
f 180/1/4 181/1/4 187/1/4
f 187/1/4 181/1/4 188/1/4
f 191/3/4 192/3/4 193/3/4
f 190/1/4 191/1/4 195/1/4
f 193/3/4 194/3/4 195/3/4
f 191/3/4 193/3/4 195/3/4
f 195/3/4 194/3/4 196/3/4
f 190/1/4 195/1/4 197/1/4
f 195/1/4 196/1/4 197/1/4
f 197/1/4 196/1/4 198/1/4
f 197/3/4 198/3/4 199/3/4
f 199/3/4 198/3/4 200/3/4
f 189/3/4 190/3/4 201/3/4
f 190/1/4 197/1/4 202/1/4
f 201/3/4 190/3/4 202/3/4
f 197/3/4 199/3/4 203/3/4
f 202/1/4 197/1/4 203/1/4
f 203/3/4 199/3/4 204/3/4
f 207/3/5 206/3/5 205/3/5
f 208/3/5 206/3/5 207/3/5
f 211/1/5 210/1/5 209/1/5
f 212/1/5 210/1/5 211/1/5
f 213/1/5 211/1/5 209/1/5
f 214/1/5 210/1/5 212/1/5
f 215/1/5 213/1/5 209/1/5
f 215/1/5 214/1/5 213/1/5
f 216/1/5 210/1/5 214/1/5
f 216/1/5 214/1/5 215/1/5
f 219/3/5 218/3/5 217/3/5
f 220/3/5 218/3/5 219/3/5
f 221/3/5 219/3/5 217/3/5
f 222/3/5 218/3/5 220/3/5
f 223/3/5 221/3/5 217/3/5
f 223/3/5 222/3/5 221/3/5
f 224/3/5 218/3/5 222/3/5
f 224/3/5 222/3/5 223/3/5
f 225/3/6 226/3/6 229/3/6
f 229/3/6 226/3/6 230/3/6
f 227/3/6 228/3/6 231/3/6
f 231/3/6 228/3/6 232/3/6
f 225/3/6 229/3/6 233/3/6
f 233/3/6 229/3/6 234/3/6
f 232/3/6 228/3/6 235/3/6
f 235/3/6 228/3/6 236/3/6
f 237/3/6 238/3/6 241/3/6
f 239/3/6 240/3/6 244/3/6
f 241/3/6 242/3/6 245/3/6
f 237/3/6 241/3/6 245/3/6
f 245/3/6 242/3/6 246/3/6
f 243/3/6 244/3/6 247/3/6
f 244/3/6 240/3/6 248/3/6
f 247/3/6 244/3/6 248/3/6
f 249/1/6 250/1/6 253/1/6
f 253/1/6 250/1/6 254/1/6
f 251/1/6 252/1/6 255/1/6
f 255/1/6 252/1/6 256/1/6
f 257/1/6 258/1/6 261/1/6
f 261/1/6 258/1/6 262/1/6
f 259/1/6 260/1/6 263/1/6
f 263/1/6 260/1/6 264/1/6
f 265/3/6 266/3/6 269/3/6
f 267/3/6 268/3/6 270/3/6
f 269/3/6 266/3/6 271/3/6
f 267/3/6 270/3/6 272/3/6
f 271/3/6 266/3/6 273/3/6
f 266/1/6 267/1/6 274/1/6
f 273/3/6 266/3/6 274/3/6
f 267/3/6 272/3/6 275/3/6
f 274/1/6 267/1/6 275/1/6
f 275/3/6 272/3/6 276/3/6
f 277/3/6 278/3/6 281/3/6
f 281/3/6 278/3/6 282/3/6
f 279/3/6 280/3/6 283/3/6
f 283/3/6 280/3/6 284/3/6
