# MagicaVoxel @ ephtracy

# material
mtllib Turret.mtl
usemtl palette

# normals
vn -1 0 0
vn 1 0 0
vn 0 0 1
vn 0 0 -1
vn 0 -1 0
vn 0 1 0

# texcoords
vt 0.294922 0.5
vt 0.302734 0.5
vt 0.544922 0.5

# verts
v -8.5 1 2.5
v -8.5 1 -2.5
v -8.5 2 2.5
v -8.5 2 -2.5
v -8.5 4 2.5
v -8.5 4 -2.5
v -8.5 5 2.5
v -8.5 5 -2.5
v -8.5 6 2.5
v -8.5 6 -2.5
v -8.5 9 2.5
v -8.5 9 -2.5
v -7.5 0 3.5
v -7.5 0 -3.5
v -7.5 1 2.5
v -7.5 1 -2.5
v -7.5 2 2.5
v -7.5 2 -2.5
v -7.5 4 2.5
v -7.5 4 -2.5
v -7.5 5 2.5
v -7.5 5 -2.5
v -7.5 6 2.5
v -7.5 6 -2.5
v -7.5 9 2.5
v -7.5 9 -2.5
v -7.5 10 3.5
v -7.5 10 -3.5
v -1.5 0 1.5
v -1.5 0 -1.5
v -1.5 1 1.5
v -1.5 1 -1.5
v 1.5 8 2.5
v 1.5 8 -2.5
v 1.5 9 2.5
v 1.5 9 -2.5
v 4.5 0 3.5
v 4.5 0 -3.5
v 4.5 1 2.5
v 4.5 1 -2.5
v 4.5 2 2.5
v 4.5 2 -2.5
v 4.5 4 2.5
v 4.5 4 -2.5
v 4.5 5 2.5
v 4.5 5 -2.5
v 4.5 6 2.5
v 4.5 6 -2.5
v 4.5 9 2.5
v 4.5 9 -2.5
v 4.5 10 3.5
v 4.5 10 -3.5
v -4.5 0 3.5
v -4.5 0 -3.5
v -4.5 1 2.5
v -4.5 1 -2.5
v -4.5 2 2.5
v -4.5 2 -2.5
v -4.5 4 2.5
v -4.5 4 -2.5
v -4.5 5 2.5
v -4.5 5 -2.5
v -4.5 6 2.5
v -4.5 6 -2.5
v -4.5 9 2.5
v -4.5 9 -2.5
v -4.5 10 3.5
v -4.5 10 -3.5
v -1.5 8 2.5
v -1.5 8 -2.5
v -1.5 9 2.5
v -1.5 9 -2.5
v 1.5 0 1.5
v 1.5 0 -1.5
v 1.5 1 1.5
v 1.5 1 -1.5
v 7.5 0 3.5
v 7.5 0 -3.5
v 7.5 1 2.5
v 7.5 1 -2.5
v 7.5 2 2.5
v 7.5 2 -2.5
v 7.5 4 2.5
v 7.5 4 -2.5
v 7.5 5 2.5
v 7.5 5 -2.5
v 7.5 6 2.5
v 7.5 6 -2.5
v 7.5 9 2.5
v 7.5 9 -2.5
v 7.5 10 3.5
v 7.5 10 -3.5
v 8.5 1 2.5
v 8.5 1 -2.5
v 8.5 2 2.5
v 8.5 2 -2.5
v 8.5 4 2.5
v 8.5 4 -2.5
v 8.5 5 2.5
v 8.5 5 -2.5
v 8.5 6 2.5
v 8.5 6 -2.5
v 8.5 9 2.5
v 8.5 9 -2.5
v -7.5 0 3.5
v -7.5 10 3.5
v -4.5 0 3.5
v -4.5 10 3.5
v 4.5 0 3.5
v 4.5 10 3.5
v 7.5 0 3.5
v 7.5 10 3.5
v -8.5 1 2.5
v -8.5 2 2.5
v -8.5 4 2.5
v -8.5 5 2.5
v -8.5 6 2.5
v -8.5 9 2.5
v -7.5 1 2.5
v -7.5 2 2.5
v -7.5 4 2.5
v -7.5 5 2.5
v -7.5 6 2.5
v -7.5 9 2.5
v -4.5 1 2.5
v -4.5 2 2.5
v -4.5 4 2.5
v -4.5 5 2.5
v -4.5 6 2.5
v -4.5 9 2.5
v -1.5 3 2.5
v -1.5 4 2.5
v -1.5 8 2.5
v -1.5 9 2.5
v 1.5 3 2.5
v 1.5 4 2.5
v 1.5 8 2.5
v 1.5 9 2.5
v 4.5 1 2.5
v 4.5 2 2.5
v 4.5 4 2.5
v 4.5 5 2.5
v 4.5 6 2.5
v 4.5 9 2.5
v 7.5 1 2.5
v 7.5 2 2.5
v 7.5 4 2.5
v 7.5 5 2.5
v 7.5 6 2.5
v 7.5 9 2.5
v 8.5 1 2.5
v 8.5 2 2.5
v 8.5 4 2.5
v 8.5 5 2.5
v 8.5 6 2.5
v 8.5 9 2.5
v -1.5 0 1.5
v -1.5 1 1.5
v 1.5 0 1.5
v 1.5 1 1.5
v -1.5 0 -1.5
v -1.5 1 -1.5
v 1.5 0 -1.5
v 1.5 1 -1.5
v -8.5 1 -2.5
v -8.5 2 -2.5
v -8.5 4 -2.5
v -8.5 5 -2.5
v -8.5 6 -2.5
v -8.5 9 -2.5
v -7.5 1 -2.5
v -7.5 2 -2.5
v -7.5 4 -2.5
v -7.5 5 -2.5
v -7.5 6 -2.5
v -7.5 9 -2.5
v -4.5 1 -2.5
v -4.5 2 -2.5
v -4.5 4 -2.5
v -4.5 5 -2.5
v -4.5 6 -2.5
v -4.5 9 -2.5
v -1.5 8 -2.5
v -1.5 9 -2.5
v 1.5 8 -2.5
v 1.5 9 -2.5
v 4.5 1 -2.5
v 4.5 2 -2.5
v 4.5 4 -2.5
v 4.5 5 -2.5
v 4.5 6 -2.5
v 4.5 9 -2.5
v 7.5 1 -2.5
v 7.5 2 -2.5
v 7.5 4 -2.5
v 7.5 5 -2.5
v 7.5 6 -2.5
v 7.5 9 -2.5
v 8.5 1 -2.5
v 8.5 2 -2.5
v 8.5 4 -2.5
v 8.5 5 -2.5
v 8.5 6 -2.5
v 8.5 9 -2.5
v -7.5 0 -3.5
v -7.5 10 -3.5
v -4.5 0 -3.5
v -4.5 10 -3.5
v 4.5 0 -3.5
v 4.5 10 -3.5
v 7.5 0 -3.5
v 7.5 10 -3.5
v -7.5 0 3.5
v -4.5 0 3.5
v 4.5 0 3.5
v 7.5 0 3.5
v -1.5 0 1.5
v 1.5 0 1.5
v -1.5 0 -1.5
v 1.5 0 -1.5
v -7.5 0 -3.5
v -4.5 0 -3.5
v 4.5 0 -3.5
v 7.5 0 -3.5
v -8.5 1 2.5
v -7.5 1 2.5
v -4.5 1 2.5
v 4.5 1 2.5
v 7.5 1 2.5
v 8.5 1 2.5
v -1.5 1 1.5
v 1.5 1 1.5
v -1.5 1 -1.5
v 1.5 1 -1.5
v -8.5 1 -2.5
v -7.5 1 -2.5
v -4.5 1 -2.5
v 4.5 1 -2.5
v 7.5 1 -2.5
v 8.5 1 -2.5
v -1.5 8 2.5
v 1.5 8 2.5
v -1.5 8 -2.5
v 1.5 8 -2.5
v -8.5 9 2.5
v -7.5 9 2.5
v -4.5 9 2.5
v -1.5 9 2.5
v 1.5 9 2.5
v 4.5 9 2.5
v 7.5 9 2.5
v 8.5 9 2.5
v -8.5 9 -2.5
v -7.5 9 -2.5
v -4.5 9 -2.5
v -1.5 9 -2.5
v 1.5 9 -2.5
v 4.5 9 -2.5
v 7.5 9 -2.5
v 8.5 9 -2.5
v -7.5 10 3.5
v -4.5 10 3.5
v 4.5 10 3.5
v 7.5 10 3.5
v -7.5 10 -3.5
v -4.5 10 -3.5
v 4.5 10 -3.5
v 7.5 10 -3.5

# faces
f 3/1/1 2/1/1 1/1/1
f 4/1/1 2/1/1 3/1/1
f 5/2/1 4/2/1 3/2/1
f 6/2/1 4/2/1 5/2/1
f 7/1/1 6/1/1 5/1/1
f 8/1/1 6/1/1 7/1/1
f 9/2/1 8/2/1 7/2/1
f 10/2/1 8/2/1 9/2/1
f 11/1/1 10/1/1 9/1/1
f 12/1/1 10/1/1 11/1/1
f 15/3/1 14/3/1 13/3/1
f 16/3/1 14/3/1 15/3/1
f 17/3/1 15/3/1 13/3/1
f 18/3/1 14/3/1 16/3/1
f 19/3/1 17/3/1 13/3/1
f 20/3/1 14/3/1 18/3/1
f 21/3/1 19/3/1 13/3/1
f 22/3/1 14/3/1 20/3/1
f 23/3/1 21/3/1 13/3/1
f 24/3/1 14/3/1 22/3/1
f 25/3/1 23/3/1 13/3/1
f 26/3/1 14/3/1 24/3/1
f 27/3/1 25/3/1 13/3/1
f 27/3/1 26/3/1 25/3/1
f 28/3/1 14/3/1 26/3/1
f 28/3/1 26/3/1 27/3/1
f 31/3/1 30/3/1 29/3/1
f 32/3/1 30/3/1 31/3/1
f 35/1/1 34/1/1 33/1/1
f 36/1/1 34/1/1 35/1/1
f 39/3/1 38/3/1 37/3/1
f 40/3/1 38/3/1 39/3/1
f 41/3/1 39/3/1 37/3/1
f 42/3/1 38/3/1 40/3/1
f 43/3/1 41/3/1 37/3/1
f 44/3/1 38/3/1 42/3/1
f 45/3/1 43/3/1 37/3/1
f 46/3/1 38/3/1 44/3/1
f 47/3/1 45/3/1 37/3/1
f 48/3/1 38/3/1 46/3/1
f 49/3/1 47/3/1 37/3/1
f 50/3/1 38/3/1 48/3/1
f 51/3/1 49/3/1 37/3/1
f 51/3/1 50/3/1 49/3/1
f 52/3/1 38/3/1 50/3/1
f 52/3/1 50/3/1 51/3/1
f 53/3/2 54/3/2 55/3/2
f 55/3/2 54/3/2 56/3/2
f 53/3/2 55/3/2 57/3/2
f 56/3/2 54/3/2 58/3/2
f 53/3/2 57/3/2 59/3/2
f 58/3/2 54/3/2 60/3/2
f 53/3/2 59/3/2 61/3/2
f 60/3/2 54/3/2 62/3/2
f 53/3/2 61/3/2 63/3/2
f 62/3/2 54/3/2 64/3/2
f 53/3/2 63/3/2 65/3/2
f 64/3/2 54/3/2 66/3/2
f 53/3/2 65/3/2 67/3/2
f 65/3/2 66/3/2 67/3/2
f 66/3/2 54/3/2 68/3/2
f 67/3/2 66/3/2 68/3/2
f 69/1/2 70/1/2 71/1/2
f 71/1/2 70/1/2 72/1/2
f 73/3/2 74/3/2 75/3/2
f 75/3/2 74/3/2 76/3/2
f 77/3/2 78/3/2 79/3/2
f 79/3/2 78/3/2 80/3/2
f 77/3/2 79/3/2 81/3/2
f 80/3/2 78/3/2 82/3/2
f 77/3/2 81/3/2 83/3/2
f 82/3/2 78/3/2 84/3/2
f 77/3/2 83/3/2 85/3/2
f 84/3/2 78/3/2 86/3/2
f 77/3/2 85/3/2 87/3/2
f 86/3/2 78/3/2 88/3/2
f 77/3/2 87/3/2 89/3/2
f 88/3/2 78/3/2 90/3/2
f 77/3/2 89/3/2 91/3/2
f 89/3/2 90/3/2 91/3/2
f 90/3/2 78/3/2 92/3/2
f 91/3/2 90/3/2 92/3/2
f 93/1/2 94/1/2 95/1/2
f 95/1/2 94/1/2 96/1/2
f 95/2/2 96/2/2 97/2/2
f 97/2/2 96/2/2 98/2/2
f 97/1/2 98/1/2 99/1/2
f 99/1/2 98/1/2 100/1/2
f 99/2/2 100/2/2 101/2/2
f 101/2/2 100/2/2 102/2/2
f 101/1/2 102/1/2 103/1/2
f 103/1/2 102/1/2 104/1/2
f 107/3/3 106/3/3 105/3/3
f 108/3/3 106/3/3 107/3/3
f 111/3/3 110/3/3 109/3/3
f 112/3/3 110/3/3 111/3/3
f 119/1/3 114/1/3 113/1/3
f 120/2/3 115/2/3 114/2/3
f 120/1/3 114/1/3 119/1/3
f 121/1/3 116/1/3 115/1/3
f 121/2/3 115/2/3 120/2/3
f 122/2/3 117/2/3 116/2/3
f 122/1/3 116/1/3 121/1/3
f 123/1/3 118/1/3 117/1/3
f 123/2/3 117/2/3 122/2/3
f 124/1/3 118/1/3 123/1/3
f 131/2/3 127/2/3 126/2/3
f 132/1/3 128/1/3 127/1/3
f 132/2/3 127/2/3 131/2/3
f 133/1/3 130/1/3 129/1/3
f 134/1/3 130/1/3 133/1/3
f 135/2/3 131/2/3 126/2/3
f 135/1/3 132/1/3 131/1/3
f 136/1/3 128/1/3 132/1/3
f 136/1/3 132/1/3 135/1/3
f 137/1/3 133/1/3 129/1/3
f 139/1/3 126/1/3 125/1/3
f 140/2/3 135/2/3 126/2/3
f 140/1/3 126/1/3 139/1/3
f 140/2/3 136/2/3 135/2/3
f 141/1/3 128/1/3 136/1/3
f 141/2/3 136/2/3 140/2/3
f 142/2/3 129/2/3 128/2/3
f 142/1/3 128/1/3 141/1/3
f 143/1/3 138/1/3 137/1/3
f 143/2/3 129/2/3 142/2/3
f 143/1/3 137/1/3 129/1/3
f 144/1/3 138/1/3 143/1/3
f 151/1/3 146/1/3 145/1/3
f 152/2/3 147/2/3 146/2/3
f 152/1/3 146/1/3 151/1/3
f 153/1/3 148/1/3 147/1/3
f 153/2/3 147/2/3 152/2/3
f 154/2/3 149/2/3 148/2/3
f 154/1/3 148/1/3 153/1/3
f 155/1/3 150/1/3 149/1/3
f 155/2/3 149/2/3 154/2/3
f 156/1/3 150/1/3 155/1/3
f 159/3/3 158/3/3 157/3/3
f 160/3/3 158/3/3 159/3/3
f 161/3/4 162/3/4 163/3/4
f 163/3/4 162/3/4 164/3/4
f 165/1/4 166/1/4 171/1/4
f 166/2/4 167/2/4 172/2/4
f 171/1/4 166/1/4 172/1/4
f 167/1/4 168/1/4 173/1/4
f 172/2/4 167/2/4 173/2/4
f 168/2/4 169/2/4 174/2/4
f 173/1/4 168/1/4 174/1/4
f 169/1/4 170/1/4 175/1/4
f 174/2/4 169/2/4 175/2/4
f 175/1/4 170/1/4 176/1/4
f 181/1/4 182/1/4 183/1/4
f 183/1/4 182/1/4 184/1/4
f 181/1/4 183/1/4 185/1/4
f 177/1/4 178/1/4 187/1/4
f 178/2/4 179/2/4 188/2/4
f 187/1/4 178/1/4 188/1/4
f 179/1/4 180/1/4 189/1/4
f 188/2/4 179/2/4 189/2/4
f 180/2/4 181/2/4 190/2/4
f 189/1/4 180/1/4 190/1/4
f 185/1/4 186/1/4 191/1/4
f 190/2/4 181/2/4 191/2/4
f 181/1/4 185/1/4 191/1/4
f 191/1/4 186/1/4 192/1/4
f 193/1/4 194/1/4 199/1/4
f 194/2/4 195/2/4 200/2/4
f 199/1/4 194/1/4 200/1/4
f 195/1/4 196/1/4 201/1/4
f 200/2/4 195/2/4 201/2/4
f 196/2/4 197/2/4 202/2/4
f 201/1/4 196/1/4 202/1/4
f 197/1/4 198/1/4 203/1/4
f 202/2/4 197/2/4 203/2/4
f 203/1/4 198/1/4 204/1/4
f 205/3/4 206/3/4 207/3/4
f 207/3/4 206/3/4 208/3/4
f 209/3/4 210/3/4 211/3/4
f 211/3/4 210/3/4 212/3/4
f 219/3/5 218/3/5 217/3/5
f 220/3/5 218/3/5 219/3/5
f 221/3/5 214/3/5 213/3/5
f 222/3/5 214/3/5 221/3/5
f 223/3/5 216/3/5 215/3/5
f 224/3/5 216/3/5 223/3/5
f 231/1/5 228/1/5 227/1/5
f 232/1/5 228/1/5 231/1/5
f 233/1/5 231/1/5 227/1/5
f 234/1/5 228/1/5 232/1/5
f 235/1/5 226/1/5 225/1/5
f 236/1/5 226/1/5 235/1/5
f 237/1/5 234/1/5 233/1/5
f 237/1/5 233/1/5 227/1/5
f 238/1/5 228/1/5 234/1/5
f 238/1/5 234/1/5 237/1/5
f 239/1/5 230/1/5 229/1/5
f 240/1/5 230/1/5 239/1/5
f 241/1/6 242/1/6 243/1/6
f 243/1/6 242/1/6 244/1/6
f 245/1/6 246/1/6 253/1/6
f 253/1/6 246/1/6 254/1/6
f 247/1/6 248/1/6 255/1/6
f 255/1/6 248/1/6 256/1/6
f 249/1/6 250/1/6 257/1/6
f 257/1/6 250/1/6 258/1/6
f 251/1/6 252/1/6 259/1/6
f 259/1/6 252/1/6 260/1/6
f 261/3/6 262/3/6 265/3/6
f 265/3/6 262/3/6 266/3/6
f 263/3/6 264/3/6 267/3/6
f 267/3/6 264/3/6 268/3/6
