# MagicaVoxel @ ephtracy

# material
mtllib InkCannon.mtl
usemtl palette

# normals
vn -1 0 0
vn 1 0 0
vn 0 0 1
vn 0 0 -1
vn 0 -1 0
vn 0 1 0

# texcoords
vt 0.294922 0.5
vt 0.302734 0.5
vt 0.537109 0.5
vt 0.544922 0.5

# verts
v -1.5 0 2.5
v -1.5 0 1.5
v -1.5 0 0.5
v -1.5 0 -0.5
v -1.5 0 -1.5
v -1.5 0 -2.5
v -1.5 1 1.5
v -1.5 1 0.5
v -1.5 1 -0.5
v -1.5 1 -1.5
v -1.5 2 1.5
v -1.5 2 0.5
v -1.5 2 -0.5
v -1.5 2 -1.5
v -1.5 3 2.5
v -1.5 3 1.5
v -1.5 3 0.5
v -1.5 3 -0.5
v -1.5 3 -1.5
v -1.5 3 -2.5
v 0.5 1 2.5
v 0.5 1 1.5
v 0.5 2 2.5
v 0.5 2 1.5
v -0.5 1 2.5
v -0.5 1 1.5
v -0.5 2 2.5
v -0.5 2 1.5
v 1.5 0 2.5
v 1.5 0 1.5
v 1.5 0 0.5
v 1.5 0 -0.5
v 1.5 0 -1.5
v 1.5 0 -2.5
v 1.5 1 1.5
v 1.5 1 0.5
v 1.5 1 -0.5
v 1.5 1 -1.5
v 1.5 2 1.5
v 1.5 2 0.5
v 1.5 2 -0.5
v 1.5 2 -1.5
v 1.5 3 2.5
v 1.5 3 1.5
v 1.5 3 0.5
v 1.5 3 -0.5
v 1.5 3 -1.5
v 1.5 3 -2.5
v -1.5 0 2.5
v -1.5 3 2.5
v -0.5 1 2.5
v -0.5 2 2.5
v 0.5 1 2.5
v 0.5 2 2.5
v 1.5 0 2.5
v 1.5 3 2.5
v -0.5 1 1.5
v -0.5 2 1.5
v 0.5 1 1.5
v 0.5 2 1.5
v -1.5 0 -2.5
v -1.5 3 -2.5
v 1.5 0 -2.5
v 1.5 3 -2.5
v -1.5 0 2.5
v 1.5 0 2.5
v -1.5 0 1.5
v 1.5 0 1.5
v -1.5 0 0.5
v 1.5 0 0.5
v -1.5 0 -0.5
v 1.5 0 -0.5
v -1.5 0 -1.5
v 1.5 0 -1.5
v -1.5 0 -2.5
v 1.5 0 -2.5
v -0.5 2 2.5
v 0.5 2 2.5
v -0.5 2 1.5
v 0.5 2 1.5
v -0.5 1 2.5
v 0.5 1 2.5
v -0.5 1 1.5
v 0.5 1 1.5
v -1.5 3 2.5
v 1.5 3 2.5
v -1.5 3 1.5
v 1.5 3 1.5
v -1.5 3 0.5
v 1.5 3 0.5
v -1.5 3 -0.5
v 1.5 3 -0.5
v -1.5 3 -1.5
v 1.5 3 -1.5
v -1.5 3 -2.5
v 1.5 3 -2.5

# faces
f 7/4/1 2/4/1 1/4/1
f 7/1/1 3/1/1 2/1/1
f 8/2/1 4/2/1 3/2/1
f 8/1/1 3/1/1 7/1/1
f 9/1/1 5/1/1 4/1/1
f 9/2/1 4/2/1 8/2/1
f 10/4/1 6/4/1 5/4/1
f 10/1/1 5/1/1 9/1/1
f 11/2/1 9/2/1 8/2/1
f 11/2/1 8/2/1 7/2/1
f 11/2/1 10/2/1 9/2/1
f 11/4/1 7/4/1 1/4/1
f 12/2/1 10/2/1 11/2/1
f 13/2/1 10/2/1 12/2/1
f 14/4/1 6/4/1 10/4/1
f 14/2/1 10/2/1 13/2/1
f 15/4/1 11/4/1 1/4/1
f 16/1/1 12/1/1 11/1/1
f 16/4/1 11/4/1 15/4/1
f 17/2/1 13/2/1 12/2/1
f 17/1/1 12/1/1 16/1/1
f 18/1/1 14/1/1 13/1/1
f 18/2/1 13/2/1 17/2/1
f 19/4/1 6/4/1 14/4/1
f 19/1/1 14/1/1 18/1/1
f 20/4/1 6/4/1 19/4/1
f 23/4/1 22/4/1 21/4/1
f 24/4/1 22/4/1 23/4/1
f 25/4/2 26/4/2 27/4/2
f 27/4/2 26/4/2 28/4/2
f 29/4/2 30/4/2 35/4/2
f 30/1/2 31/1/2 35/1/2
f 31/2/2 32/2/2 36/2/2
f 35/1/2 31/1/2 36/1/2
f 32/1/2 33/1/2 37/1/2
f 36/2/2 32/2/2 37/2/2
f 33/4/2 34/4/2 38/4/2
f 37/1/2 33/1/2 38/1/2
f 36/2/2 37/2/2 39/2/2
f 35/2/2 36/2/2 39/2/2
f 37/2/2 38/2/2 39/2/2
f 29/4/2 35/4/2 39/4/2
f 39/2/2 38/2/2 40/2/2
f 40/2/2 38/2/2 41/2/2
f 38/4/2 34/4/2 42/4/2
f 41/2/2 38/2/2 42/2/2
f 29/4/2 39/4/2 43/4/2
f 39/1/2 40/1/2 44/1/2
f 43/4/2 39/4/2 44/4/2
f 40/2/2 41/2/2 45/2/2
f 44/1/2 40/1/2 45/1/2
f 41/1/2 42/1/2 46/1/2
f 45/2/2 41/2/2 46/2/2
f 42/4/2 34/4/2 47/4/2
f 46/1/2 42/1/2 47/1/2
f 47/4/2 34/4/2 48/4/2
f 51/4/3 50/4/3 49/4/3
f 52/4/3 50/4/3 51/4/3
f 53/4/3 51/4/3 49/4/3
f 54/4/3 50/4/3 52/4/3
f 55/4/3 53/4/3 49/4/3
f 55/4/3 54/4/3 53/4/3
f 56/4/3 50/4/3 54/4/3
f 56/4/3 54/4/3 55/4/3
f 59/3/3 58/3/3 57/3/3
f 60/3/3 58/3/3 59/3/3
f 61/4/4 62/4/4 63/4/4
f 63/4/4 62/4/4 64/4/4
f 67/4/5 66/4/5 65/4/5
f 68/4/5 66/4/5 67/4/5
f 69/1/5 68/1/5 67/1/5
f 70/1/5 68/1/5 69/1/5
f 71/2/5 70/2/5 69/2/5
f 72/2/5 70/2/5 71/2/5
f 73/1/5 72/1/5 71/1/5
f 74/1/5 72/1/5 73/1/5
f 75/4/5 74/4/5 73/4/5
f 76/4/5 74/4/5 75/4/5
f 79/4/5 78/4/5 77/4/5
f 80/4/5 78/4/5 79/4/5
f 81/4/6 82/4/6 83/4/6
f 83/4/6 82/4/6 84/4/6
f 85/4/6 86/4/6 87/4/6
f 87/4/6 86/4/6 88/4/6
f 87/1/6 88/1/6 89/1/6
f 89/1/6 88/1/6 90/1/6
f 89/2/6 90/2/6 91/2/6
f 91/2/6 90/2/6 92/2/6
f 91/1/6 92/1/6 93/1/6
f 93/1/6 92/1/6 94/1/6
f 93/4/6 94/4/6 95/4/6
f 95/4/6 94/4/6 96/4/6
