# MagicaVoxel @ ephtracy

# material
mtllib Turret.mtl
usemtl palette

# normals
vn -1 0 0
vn 1 0 0
vn 0 0 1
vn 0 0 -1
vn 0 -1 0
vn 0 1 0

# texcoords
vt 0.294922 0.5
vt 0.302734 0.5
vt 0.544922 0.5

# verts
v -4.5 1 -0.5
v -4.5 1 -4.5
v -4.5 4 -0.5
v -4.5 4 -4.5
v -4.5 6 -0.5
v -4.5 6 -4.5
v -4.5 7 -0.5
v -4.5 7 -4.5
v -3.5 7 4.5
v -3.5 7 -0.5
v -3.5 7 -3.5
v -3.5 9 4.5
v -3.5 9 -3.5
v -2.5 1 3.5
v -2.5 1 -0.5
v -2.5 4 2.5
v -2.5 4 -0.5
v -2.5 5 3.5
v -2.5 5 2.5
v -2.5 6 3.5
v -2.5 6 -0.5
v -2.5 7 3.5
v -2.5 7 -0.5
v -2.5 9 3.5
v -2.5 9 -2.5
v -2.5 10 3.5
v -2.5 10 -2.5
v -1.5 0 1.5
v -1.5 0 -1.5
v -1.5 1 1.5
v -1.5 1 -1.5
v 1.5 0 1.5
v 1.5 0 -1.5
v 1.5 1 1.5
v 1.5 1 -1.5
v 2.5 1 3.5
v 2.5 1 -0.5
v 2.5 4 2.5
v 2.5 4 -0.5
v 2.5 5 3.5
v 2.5 5 2.5
v 2.5 6 3.5
v 2.5 6 -0.5
v 2.5 7 3.5
v 2.5 7 -0.5
v 2.5 9 3.5
v 2.5 9 -2.5
v 2.5 10 3.5
v 2.5 10 -2.5
v 3.5 7 4.5
v 3.5 7 -0.5
v 3.5 7 -3.5
v 3.5 9 4.5
v 3.5 9 -3.5
v 4.5 1 -0.5
v 4.5 1 -4.5
v 4.5 4 -0.5
v 4.5 4 -4.5
v 4.5 6 -0.5
v 4.5 6 -4.5
v 4.5 7 -0.5
v 4.5 7 -4.5
v -3.5 7 4.5
v -3.5 9 4.5
v 3.5 7 4.5
v 3.5 9 4.5
v -2.5 1 3.5
v -2.5 5 3.5
v -2.5 6 3.5
v -2.5 7 3.5
v -2.5 9 3.5
v -2.5 10 3.5
v -0.5 1 3.5
v -0.5 5 3.5
v -0.5 6 3.5
v -0.5 7 3.5
v -0.5 9 3.5
v -0.5 10 3.5
v 0.5 1 3.5
v 0.5 5 3.5
v 0.5 6 3.5
v 0.5 7 3.5
v 0.5 9 3.5
v 0.5 10 3.5
v 2.5 1 3.5
v 2.5 5 3.5
v 2.5 6 3.5
v 2.5 7 3.5
v 2.5 9 3.5
v 2.5 10 3.5
v -1.5 0 1.5
v -1.5 1 1.5
v -0.5 1 1.5
v 0.5 1 1.5
v 1.5 0 1.5
v 1.5 1 1.5
v -4.5 1 -0.5
v -4.5 4 -0.5
v -4.5 6 -0.5
v -4.5 7 -0.5
v -3.5 7 -0.5
v -2.5 1 -0.5
v -2.5 4 -0.5
v -2.5 6 -0.5
v -2.5 7 -0.5
v 2.5 1 -0.5
v 2.5 4 -0.5
v 2.5 6 -0.5
v 2.5 7 -0.5
v 3.5 7 -0.5
v 4.5 1 -0.5
v 4.5 4 -0.5
v 4.5 6 -0.5
v 4.5 7 -0.5
v -1.5 0 -1.5
v -1.5 1 -1.5
v 1.5 0 -1.5
v 1.5 1 -1.5
v -2.5 9 -2.5
v -2.5 10 -2.5
v -0.5 9 -2.5
v -0.5 10 -2.5
v 0.5 9 -2.5
v 0.5 10 -2.5
v 2.5 9 -2.5
v 2.5 10 -2.5
v -3.5 7 -3.5
v -3.5 9 -3.5
v 3.5 7 -3.5
v 3.5 9 -3.5
v -4.5 1 -4.5
v -4.5 4 -4.5
v -4.5 6 -4.5
v -4.5 7 -4.5
v 4.5 1 -4.5
v 4.5 4 -4.5
v 4.5 6 -4.5
v 4.5 7 -4.5
v -1.5 0 1.5
v 1.5 0 1.5
v -1.5 0 -1.5
v 1.5 0 -1.5
v -2.5 1 3.5
v -0.5 1 3.5
v 0.5 1 3.5
v 2.5 1 3.5
v -1.5 1 1.5
v -0.5 1 1.5
v 0.5 1 1.5
v 1.5 1 1.5
v -4.5 1 -0.5
v -2.5 1 -0.5
v 2.5 1 -0.5
v 4.5 1 -0.5
v -1.5 1 -1.5
v 1.5 1 -1.5
v -4.5 1 -4.5
v 4.5 1 -4.5
v -3.5 7 4.5
v 3.5 7 4.5
v -2.5 7 3.5
v -0.5 7 3.5
v 0.5 7 3.5
v 2.5 7 3.5
v -3.5 7 -0.5
v -2.5 7 -0.5
v 2.5 7 -0.5
v 3.5 7 -0.5
v -4.5 7 -0.5
v -3.5 7 -0.5
v 3.5 7 -0.5
v 4.5 7 -0.5
v -3.5 7 -3.5
v 3.5 7 -3.5
v -4.5 7 -4.5
v 4.5 7 -4.5
v -3.5 9 4.5
v 3.5 9 4.5
v -2.5 9 3.5
v -0.5 9 3.5
v 0.5 9 3.5
v 2.5 9 3.5
v -2.5 9 -2.5
v -0.5 9 -2.5
v 0.5 9 -2.5
v 2.5 9 -2.5
v -3.5 9 -3.5
v 3.5 9 -3.5
v -2.5 10 3.5
v -0.5 10 3.5
v 0.5 10 3.5
v 2.5 10 3.5
v -2.5 10 -2.5
v -0.5 10 -2.5
v 0.5 10 -2.5
v 2.5 10 -2.5

# faces
f 3/1/1 2/1/1 1/1/1
f 4/1/1 2/1/1 3/1/1
f 5/2/1 4/2/1 3/2/1
f 6/2/1 4/2/1 5/2/1
f 7/1/1 6/1/1 5/1/1
f 8/1/1 6/1/1 7/1/1
f 12/3/1 10/3/1 9/3/1
f 12/3/1 11/3/1 10/3/1
f 13/3/1 11/3/1 12/3/1
f 16/1/1 15/1/1 14/1/1
f 17/1/1 15/1/1 16/1/1
f 18/1/1 16/1/1 14/1/1
f 19/2/1 17/2/1 16/2/1
f 19/1/1 16/1/1 18/1/1
f 20/2/1 19/2/1 18/2/1
f 21/2/1 17/2/1 19/2/1
f 21/2/1 19/2/1 20/2/1
f 22/1/1 21/1/1 20/1/1
f 23/1/1 21/1/1 22/1/1
f 26/1/1 25/1/1 24/1/1
f 27/1/1 25/1/1 26/1/1
f 30/3/1 29/3/1 28/3/1
f 31/3/1 29/3/1 30/3/1
f 32/3/2 33/3/2 34/3/2
f 34/3/2 33/3/2 35/3/2
f 36/1/2 37/1/2 38/1/2
f 38/1/2 37/1/2 39/1/2
f 36/1/2 38/1/2 40/1/2
f 38/2/2 39/2/2 41/2/2
f 40/1/2 38/1/2 41/1/2
f 40/2/2 41/2/2 42/2/2
f 41/2/2 39/2/2 43/2/2
f 42/2/2 41/2/2 43/2/2
f 42/1/2 43/1/2 44/1/2
f 44/1/2 43/1/2 45/1/2
f 46/1/2 47/1/2 48/1/2
f 48/1/2 47/1/2 49/1/2
f 50/3/2 51/3/2 53/3/2
f 51/3/2 52/3/2 53/3/2
f 53/3/2 52/3/2 54/3/2
f 55/1/2 56/1/2 57/1/2
f 57/1/2 56/1/2 58/1/2
f 57/2/2 58/2/2 59/2/2
f 59/2/2 58/2/2 60/2/2
f 59/1/2 60/1/2 61/1/2
f 61/1/2 60/1/2 62/1/2
f 65/3/3 64/3/3 63/3/3
f 66/3/3 64/3/3 65/3/3
f 73/1/3 68/1/3 67/1/3
f 74/2/3 69/2/3 68/2/3
f 74/1/3 68/1/3 73/1/3
f 75/1/3 70/1/3 69/1/3
f 75/2/3 69/2/3 74/2/3
f 76/1/3 70/1/3 75/1/3
f 77/1/3 72/1/3 71/1/3
f 78/1/3 72/1/3 77/1/3
f 79/2/3 76/2/3 75/2/3
f 79/2/3 74/2/3 73/2/3
f 79/2/3 75/2/3 74/2/3
f 80/2/3 76/2/3 79/2/3
f 81/2/3 76/2/3 80/2/3
f 82/2/3 76/2/3 81/2/3
f 83/2/3 78/2/3 77/2/3
f 84/2/3 78/2/3 83/2/3
f 85/1/3 80/1/3 79/1/3
f 86/2/3 81/2/3 80/2/3
f 86/1/3 80/1/3 85/1/3
f 87/1/3 82/1/3 81/1/3
f 87/2/3 81/2/3 86/2/3
f 88/1/3 82/1/3 87/1/3
f 89/1/3 84/1/3 83/1/3
f 90/1/3 84/1/3 89/1/3
f 93/3/3 92/3/3 91/3/3
f 94/3/3 93/3/3 91/3/3
f 95/3/3 94/3/3 91/3/3
f 96/3/3 94/3/3 95/3/3
f 101/1/3 100/1/3 99/1/3
f 102/1/3 98/1/3 97/1/3
f 103/2/3 99/2/3 98/2/3
f 103/1/3 98/1/3 102/1/3
f 104/1/3 101/1/3 99/1/3
f 104/2/3 99/2/3 103/2/3
f 105/1/3 101/1/3 104/1/3
f 110/1/3 109/1/3 108/1/3
f 111/1/3 107/1/3 106/1/3
f 112/2/3 108/2/3 107/2/3
f 112/1/3 107/1/3 111/1/3
f 113/1/3 110/1/3 108/1/3
f 113/2/3 108/2/3 112/2/3
f 114/1/3 110/1/3 113/1/3
f 115/3/4 116/3/4 117/3/4
f 117/3/4 116/3/4 118/3/4
f 119/1/4 120/1/4 121/1/4
f 121/1/4 120/1/4 122/1/4
f 121/2/4 122/2/4 123/2/4
f 123/2/4 122/2/4 124/2/4
f 123/1/4 124/1/4 125/1/4
f 125/1/4 124/1/4 126/1/4
f 127/3/4 128/3/4 129/3/4
f 129/3/4 128/3/4 130/3/4
f 131/1/4 132/1/4 135/1/4
f 132/2/4 133/2/4 136/2/4
f 135/1/4 132/1/4 136/1/4
f 133/1/4 134/1/4 137/1/4
f 136/2/4 133/2/4 137/2/4
f 137/1/4 134/1/4 138/1/4
f 141/3/5 140/3/5 139/3/5
f 142/3/5 140/3/5 141/3/5
f 147/1/5 144/1/5 143/1/5
f 148/2/5 145/2/5 144/2/5
f 148/1/5 144/1/5 147/1/5
f 149/1/5 146/1/5 145/1/5
f 149/2/5 145/2/5 148/2/5
f 150/1/5 146/1/5 149/1/5
f 152/1/5 147/1/5 143/1/5
f 153/1/5 146/1/5 150/1/5
f 155/1/5 152/1/5 151/1/5
f 155/1/5 147/1/5 152/1/5
f 156/1/5 154/1/5 153/1/5
f 156/1/5 153/1/5 150/1/5
f 157/1/5 155/1/5 151/1/5
f 157/1/5 156/1/5 155/1/5
f 158/1/5 154/1/5 156/1/5
f 158/1/5 156/1/5 157/1/5
f 161/3/5 160/3/5 159/3/5
f 162/3/5 160/3/5 161/3/5
f 163/3/5 160/3/5 162/3/5
f 164/3/5 160/3/5 163/3/5
f 165/3/5 161/3/5 159/3/5
f 166/3/5 161/3/5 165/3/5
f 167/3/5 160/3/5 164/3/5
f 168/3/5 160/3/5 167/3/5
f 169/1/6 170/1/6 173/1/6
f 171/1/6 172/1/6 174/1/6
f 169/1/6 173/1/6 175/1/6
f 173/1/6 174/1/6 175/1/6
f 174/1/6 172/1/6 176/1/6
f 175/1/6 174/1/6 176/1/6
f 177/3/6 178/3/6 179/3/6
f 179/3/6 178/3/6 180/3/6
f 180/3/6 178/3/6 181/3/6
f 181/3/6 178/3/6 182/3/6
f 177/3/6 179/3/6 183/3/6
f 182/3/6 178/3/6 186/3/6
f 184/3/6 185/3/6 187/3/6
f 185/3/6 186/3/6 187/3/6
f 177/3/6 183/3/6 187/3/6
f 183/3/6 184/3/6 187/3/6
f 186/3/6 178/3/6 188/3/6
f 187/3/6 186/3/6 188/3/6
f 189/1/6 190/1/6 193/1/6
f 190/2/6 191/2/6 194/2/6
f 193/1/6 190/1/6 194/1/6
f 191/1/6 192/1/6 195/1/6
f 194/2/6 191/2/6 195/2/6
f 195/1/6 192/1/6 196/1/6
