# MagicaVoxel @ ephtracy

# material
mtllib Knife.mtl
usemtl palette

# normals
vn -1 0 0
vn 1 0 0
vn 0 0 1
vn 0 0 -1
vn 0 -1 0
vn 0 1 0

# texcoords
vt 0.291016 0.5
vt 0.294922 0.5
vt 0.455078 0.5
vt 0.462891 0.5
vt 0.544922 0.5

# verts
v -1.5 0 -6
v -1.5 0 -8
v -1.5 4 -6
v -1.5 4 -8
v -0.5 1 9
v -0.5 1 -1
v -0.5 1 -2
v -0.5 1 -6
v -0.5 1 -8
v -0.5 1 -10
v -0.5 2 10
v -0.5 2 9
v -0.5 2 8
v -0.5 2 -0
v -0.5 2 -1
v -0.5 3 10
v -0.5 3 8
v -0.5 3 -0
v -0.5 3 -2
v -0.5 3 -6
v -0.5 3 -8
v -0.5 3 -10
v 0.5 1 9
v 0.5 1 -1
v 0.5 1 -2
v 0.5 1 -6
v 0.5 1 -8
v 0.5 1 -10
v 0.5 2 10
v 0.5 2 9
v 0.5 2 8
v 0.5 2 -0
v 0.5 2 -1
v 0.5 3 10
v 0.5 3 8
v 0.5 3 -0
v 0.5 3 -2
v 0.5 3 -6
v 0.5 3 -8
v 0.5 3 -10
v 1.5 0 -6
v 1.5 0 -8
v 1.5 4 -6
v 1.5 4 -8
v -0.5 2 10
v -0.5 3 10
v 0.5 2 10
v 0.5 3 10
v -0.5 1 9
v -0.5 2 9
v 0.5 1 9
v 0.5 2 9
v -1.5 0 -6
v -1.5 4 -6
v -0.5 1 -6
v -0.5 3 -6
v 0.5 1 -6
v 0.5 3 -6
v 1.5 0 -6
v 1.5 4 -6
v -1.5 0 -8
v -1.5 4 -8
v -0.5 1 -8
v -0.5 3 -8
v 0.5 1 -8
v 0.5 3 -8
v 1.5 0 -8
v 1.5 4 -8
v -0.5 1 -10
v -0.5 3 -10
v 0.5 1 -10
v 0.5 3 -10
v -1.5 0 -6
v 1.5 0 -6
v -1.5 0 -8
v 1.5 0 -8
v -0.5 1 9
v 0.5 1 9
v -0.5 1 -1
v 0.5 1 -1
v -0.5 1 -2
v 0.5 1 -2
v -0.5 1 -6
v 0.5 1 -6
v -0.5 1 -8
v 0.5 1 -8
v -0.5 1 -10
v 0.5 1 -10
v -0.5 2 10
v 0.5 2 10
v -0.5 2 9
v 0.5 2 9
v -0.5 3 10
v 0.5 3 10
v -0.5 3 8
v 0.5 3 8
v -0.5 3 -0
v 0.5 3 -0
v -0.5 3 -2
v 0.5 3 -2
v -0.5 3 -6
v 0.5 3 -6
v -0.5 3 -8
v 0.5 3 -8
v -0.5 3 -10
v 0.5 3 -10
v -1.5 4 -6
v 1.5 4 -6
v -1.5 4 -8
v 1.5 4 -8

# faces
f 3/5/1 2/5/1 1/5/1
f 4/5/1 2/5/1 3/5/1
f 12/4/1 6/4/1 5/4/1
f 13/4/1 6/4/1 12/4/1
f 14/4/1 6/4/1 13/4/1
f 15/1/1 7/1/1 6/1/1
f 15/4/1 6/4/1 14/4/1
f 16/4/1 12/4/1 11/4/1
f 16/4/1 13/4/1 12/4/1
f 17/3/1 14/3/1 13/3/1
f 17/4/1 13/4/1 16/4/1
f 18/1/1 15/1/1 14/1/1
f 18/3/1 14/3/1 17/3/1
f 19/2/1 8/2/1 7/2/1
f 19/1/1 15/1/1 18/1/1
f 19/1/1 7/1/1 15/1/1
f 20/2/1 8/2/1 19/2/1
f 21/2/1 10/2/1 9/2/1
f 22/2/1 10/2/1 21/2/1
f 23/4/2 24/4/2 30/4/2
f 30/4/2 24/4/2 31/4/2
f 31/4/2 24/4/2 32/4/2
f 24/1/2 25/1/2 33/1/2
f 32/4/2 24/4/2 33/4/2
f 29/4/2 30/4/2 34/4/2
f 30/4/2 31/4/2 34/4/2
f 31/3/2 32/3/2 35/3/2
f 34/4/2 31/4/2 35/4/2
f 32/1/2 33/1/2 36/1/2
f 35/3/2 32/3/2 36/3/2
f 25/2/2 26/2/2 37/2/2
f 36/1/2 33/1/2 37/1/2
f 33/1/2 25/1/2 37/1/2
f 37/2/2 26/2/2 38/2/2
f 27/2/2 28/2/2 39/2/2
f 39/2/2 28/2/2 40/2/2
f 41/5/2 42/5/2 43/5/2
f 43/5/2 42/5/2 44/5/2
f 47/4/3 46/4/3 45/4/3
f 48/4/3 46/4/3 47/4/3
f 51/4/3 50/4/3 49/4/3
f 52/4/3 50/4/3 51/4/3
f 55/5/3 54/5/3 53/5/3
f 56/5/3 54/5/3 55/5/3
f 57/5/3 55/5/3 53/5/3
f 58/5/3 54/5/3 56/5/3
f 59/5/3 57/5/3 53/5/3
f 59/5/3 58/5/3 57/5/3
f 60/5/3 54/5/3 58/5/3
f 60/5/3 58/5/3 59/5/3
f 61/5/4 62/5/4 63/5/4
f 63/5/4 62/5/4 64/5/4
f 61/5/4 63/5/4 65/5/4
f 64/5/4 62/5/4 66/5/4
f 61/5/4 65/5/4 67/5/4
f 65/5/4 66/5/4 67/5/4
f 66/5/4 62/5/4 68/5/4
f 67/5/4 66/5/4 68/5/4
f 69/2/4 70/2/4 71/2/4
f 71/2/4 70/2/4 72/2/4
f 75/5/5 74/5/5 73/5/5
f 76/5/5 74/5/5 75/5/5
f 79/4/5 78/4/5 77/4/5
f 80/4/5 78/4/5 79/4/5
f 81/1/5 80/1/5 79/1/5
f 82/1/5 80/1/5 81/1/5
f 83/2/5 82/2/5 81/2/5
f 84/2/5 82/2/5 83/2/5
f 87/2/5 86/2/5 85/2/5
f 88/2/5 86/2/5 87/2/5
f 91/4/5 90/4/5 89/4/5
f 92/4/5 90/4/5 91/4/5
f 93/4/6 94/4/6 95/4/6
f 95/4/6 94/4/6 96/4/6
f 95/3/6 96/3/6 97/3/6
f 97/3/6 96/3/6 98/3/6
f 97/1/6 98/1/6 99/1/6
f 99/1/6 98/1/6 100/1/6
f 99/2/6 100/2/6 101/2/6
f 101/2/6 100/2/6 102/2/6
f 103/2/6 104/2/6 105/2/6
f 105/2/6 104/2/6 106/2/6
f 107/5/6 108/5/6 109/5/6
f 109/5/6 108/5/6 110/5/6
