# MagicaVoxel @ ephtracy

# material
mtllib Leg.mtl
usemtl palette

# normals
vn -1 0 0
vn 1 0 0
vn 0 0 1
vn 0 0 -1
vn 0 -1 0
vn 0 1 0

# texcoords
vt 0.294922 0.5
vt 0.302734 0.5
vt 0.544922 0.5

# verts
v -1.5 10 1.5
v -1.5 10 -0.5
v -1.5 12 1.5
v -1.5 12 -0.5
v -0.5 0 0.5
v -0.5 0 -1.5
v -0.5 1 0.5
v -0.5 1 -1.5
v -0.5 2 0.5
v -0.5 2 -1.5
v -0.5 10 0.5
v -0.5 10 -0.5
v -0.5 11 -0.5
v -0.5 11 -1.5
v 0.5 10 1.5
v 0.5 10 0.5
v 0.5 11 0.5
v 0.5 11 -0.5
v 0.5 12 1.5
v 0.5 12 -0.5
v 1.5 0 0.5
v 1.5 0 -1.5
v 1.5 1 0.5
v 1.5 1 -1.5
v 1.5 2 0.5
v 1.5 2 -0.5
v 1.5 6 -0.5
v 1.5 6 -1.5
v 1.5 11 0.5
v 1.5 11 -1.5
v -1.5 10 1.5
v -1.5 12 1.5
v 0.5 10 1.5
v 0.5 12 1.5
v -0.5 0 0.5
v -0.5 1 0.5
v -0.5 2 0.5
v -0.5 10 0.5
v 0.5 10 0.5
v 0.5 11 0.5
v 1.5 0 0.5
v 1.5 1 0.5
v 1.5 2 0.5
v 1.5 11 0.5
v -1.5 10 -0.5
v -1.5 12 -0.5
v -0.5 10 -0.5
v -0.5 11 -0.5
v 0.5 11 -0.5
v 0.5 12 -0.5
v -0.5 0 -1.5
v -0.5 1 -1.5
v -0.5 2 -1.5
v -0.5 11 -1.5
v 0.5 2 -1.5
v 0.5 6 -1.5
v 1.5 0 -1.5
v 1.5 1 -1.5
v 1.5 6 -1.5
v 1.5 11 -1.5
v -0.5 0 0.5
v 1.5 0 0.5
v -0.5 0 -1.5
v 1.5 0 -1.5
v -1.5 10 1.5
v 0.5 10 1.5
v -0.5 10 0.5
v 0.5 10 0.5
v -1.5 10 -0.5
v -0.5 10 -0.5
v 0.5 11 0.5
v 1.5 11 0.5
v -0.5 11 -0.5
v 0.5 11 -0.5
v -0.5 11 -1.5
v 1.5 11 -1.5
v -1.5 12 1.5
v 0.5 12 1.5
v -1.5 12 -0.5
v 0.5 12 -0.5

# faces
f 3/3/1 2/3/1 1/3/1
f 4/3/1 2/3/1 3/3/1
f 7/3/1 6/3/1 5/3/1
f 8/3/1 6/3/1 7/3/1
f 9/2/1 8/2/1 7/2/1
f 10/2/1 8/2/1 9/2/1
f 11/1/1 10/1/1 9/1/1
f 12/1/1 10/1/1 11/1/1
f 13/1/1 10/1/1 12/1/1
f 14/1/1 10/1/1 13/1/1
f 15/3/2 16/3/2 17/3/2
f 15/3/2 17/3/2 19/3/2
f 17/3/2 18/3/2 19/3/2
f 19/3/2 18/3/2 20/3/2
f 21/3/2 22/3/2 23/3/2
f 23/3/2 22/3/2 24/3/2
f 23/2/2 24/2/2 25/2/2
f 25/2/2 24/2/2 26/2/2
f 25/1/2 26/1/2 27/1/2
f 26/2/2 24/2/2 27/2/2
f 27/2/2 24/2/2 28/2/2
f 25/1/2 27/1/2 29/1/2
f 27/1/2 28/1/2 29/1/2
f 29/1/2 28/1/2 30/1/2
f 33/3/3 32/3/3 31/3/3
f 34/3/3 32/3/3 33/3/3
f 39/1/3 38/1/3 37/1/3
f 41/3/3 36/3/3 35/3/3
f 42/2/3 37/2/3 36/2/3
f 42/3/3 36/3/3 41/3/3
f 43/1/3 40/1/3 39/1/3
f 43/2/3 37/2/3 42/2/3
f 43/1/3 39/1/3 37/1/3
f 44/1/3 40/1/3 43/1/3
f 45/3/4 46/3/4 47/3/4
f 47/3/4 46/3/4 48/3/4
f 48/3/4 46/3/4 49/3/4
f 49/3/4 46/3/4 50/3/4
f 52/2/4 53/2/4 55/2/4
f 53/1/4 54/1/4 55/1/4
f 55/1/4 54/1/4 56/1/4
f 51/3/4 52/3/4 57/3/4
f 52/2/4 55/2/4 58/2/4
f 57/3/4 52/3/4 58/3/4
f 55/2/4 56/2/4 58/2/4
f 56/1/4 54/1/4 59/1/4
f 58/2/4 56/2/4 59/2/4
f 59/1/4 54/1/4 60/1/4
f 63/3/5 62/3/5 61/3/5
f 64/3/5 62/3/5 63/3/5
f 67/3/5 66/3/5 65/3/5
f 68/3/5 66/3/5 67/3/5
f 69/3/5 67/3/5 65/3/5
f 70/3/5 67/3/5 69/3/5
f 71/1/6 72/1/6 74/1/6
f 73/1/6 74/1/6 75/1/6
f 74/1/6 72/1/6 76/1/6
f 75/1/6 74/1/6 76/1/6
f 77/3/6 78/3/6 79/3/6
f 79/3/6 78/3/6 80/3/6
