# MagicaVoxel @ ephtracy

# material
mtllib Ring.mtl
usemtl palette

# normals
vn -1 0 0
vn 1 0 0
vn 0 0 1
vn 0 0 -1
vn 0 -1 0
vn 0 1 0

# texcoords
vt 0.259766 0.5
vt 0.263672 0.5
vt 0.267578 0.5

# verts
v -0.5 0 7.5
v -0.5 0 -7.5
v -0.5 1 6.5
v -0.5 1 -6.5
v -0.5 2 9.5
v -0.5 2 7.5
v -0.5 2 5.5
v -0.5 2 -5.5
v -0.5 2 -7.5
v -0.5 2 -9.5
v -0.5 3 8.5
v -0.5 3 6.5
v -0.5 3 -6.5
v -0.5 3 -8.5
v -0.5 4 7.5
v -0.5 4 5.5
v -0.5 4 -5.5
v -0.5 4 -7.5
v -0.5 15 7.5
v -0.5 15 5.5
v -0.5 15 -5.5
v -0.5 15 -7.5
v -0.5 16 8.5
v -0.5 16 6.5
v -0.5 16 -6.5
v -0.5 16 -8.5
v -0.5 17 9.5
v -0.5 17 7.5
v -0.5 17 5.5
v -0.5 17 -5.5
v -0.5 17 -7.5
v -0.5 17 -9.5
v -0.5 18 7.5
v -0.5 18 6.5
v -0.5 18 -6.5
v -0.5 18 -7.5
v -0.5 19 7.5
v -0.5 19 -7.5
v 0.5 0 7.5
v 0.5 0 -7.5
v 0.5 1 6.5
v 0.5 1 -6.5
v 0.5 2 9.5
v 0.5 2 7.5
v 0.5 2 5.5
v 0.5 2 -5.5
v 0.5 2 -7.5
v 0.5 2 -9.5
v 0.5 3 8.5
v 0.5 3 6.5
v 0.5 3 -6.5
v 0.5 3 -8.5
v 0.5 4 7.5
v 0.5 4 5.5
v 0.5 4 -5.5
v 0.5 4 -7.5
v 0.5 15 7.5
v 0.5 15 5.5
v 0.5 15 -5.5
v 0.5 15 -7.5
v 0.5 16 8.5
v 0.5 16 6.5
v 0.5 16 -6.5
v 0.5 16 -8.5
v 0.5 17 9.5
v 0.5 17 7.5
v 0.5 17 5.5
v 0.5 17 -5.5
v 0.5 17 -7.5
v 0.5 17 -9.5
v 0.5 18 7.5
v 0.5 18 6.5
v 0.5 18 -6.5
v 0.5 18 -7.5
v 0.5 19 7.5
v 0.5 19 -7.5
v -0.5 2 9.5
v -0.5 17 9.5
v 0.5 2 9.5
v 0.5 17 9.5
v -0.5 0 7.5
v -0.5 2 7.5
v -0.5 17 7.5
v -0.5 18 7.5
v -0.5 19 7.5
v 0.5 0 7.5
v 0.5 2 7.5
v 0.5 17 7.5
v 0.5 18 7.5
v 0.5 19 7.5
v -0.5 2 -5.5
v -0.5 4 -5.5
v -0.5 15 -5.5
v -0.5 17 -5.5
v 0.5 2 -5.5
v 0.5 4 -5.5
v 0.5 15 -5.5
v 0.5 17 -5.5
v -0.5 4 -7.5
v -0.5 15 -7.5
v 0.5 4 -7.5
v 0.5 15 -7.5
v -0.5 4 7.5
v -0.5 15 7.5
v 0.5 4 7.5
v 0.5 15 7.5
v -0.5 2 5.5
v -0.5 4 5.5
v -0.5 15 5.5
v -0.5 17 5.5
v 0.5 2 5.5
v 0.5 4 5.5
v 0.5 15 5.5
v 0.5 17 5.5
v -0.5 0 -7.5
v -0.5 2 -7.5
v -0.5 17 -7.5
v -0.5 18 -7.5
v -0.5 19 -7.5
v 0.5 0 -7.5
v 0.5 2 -7.5
v 0.5 17 -7.5
v 0.5 18 -7.5
v 0.5 19 -7.5
v -0.5 2 -9.5
v -0.5 17 -9.5
v 0.5 2 -9.5
v 0.5 17 -9.5
v -0.5 0 7.5
v 0.5 0 7.5
v -0.5 0 -7.5
v 0.5 0 -7.5
v -0.5 2 9.5
v 0.5 2 9.5
v -0.5 2 7.5
v 0.5 2 7.5
v -0.5 2 -7.5
v 0.5 2 -7.5
v -0.5 2 -9.5
v 0.5 2 -9.5
v -0.5 15 7.5
v 0.5 15 7.5
v -0.5 15 5.5
v 0.5 15 5.5
v -0.5 15 -5.5
v 0.5 15 -5.5
v -0.5 15 -7.5
v 0.5 15 -7.5
v -0.5 17 5.5
v 0.5 17 5.5
v -0.5 17 -5.5
v 0.5 17 -5.5
v -0.5 2 5.5
v 0.5 2 5.5
v -0.5 2 -5.5
v 0.5 2 -5.5
v -0.5 4 7.5
v 0.5 4 7.5
v -0.5 4 5.5
v 0.5 4 5.5
v -0.5 4 -5.5
v 0.5 4 -5.5
v -0.5 4 -7.5
v 0.5 4 -7.5
v -0.5 17 9.5
v 0.5 17 9.5
v -0.5 17 7.5
v 0.5 17 7.5
v -0.5 17 -7.5
v 0.5 17 -7.5
v -0.5 17 -9.5
v 0.5 17 -9.5
v -0.5 19 7.5
v 0.5 19 7.5
v -0.5 19 -7.5
v 0.5 19 -7.5

# faces
f 3/3/1 2/3/1 1/3/1
f 4/3/1 2/3/1 3/3/1
f 6/3/1 3/3/1 1/3/1
f 7/1/1 4/1/1 3/1/1
f 8/1/1 4/1/1 7/1/1
f 9/3/1 2/3/1 4/3/1
f 11/3/1 6/3/1 5/3/1
f 12/3/1 3/3/1 6/3/1
f 12/3/1 6/3/1 11/3/1
f 12/1/1 7/1/1 3/1/1
f 13/1/1 4/1/1 8/1/1
f 13/3/1 10/3/1 9/3/1
f 13/3/1 9/3/1 4/3/1
f 14/3/1 10/3/1 13/3/1
f 15/1/1 12/1/1 11/1/1
f 16/1/1 7/1/1 12/1/1
f 16/1/1 12/1/1 15/1/1
f 17/1/1 13/1/1 8/1/1
f 17/1/1 14/1/1 13/1/1
f 18/1/1 14/1/1 17/1/1
f 19/1/1 15/1/1 11/1/1
f 22/1/1 14/1/1 18/1/1
f 23/1/1 20/1/1 19/1/1
f 23/3/1 11/3/1 5/3/1
f 23/1/1 19/1/1 11/1/1
f 24/1/1 20/1/1 23/1/1
f 25/1/1 22/1/1 21/1/1
f 26/3/1 10/3/1 14/3/1
f 26/1/1 22/1/1 25/1/1
f 26/1/1 14/1/1 22/1/1
f 27/3/1 24/3/1 23/3/1
f 27/3/1 23/3/1 5/3/1
f 28/3/1 24/3/1 27/3/1
f 29/1/1 20/1/1 24/1/1
f 30/1/1 25/1/1 21/1/1
f 31/3/1 26/3/1 25/3/1
f 32/3/1 10/3/1 26/3/1
f 32/3/1 26/3/1 31/3/1
f 33/3/1 24/3/1 28/3/1
f 34/1/1 29/1/1 24/1/1
f 34/3/1 24/3/1 33/3/1
f 34/1/1 30/1/1 29/1/1
f 35/3/1 31/3/1 25/3/1
f 35/1/1 30/1/1 34/1/1
f 35/1/1 25/1/1 30/1/1
f 36/3/1 31/3/1 35/3/1
f 37/2/1 34/2/1 33/2/1
f 37/2/1 35/2/1 34/2/1
f 37/2/1 36/2/1 35/2/1
f 38/2/1 36/2/1 37/2/1
f 39/3/2 40/3/2 41/3/2
f 41/3/2 40/3/2 42/3/2
f 39/3/2 41/3/2 44/3/2
f 41/1/2 42/1/2 45/1/2
f 45/1/2 42/1/2 46/1/2
f 42/3/2 40/3/2 47/3/2
f 43/3/2 44/3/2 49/3/2
f 44/3/2 41/3/2 50/3/2
f 49/3/2 44/3/2 50/3/2
f 41/1/2 45/1/2 50/1/2
f 46/1/2 42/1/2 51/1/2
f 47/3/2 48/3/2 51/3/2
f 42/3/2 47/3/2 51/3/2
f 51/3/2 48/3/2 52/3/2
f 49/1/2 50/1/2 53/1/2
f 50/1/2 45/1/2 54/1/2
f 53/1/2 50/1/2 54/1/2
f 46/1/2 51/1/2 55/1/2
f 51/1/2 52/1/2 55/1/2
f 55/1/2 52/1/2 56/1/2
f 49/1/2 53/1/2 57/1/2
f 56/1/2 52/1/2 60/1/2
f 57/1/2 58/1/2 61/1/2
f 43/3/2 49/3/2 61/3/2
f 49/1/2 57/1/2 61/1/2
f 61/1/2 58/1/2 62/1/2
f 59/1/2 60/1/2 63/1/2
f 52/3/2 48/3/2 64/3/2
f 63/1/2 60/1/2 64/1/2
f 60/1/2 52/1/2 64/1/2
f 61/3/2 62/3/2 65/3/2
f 43/3/2 61/3/2 65/3/2
f 65/3/2 62/3/2 66/3/2
f 62/1/2 58/1/2 67/1/2
f 59/1/2 63/1/2 68/1/2
f 63/3/2 64/3/2 69/3/2
f 64/3/2 48/3/2 70/3/2
f 69/3/2 64/3/2 70/3/2
f 66/3/2 62/3/2 71/3/2
f 62/1/2 67/1/2 72/1/2
f 71/3/2 62/3/2 72/3/2
f 67/1/2 68/1/2 72/1/2
f 63/3/2 69/3/2 73/3/2
f 72/1/2 68/1/2 73/1/2
f 68/1/2 63/1/2 73/1/2
f 73/3/2 69/3/2 74/3/2
f 71/2/2 72/2/2 75/2/2
f 72/2/2 73/2/2 75/2/2
f 73/2/2 74/2/2 75/2/2
f 75/2/2 74/2/2 76/2/2
f 79/3/3 78/3/3 77/3/3
f 80/3/3 78/3/3 79/3/3
f 86/3/3 82/3/3 81/3/3
f 87/3/3 82/3/3 86/3/3
f 88/3/3 84/3/3 83/3/3
f 89/2/3 85/2/3 84/2/3
f 89/3/3 84/3/3 88/3/3
f 90/2/3 85/2/3 89/2/3
f 95/1/3 92/1/3 91/1/3
f 96/1/3 92/1/3 95/1/3
f 97/1/3 94/1/3 93/1/3
f 98/1/3 94/1/3 97/1/3
f 101/1/3 100/1/3 99/1/3
f 102/1/3 100/1/3 101/1/3
f 103/1/4 104/1/4 105/1/4
f 105/1/4 104/1/4 106/1/4
f 107/1/4 108/1/4 111/1/4
f 111/1/4 108/1/4 112/1/4
f 109/1/4 110/1/4 113/1/4
f 113/1/4 110/1/4 114/1/4
f 115/3/4 116/3/4 120/3/4
f 120/3/4 116/3/4 121/3/4
f 117/3/4 118/3/4 122/3/4
f 118/2/4 119/2/4 123/2/4
f 122/3/4 118/3/4 123/3/4
f 123/2/4 119/2/4 124/2/4
f 125/3/4 126/3/4 127/3/4
f 127/3/4 126/3/4 128/3/4
f 131/3/5 130/3/5 129/3/5
f 132/3/5 130/3/5 131/3/5
f 135/3/5 134/3/5 133/3/5
f 136/3/5 134/3/5 135/3/5
f 139/3/5 138/3/5 137/3/5
f 140/3/5 138/3/5 139/3/5
f 143/1/5 142/1/5 141/1/5
f 144/1/5 142/1/5 143/1/5
f 147/1/5 146/1/5 145/1/5
f 148/1/5 146/1/5 147/1/5
f 151/1/5 150/1/5 149/1/5
f 152/1/5 150/1/5 151/1/5
f 153/1/6 154/1/6 155/1/6
f 155/1/6 154/1/6 156/1/6
f 157/1/6 158/1/6 159/1/6
f 159/1/6 158/1/6 160/1/6
f 161/1/6 162/1/6 163/1/6
f 163/1/6 162/1/6 164/1/6
f 165/3/6 166/3/6 167/3/6
f 167/3/6 166/3/6 168/3/6
f 169/3/6 170/3/6 171/3/6
f 171/3/6 170/3/6 172/3/6
f 173/2/6 174/2/6 175/2/6
f 175/2/6 174/2/6 176/2/6
