# MagicaVoxel @ ephtracy

# material
mtllib Turret.mtl
usemtl palette

# normals
vn -1 0 0
vn 1 0 0
vn 0 0 1
vn 0 0 -1
vn 0 -1 0
vn 0 1 0

# texcoords
vt 0.294922 0.5
vt 0.302734 0.5
vt 0.544922 0.5
vt 0.552734 0.5

# verts
v -4.5 3 1.5
v -4.5 3 -1.5
v -4.5 6 1.5
v -4.5 6 0.5
v -4.5 6 -0.5
v -4.5 6 -1.5
v -4.5 9 0.5
v -4.5 9 -0.5
v -3.5 1 3.5
v -3.5 1 -3.5
v -3.5 3 1.5
v -3.5 3 -1.5
v -3.5 6 1.5
v -3.5 6 0.5
v -3.5 6 -0.5
v -3.5 6 -1.5
v -3.5 8 3.5
v -3.5 8 0.5
v -3.5 8 -0.5
v -3.5 8 -3.5
v -1.5 0 1.5
v -1.5 0 -1.5
v -1.5 1 1.5
v -1.5 1 -1.5
v 1.5 0 1.5
v 1.5 0 -1.5
v 1.5 1 1.5
v 1.5 1 -1.5
v 3.5 1 3.5
v 3.5 1 -3.5
v 3.5 3 1.5
v 3.5 3 -1.5
v 3.5 6 1.5
v 3.5 6 0.5
v 3.5 6 -0.5
v 3.5 6 -1.5
v 3.5 8 3.5
v 3.5 8 0.5
v 3.5 8 -0.5
v 3.5 8 -3.5
v 4.5 3 1.5
v 4.5 3 -1.5
v 4.5 6 1.5
v 4.5 6 0.5
v 4.5 6 -0.5
v 4.5 6 -1.5
v 4.5 9 0.5
v 4.5 9 -0.5
v -3.5 1 3.5
v -3.5 8 3.5
v -2.5 1 3.5
v -2.5 8 3.5
v -1.5 1 3.5
v -1.5 8 3.5
v -0.5 1 3.5
v -0.5 8 3.5
v 0.5 1 3.5
v 0.5 8 3.5
v 1.5 1 3.5
v 1.5 8 3.5
v 2.5 1 3.5
v 2.5 8 3.5
v 3.5 1 3.5
v 3.5 8 3.5
v -4.5 3 1.5
v -4.5 6 1.5
v -3.5 3 1.5
v -3.5 6 1.5
v -1.5 0 1.5
v -1.5 1 1.5
v -0.5 1 1.5
v 0.5 1 1.5
v 1.5 0 1.5
v 1.5 1 1.5
v 3.5 3 1.5
v 3.5 6 1.5
v 4.5 3 1.5
v 4.5 6 1.5
v -4.5 6 0.5
v -4.5 9 0.5
v -3.5 6 0.5
v -3.5 8 0.5
v -2.5 8 0.5
v -1.5 8 0.5
v -0.5 8 0.5
v 0.5 8 0.5
v 1.5 8 0.5
v 2.5 8 0.5
v 3.5 6 0.5
v 3.5 8 0.5
v 4.5 6 0.5
v 4.5 9 0.5
v -4.5 6 -0.5
v -4.5 9 -0.5
v -3.5 6 -0.5
v -3.5 8 -0.5
v -2.5 8 -0.5
v -1.5 8 -0.5
v -0.5 8 -0.5
v 0.5 8 -0.5
v 1.5 8 -0.5
v 2.5 8 -0.5
v 3.5 6 -0.5
v 3.5 8 -0.5
v 4.5 6 -0.5
v 4.5 9 -0.5
v -4.5 3 -1.5
v -4.5 6 -1.5
v -3.5 3 -1.5
v -3.5 6 -1.5
v -1.5 0 -1.5
v -1.5 1 -1.5
v -0.5 1 -1.5
v 0.5 1 -1.5
v 1.5 0 -1.5
v 1.5 1 -1.5
v 3.5 3 -1.5
v 3.5 6 -1.5
v 4.5 3 -1.5
v 4.5 6 -1.5
v -3.5 1 -3.5
v -3.5 8 -3.5
v -2.5 1 -3.5
v -2.5 8 -3.5
v -1.5 1 -3.5
v -1.5 8 -3.5
v -0.5 1 -3.5
v -0.5 8 -3.5
v 0.5 1 -3.5
v 0.5 8 -3.5
v 1.5 1 -3.5
v 1.5 8 -3.5
v 2.5 1 -3.5
v 2.5 8 -3.5
v 3.5 1 -3.5
v 3.5 8 -3.5
v -1.5 0 1.5
v 1.5 0 1.5
v -1.5 0 -1.5
v 1.5 0 -1.5
v -3.5 1 3.5
v -2.5 1 3.5
v -1.5 1 3.5
v -0.5 1 3.5
v 0.5 1 3.5
v 1.5 1 3.5
v 2.5 1 3.5
v 3.5 1 3.5
v -1.5 1 1.5
v -0.5 1 1.5
v 0.5 1 1.5
v 1.5 1 1.5
v -1.5 1 -1.5
v -0.5 1 -1.5
v 0.5 1 -1.5
v 1.5 1 -1.5
v -3.5 1 -3.5
v -2.5 1 -3.5
v -1.5 1 -3.5
v -0.5 1 -3.5
v 0.5 1 -3.5
v 1.5 1 -3.5
v 2.5 1 -3.5
v 3.5 1 -3.5
v -4.5 3 1.5
v -3.5 3 1.5
v 3.5 3 1.5
v 4.5 3 1.5
v -4.5 3 -1.5
v -3.5 3 -1.5
v 3.5 3 -1.5
v 4.5 3 -1.5
v -4.5 6 1.5
v -3.5 6 1.5
v 3.5 6 1.5
v 4.5 6 1.5
v -4.5 6 0.5
v -3.5 6 0.5
v 3.5 6 0.5
v 4.5 6 0.5
v -4.5 6 -0.5
v -3.5 6 -0.5
v 3.5 6 -0.5
v 4.5 6 -0.5
v -4.5 6 -1.5
v -3.5 6 -1.5
v 3.5 6 -1.5
v 4.5 6 -1.5
v -3.5 8 3.5
v -2.5 8 3.5
v -1.5 8 3.5
v -0.5 8 3.5
v 0.5 8 3.5
v 1.5 8 3.5
v 2.5 8 3.5
v 3.5 8 3.5
v -3.5 8 0.5
v -2.5 8 0.5
v -1.5 8 0.5
v -0.5 8 0.5
v 0.5 8 0.5
v 1.5 8 0.5
v 2.5 8 0.5
v 3.5 8 0.5
v -3.5 8 -0.5
v -2.5 8 -0.5
v -1.5 8 -0.5
v -0.5 8 -0.5
v 0.5 8 -0.5
v 1.5 8 -0.5
v 2.5 8 -0.5
v 3.5 8 -0.5
v -3.5 8 -3.5
v -2.5 8 -3.5
v -1.5 8 -3.5
v -0.5 8 -3.5
v 0.5 8 -3.5
v 1.5 8 -3.5
v 2.5 8 -3.5
v 3.5 8 -3.5
v -4.5 9 0.5
v 4.5 9 0.5
v -4.5 9 -0.5
v 4.5 9 -0.5

# faces
f 3/4/1 2/4/1 1/4/1
f 4/4/1 2/4/1 3/4/1
f 5/4/1 2/4/1 4/4/1
f 6/4/1 2/4/1 5/4/1
f 7/3/1 5/3/1 4/3/1
f 8/3/1 5/3/1 7/3/1
f 11/1/1 10/1/1 9/1/1
f 12/1/1 10/1/1 11/1/1
f 13/1/1 11/1/1 9/1/1
f 16/1/1 10/1/1 12/1/1
f 17/1/1 14/1/1 13/1/1
f 17/1/1 13/1/1 9/1/1
f 18/1/1 14/1/1 17/1/1
f 19/1/1 16/1/1 15/1/1
f 20/1/1 10/1/1 16/1/1
f 20/1/1 16/1/1 19/1/1
f 23/3/1 22/3/1 21/3/1
f 24/3/1 22/3/1 23/3/1
f 25/3/2 26/3/2 27/3/2
f 27/3/2 26/3/2 28/3/2
f 29/1/2 30/1/2 31/1/2
f 31/1/2 30/1/2 32/1/2
f 29/1/2 31/1/2 33/1/2
f 32/1/2 30/1/2 36/1/2
f 33/1/2 34/1/2 37/1/2
f 29/1/2 33/1/2 37/1/2
f 37/1/2 34/1/2 38/1/2
f 35/1/2 36/1/2 39/1/2
f 36/1/2 30/1/2 40/1/2
f 39/1/2 36/1/2 40/1/2
f 41/4/2 42/4/2 43/4/2
f 43/4/2 42/4/2 44/4/2
f 44/4/2 42/4/2 45/4/2
f 45/4/2 42/4/2 46/4/2
f 44/3/2 45/3/2 47/3/2
f 47/3/2 45/3/2 48/3/2
f 51/1/3 50/1/3 49/1/3
f 52/1/3 50/1/3 51/1/3
f 53/2/3 52/2/3 51/2/3
f 54/2/3 52/2/3 53/2/3
f 55/1/3 54/1/3 53/1/3
f 56/1/3 54/1/3 55/1/3
f 57/2/3 56/2/3 55/2/3
f 58/2/3 56/2/3 57/2/3
f 59/1/3 58/1/3 57/1/3
f 60/1/3 58/1/3 59/1/3
f 61/2/3 60/2/3 59/2/3
f 62/2/3 60/2/3 61/2/3
f 63/1/3 62/1/3 61/1/3
f 64/1/3 62/1/3 63/1/3
f 67/4/3 66/4/3 65/4/3
f 68/4/3 66/4/3 67/4/3
f 71/3/3 70/3/3 69/3/3
f 72/3/3 71/3/3 69/3/3
f 73/3/3 72/3/3 69/3/3
f 74/3/3 72/3/3 73/3/3
f 77/4/3 76/4/3 75/4/3
f 78/4/3 76/4/3 77/4/3
f 81/3/3 80/3/3 79/3/3
f 82/3/3 80/3/3 81/3/3
f 83/3/3 80/3/3 82/3/3
f 84/3/3 80/3/3 83/3/3
f 85/3/3 80/3/3 84/3/3
f 86/3/3 80/3/3 85/3/3
f 87/3/3 80/3/3 86/3/3
f 88/3/3 80/3/3 87/3/3
f 90/3/3 80/3/3 88/3/3
f 91/3/3 90/3/3 89/3/3
f 92/3/3 80/3/3 90/3/3
f 92/3/3 90/3/3 91/3/3
f 93/3/4 94/3/4 95/3/4
f 95/3/4 94/3/4 96/3/4
f 96/3/4 94/3/4 97/3/4
f 97/3/4 94/3/4 98/3/4
f 98/3/4 94/3/4 99/3/4
f 99/3/4 94/3/4 100/3/4
f 100/3/4 94/3/4 101/3/4
f 101/3/4 94/3/4 102/3/4
f 102/3/4 94/3/4 104/3/4
f 103/3/4 104/3/4 105/3/4
f 104/3/4 94/3/4 106/3/4
f 105/3/4 104/3/4 106/3/4
f 107/4/4 108/4/4 109/4/4
f 109/4/4 108/4/4 110/4/4
f 111/3/4 112/3/4 113/3/4
f 111/3/4 113/3/4 114/3/4
f 111/3/4 114/3/4 115/3/4
f 115/3/4 114/3/4 116/3/4
f 117/4/4 118/4/4 119/4/4
f 119/4/4 118/4/4 120/4/4
f 121/1/4 122/1/4 123/1/4
f 123/1/4 122/1/4 124/1/4
f 123/2/4 124/2/4 125/2/4
f 125/2/4 124/2/4 126/2/4
f 125/1/4 126/1/4 127/1/4
f 127/1/4 126/1/4 128/1/4
f 127/2/4 128/2/4 129/2/4
f 129/2/4 128/2/4 130/2/4
f 129/1/4 130/1/4 131/1/4
f 131/1/4 130/1/4 132/1/4
f 131/2/4 132/2/4 133/2/4
f 133/2/4 132/2/4 134/2/4
f 133/1/4 134/1/4 135/1/4
f 135/1/4 134/1/4 136/1/4
f 139/3/5 138/3/5 137/3/5
f 140/3/5 138/3/5 139/3/5
f 149/2/5 143/2/5 142/2/5
f 149/1/5 144/1/5 143/1/5
f 150/2/5 145/2/5 144/2/5
f 150/1/5 144/1/5 149/1/5
f 151/1/5 146/1/5 145/1/5
f 151/2/5 145/2/5 150/2/5
f 152/2/5 147/2/5 146/2/5
f 152/1/5 146/1/5 151/1/5
f 153/2/5 149/2/5 142/2/5
f 156/2/5 147/2/5 152/2/5
f 157/1/5 142/1/5 141/1/5
f 158/2/5 153/2/5 142/2/5
f 158/1/5 142/1/5 157/1/5
f 159/1/5 154/1/5 153/1/5
f 159/2/5 153/2/5 158/2/5
f 160/2/5 155/2/5 154/2/5
f 160/1/5 154/1/5 159/1/5
f 161/1/5 156/1/5 155/1/5
f 161/2/5 155/2/5 160/2/5
f 162/2/5 147/2/5 156/2/5
f 162/1/5 156/1/5 161/1/5
f 163/1/5 148/1/5 147/1/5
f 163/2/5 147/2/5 162/2/5
f 164/1/5 148/1/5 163/1/5
f 169/4/5 166/4/5 165/4/5
f 170/4/5 166/4/5 169/4/5
f 171/4/5 168/4/5 167/4/5
f 172/4/5 168/4/5 171/4/5
f 173/4/6 174/4/6 177/4/6
f 177/4/6 174/4/6 178/4/6
f 175/4/6 176/4/6 179/4/6
f 179/4/6 176/4/6 180/4/6
f 181/4/6 182/4/6 185/4/6
f 185/4/6 182/4/6 186/4/6
f 183/4/6 184/4/6 187/4/6
f 187/4/6 184/4/6 188/4/6
f 189/1/6 190/1/6 197/1/6
f 190/2/6 191/2/6 198/2/6
f 197/1/6 190/1/6 198/1/6
f 191/1/6 192/1/6 199/1/6
f 198/2/6 191/2/6 199/2/6
f 192/2/6 193/2/6 200/2/6
f 199/1/6 192/1/6 200/1/6
f 193/1/6 194/1/6 201/1/6
f 200/2/6 193/2/6 201/2/6
f 194/2/6 195/2/6 202/2/6
f 201/1/6 194/1/6 202/1/6
f 195/1/6 196/1/6 203/1/6
f 202/2/6 195/2/6 203/2/6
f 203/1/6 196/1/6 204/1/6
f 205/1/6 206/1/6 213/1/6
f 206/2/6 207/2/6 214/2/6
f 213/1/6 206/1/6 214/1/6
f 207/1/6 208/1/6 215/1/6
f 214/2/6 207/2/6 215/2/6
f 208/2/6 209/2/6 216/2/6
f 215/1/6 208/1/6 216/1/6
f 209/1/6 210/1/6 217/1/6
f 216/2/6 209/2/6 217/2/6
f 210/2/6 211/2/6 218/2/6
f 217/1/6 210/1/6 218/1/6
f 211/1/6 212/1/6 219/1/6
f 218/2/6 211/2/6 219/2/6
f 219/1/6 212/1/6 220/1/6
f 221/3/6 222/3/6 223/3/6
f 223/3/6 222/3/6 224/3/6
