# MagicaVoxel @ ephtracy

# material
mtllib Leg.mtl
usemtl palette

# normals
vn -1 0 0
vn 1 0 0
vn 0 0 1
vn 0 0 -1
vn 0 -1 0
vn 0 1 0

# texcoords
vt 0.294922 0.5
vt 0.302734 0.5
vt 0.544922 0.5

# verts
v -1.5 7 1.5
v -1.5 7 -0.5
v -1.5 9 1.5
v -1.5 9 -0.5
v -0.5 0 0.5
v -0.5 0 -1.5
v -0.5 1 0.5
v -0.5 1 -0.5
v -0.5 1 -1.5
v -0.5 2 -0.5
v -0.5 2 -1.5
v -0.5 7 0.5
v -0.5 7 -0.5
v -0.5 8 -0.5
v -0.5 8 -1.5
v 0.5 7 1.5
v 0.5 7 0.5
v 0.5 8 0.5
v 0.5 8 -0.5
v 0.5 9 1.5
v 0.5 9 -0.5
v 1.5 0 0.5
v 1.5 0 -1.5
v 1.5 1 0.5
v 1.5 1 -1.5
v 1.5 2 0.5
v 1.5 2 -0.5
v 1.5 5 -0.5
v 1.5 5 -1.5
v 1.5 8 0.5
v 1.5 8 -1.5
v -1.5 7 1.5
v -1.5 9 1.5
v 0.5 7 1.5
v 0.5 9 1.5
v -0.5 0 0.5
v -0.5 1 0.5
v -0.5 7 0.5
v 0.5 1 0.5
v 0.5 2 0.5
v 0.5 7 0.5
v 0.5 8 0.5
v 1.5 0 0.5
v 1.5 1 0.5
v 1.5 2 0.5
v 1.5 8 0.5
v -1.5 7 -0.5
v -1.5 9 -0.5
v -0.5 7 -0.5
v -0.5 8 -0.5
v 0.5 8 -0.5
v 0.5 9 -0.5
v -0.5 0 -1.5
v -0.5 1 -1.5
v -0.5 2 -1.5
v -0.5 8 -1.5
v 0.5 2 -1.5
v 0.5 5 -1.5
v 1.5 0 -1.5
v 1.5 1 -1.5
v 1.5 5 -1.5
v 1.5 8 -1.5
v -0.5 0 0.5
v 1.5 0 0.5
v -0.5 0 -1.5
v 1.5 0 -1.5
v -1.5 7 1.5
v 0.5 7 1.5
v -0.5 7 0.5
v 0.5 7 0.5
v -1.5 7 -0.5
v -0.5 7 -0.5
v 0.5 8 0.5
v 1.5 8 0.5
v -0.5 8 -0.5
v 0.5 8 -0.5
v -0.5 8 -1.5
v 1.5 8 -1.5
v -1.5 9 1.5
v 0.5 9 1.5
v -1.5 9 -0.5
v 0.5 9 -0.5

# faces
f 3/3/1 2/3/1 1/3/1
f 4/3/1 2/3/1 3/3/1
f 7/3/1 6/3/1 5/3/1
f 8/3/1 6/3/1 7/3/1
f 9/3/1 6/3/1 8/3/1
f 10/1/1 8/1/1 7/1/1
f 10/2/1 9/2/1 8/2/1
f 11/2/1 9/2/1 10/2/1
f 12/1/1 10/1/1 7/1/1
f 12/1/1 11/1/1 10/1/1
f 13/1/1 11/1/1 12/1/1
f 14/1/1 11/1/1 13/1/1
f 15/1/1 11/1/1 14/1/1
f 16/3/2 17/3/2 18/3/2
f 16/3/2 18/3/2 20/3/2
f 18/3/2 19/3/2 20/3/2
f 20/3/2 19/3/2 21/3/2
f 22/3/2 23/3/2 24/3/2
f 24/3/2 23/3/2 25/3/2
f 24/2/2 25/2/2 26/2/2
f 26/2/2 25/2/2 27/2/2
f 26/1/2 27/1/2 28/1/2
f 27/2/2 25/2/2 28/2/2
f 28/2/2 25/2/2 29/2/2
f 26/1/2 28/1/2 30/1/2
f 28/1/2 29/1/2 30/1/2
f 30/1/2 29/1/2 31/1/2
f 34/3/3 33/3/3 32/3/3
f 35/3/3 33/3/3 34/3/3
f 39/3/3 37/3/3 36/3/3
f 39/1/3 38/1/3 37/1/3
f 40/1/3 38/1/3 39/1/3
f 41/1/3 38/1/3 40/1/3
f 43/3/3 39/3/3 36/3/3
f 44/2/3 40/2/3 39/2/3
f 44/3/3 39/3/3 43/3/3
f 45/1/3 42/1/3 41/1/3
f 45/2/3 40/2/3 44/2/3
f 45/1/3 41/1/3 40/1/3
f 46/1/3 42/1/3 45/1/3
f 47/3/4 48/3/4 49/3/4
f 49/3/4 48/3/4 50/3/4
f 50/3/4 48/3/4 51/3/4
f 51/3/4 48/3/4 52/3/4
f 54/2/4 55/2/4 57/2/4
f 55/1/4 56/1/4 57/1/4
f 57/1/4 56/1/4 58/1/4
f 53/3/4 54/3/4 59/3/4
f 54/2/4 57/2/4 60/2/4
f 59/3/4 54/3/4 60/3/4
f 57/2/4 58/2/4 60/2/4
f 58/1/4 56/1/4 61/1/4
f 60/2/4 58/2/4 61/2/4
f 61/1/4 56/1/4 62/1/4
f 65/3/5 64/3/5 63/3/5
f 66/3/5 64/3/5 65/3/5
f 69/3/5 68/3/5 67/3/5
f 70/3/5 68/3/5 69/3/5
f 71/3/5 69/3/5 67/3/5
f 72/3/5 69/3/5 71/3/5
f 73/1/6 74/1/6 76/1/6
f 75/1/6 76/1/6 77/1/6
f 76/1/6 74/1/6 78/1/6
f 77/1/6 76/1/6 78/1/6
f 79/3/6 80/3/6 81/3/6
f 81/3/6 80/3/6 82/3/6
