# MagicaVoxel @ ephtracy

# material
mtllib ScannerGun.mtl
usemtl palette

# normals
vn -1 0 0
vn 1 0 0
vn 0 0 1
vn 0 0 -1
vn 0 -1 0
vn 0 1 0

# texcoords
vt 0.197266 0.5
vt 0.201172 0.5
vt 0.294922 0.5
vt 0.544922 0.5

# verts
v -1.5 2 1.5
v -1.5 2 -1.5
v -1.5 3 1.5
v -1.5 3 -1.5
v -1.5 4 1.5
v -1.5 4 0.5
v -1.5 4 -1.5
v -1.5 5 1.5
v -1.5 5 0.5
v -1.5 5 -0.5
v -1.5 5 -1.5
v -1.5 6 1.5
v -1.5 6 -0.5
v -1.5 6 -1.5
v -1.5 7 1.5
v -1.5 7 -1.5
v -0.5 0 0.5
v -0.5 0 -0.5
v -0.5 2 0.5
v -0.5 2 -0.5
v 0.5 0 0.5
v 0.5 0 -0.5
v 0.5 2 0.5
v 0.5 2 -0.5
v 1.5 2 1.5
v 1.5 2 -1.5
v 1.5 3 1.5
v 1.5 3 -1.5
v 1.5 4 1.5
v 1.5 4 -0.5
v 1.5 4 -1.5
v 1.5 5 1.5
v 1.5 5 0.5
v 1.5 5 -0.5
v 1.5 5 -1.5
v 1.5 6 1.5
v 1.5 6 0.5
v 1.5 6 -1.5
v 1.5 7 1.5
v 1.5 7 -1.5
v -1.5 2 1.5
v -1.5 3 1.5
v -1.5 4 1.5
v -1.5 5 1.5
v -1.5 6 1.5
v -1.5 7 1.5
v -0.5 4 1.5
v -0.5 5 1.5
v 0.5 5 1.5
v 0.5 6 1.5
v 1.5 2 1.5
v 1.5 3 1.5
v 1.5 4 1.5
v 1.5 5 1.5
v 1.5 6 1.5
v 1.5 7 1.5
v -0.5 0 0.5
v -0.5 2 0.5
v 0.5 0 0.5
v 0.5 2 0.5
v -0.5 0 -0.5
v -0.5 2 -0.5
v 0.5 0 -0.5
v 0.5 2 -0.5
v -1.5 2 -1.5
v -1.5 3 -1.5
v -1.5 4 -1.5
v -1.5 5 -1.5
v -1.5 6 -1.5
v -1.5 7 -1.5
v -0.5 5 -1.5
v -0.5 6 -1.5
v 0.5 4 -1.5
v 0.5 5 -1.5
v 1.5 2 -1.5
v 1.5 3 -1.5
v 1.5 4 -1.5
v 1.5 5 -1.5
v 1.5 6 -1.5
v 1.5 7 -1.5
v -0.5 0 0.5
v 0.5 0 0.5
v -0.5 0 -0.5
v 0.5 0 -0.5
v -1.5 2 1.5
v 1.5 2 1.5
v -0.5 2 0.5
v 0.5 2 0.5
v -0.5 2 -0.5
v 0.5 2 -0.5
v -1.5 2 -1.5
v 1.5 2 -1.5
v -1.5 7 1.5
v 1.5 7 1.5
v -1.5 7 -1.5
v 1.5 7 -1.5

# faces
f 3/3/1 2/3/1 1/3/1
f 4/3/1 2/3/1 3/3/1
f 5/4/1 4/4/1 3/4/1
f 6/4/1 4/4/1 5/4/1
f 7/4/1 4/4/1 6/4/1
f 8/1/1 6/1/1 5/1/1
f 9/2/1 7/2/1 6/2/1
f 9/1/1 6/1/1 8/1/1
f 10/2/1 7/2/1 9/2/1
f 11/2/1 7/2/1 10/2/1
f 12/2/1 9/2/1 8/2/1
f 12/2/1 10/2/1 9/2/1
f 13/1/1 11/1/1 10/1/1
f 13/2/1 10/2/1 12/2/1
f 14/1/1 11/1/1 13/1/1
f 15/4/1 13/4/1 12/4/1
f 15/4/1 14/4/1 13/4/1
f 16/4/1 14/4/1 15/4/1
f 19/3/1 18/3/1 17/3/1
f 20/3/1 18/3/1 19/3/1
f 21/3/2 22/3/2 23/3/2
f 23/3/2 22/3/2 24/3/2
f 25/3/2 26/3/2 27/3/2
f 27/3/2 26/3/2 28/3/2
f 27/4/2 28/4/2 29/4/2
f 29/4/2 28/4/2 30/4/2
f 30/4/2 28/4/2 31/4/2
f 29/2/2 30/2/2 32/2/2
f 32/2/2 30/2/2 33/2/2
f 30/1/2 31/1/2 34/1/2
f 33/2/2 30/2/2 34/2/2
f 34/1/2 31/1/2 35/1/2
f 32/1/2 33/1/2 36/1/2
f 33/2/2 34/2/2 37/2/2
f 36/1/2 33/1/2 37/1/2
f 34/2/2 35/2/2 37/2/2
f 37/2/2 35/2/2 38/2/2
f 36/4/2 37/4/2 39/4/2
f 37/4/2 38/4/2 39/4/2
f 39/4/2 38/4/2 40/4/2
f 47/4/3 43/4/3 42/4/3
f 47/1/3 44/1/3 43/1/3
f 48/2/3 45/2/3 44/2/3
f 48/1/3 44/1/3 47/1/3
f 49/2/3 48/2/3 47/2/3
f 49/2/3 45/2/3 48/2/3
f 50/4/3 46/4/3 45/4/3
f 50/2/3 45/2/3 49/2/3
f 51/3/3 42/3/3 41/3/3
f 52/4/3 47/4/3 42/4/3
f 52/3/3 42/3/3 51/3/3
f 53/2/3 49/2/3 47/2/3
f 53/4/3 47/4/3 52/4/3
f 54/1/3 50/1/3 49/1/3
f 54/2/3 49/2/3 53/2/3
f 55/4/3 46/4/3 50/4/3
f 55/1/3 50/1/3 54/1/3
f 56/4/3 46/4/3 55/4/3
f 59/3/3 58/3/3 57/3/3
f 60/3/3 58/3/3 59/3/3
f 61/3/4 62/3/4 63/3/4
f 63/3/4 62/3/4 64/3/4
f 67/2/4 68/2/4 71/2/4
f 68/1/4 69/1/4 71/1/4
f 69/4/4 70/4/4 72/4/4
f 71/1/4 69/1/4 72/1/4
f 66/4/4 67/4/4 73/4/4
f 67/2/4 71/2/4 73/2/4
f 71/2/4 72/2/4 73/2/4
f 73/2/4 72/2/4 74/2/4
f 65/3/4 66/3/4 75/3/4
f 66/4/4 73/4/4 76/4/4
f 75/3/4 66/3/4 76/3/4
f 73/1/4 74/1/4 77/1/4
f 76/4/4 73/4/4 77/4/4
f 74/2/4 72/2/4 78/2/4
f 77/1/4 74/1/4 78/1/4
f 72/4/4 70/4/4 79/4/4
f 78/2/4 72/2/4 79/2/4
f 79/4/4 70/4/4 80/4/4
f 83/3/5 82/3/5 81/3/5
f 84/3/5 82/3/5 83/3/5
f 87/3/5 86/3/5 85/3/5
f 88/3/5 86/3/5 87/3/5
f 89/3/5 87/3/5 85/3/5
f 90/3/5 86/3/5 88/3/5
f 91/3/5 89/3/5 85/3/5
f 91/3/5 90/3/5 89/3/5
f 92/3/5 86/3/5 90/3/5
f 92/3/5 90/3/5 91/3/5
f 93/4/6 94/4/6 95/4/6
f 95/4/6 94/4/6 96/4/6
