# MagicaVoxel @ ephtracy

# material
mtllib Leg.mtl
usemtl palette

# normals
vn -1 0 0
vn 1 0 0
vn 0 0 1
vn 0 0 -1
vn 0 -1 0
vn 0 1 0

# texcoords
vt 0.294922 0.5
vt 0.544922 0.5

# verts
v -1 8 1
v -1 8 -1
v -1 10 1
v -1 10 -1
v 0 0 -0
v 0 0 -1
v 0 1 -0
v 0 1 -1
v 0 8 -0
v 0 8 -1
v 1 0 -0
v 1 0 -1
v 1 1 -0
v 1 1 -1
v 1 8 1
v 1 8 -0
v 1 8 -1
v 1 10 1
v 1 10 -1
v -1 8 1
v -1 10 1
v 1 8 1
v 1 10 1
v 0 0 -0
v 0 1 -0
v 0 8 -0
v 1 0 -0
v 1 1 -0
v 1 8 -0
v -1 8 -1
v -1 10 -1
v 0 0 -1
v 0 1 -1
v 0 8 -1
v 1 0 -1
v 1 1 -1
v 1 8 -1
v 1 10 -1
v 0 0 -0
v 1 0 -0
v 0 0 -1
v 1 0 -1
v -1 8 1
v 1 8 1
v 0 8 -0
v 1 8 -0
v -1 8 -1
v 0 8 -1
v -1 10 1
v 1 10 1
v -1 10 -1
v 1 10 -1

# faces
f 3/2/1 2/2/1 1/2/1
f 4/2/1 2/2/1 3/2/1
f 7/2/1 6/2/1 5/2/1
f 8/2/1 6/2/1 7/2/1
f 9/1/1 8/1/1 7/1/1
f 10/1/1 8/1/1 9/1/1
f 11/2/2 12/2/2 13/2/2
f 13/2/2 12/2/2 14/2/2
f 13/1/2 14/1/2 16/1/2
f 16/1/2 14/1/2 17/1/2
f 15/2/2 16/2/2 18/2/2
f 16/2/2 17/2/2 18/2/2
f 18/2/2 17/2/2 19/2/2
f 22/2/3 21/2/3 20/2/3
f 23/2/3 21/2/3 22/2/3
f 27/2/3 25/2/3 24/2/3
f 28/1/3 26/1/3 25/1/3
f 28/2/3 25/2/3 27/2/3
f 29/1/3 26/1/3 28/1/3
f 30/2/4 31/2/4 34/2/4
f 32/2/4 33/2/4 35/2/4
f 33/1/4 34/1/4 36/1/4
f 35/2/4 33/2/4 36/2/4
f 34/2/4 31/2/4 37/2/4
f 36/1/4 34/1/4 37/1/4
f 37/2/4 31/2/4 38/2/4
f 41/2/5 40/2/5 39/2/5
f 42/2/5 40/2/5 41/2/5
f 45/2/5 44/2/5 43/2/5
f 46/2/5 44/2/5 45/2/5
f 47/2/5 45/2/5 43/2/5
f 48/2/5 45/2/5 47/2/5
f 49/2/6 50/2/6 51/2/6
f 51/2/6 50/2/6 52/2/6
